<?xml version="1.0" encoding="UTF-8"?>
<svg version="1.1" xmlns="http://www.w3.org/2000/svg" width="1254" height="1254">
<path d="M0 0 C413.82 0 827.64 0 1254 0 C1254 413.82 1254 827.64 1254 1254 C840.18 1254 426.36 1254 0 1254 C0 840.18 0 426.36 0 0 Z " fill="#FDFDFD" transform="translate(0,0)"/>
<path d="M0 0 C0.6894873 0.09120117 1.37897461 0.18240234 2.08935547 0.27636719 C33.21793574 4.60716796 59.76323632 21.58076439 82 43 C82.7528125 43.68964844 83.505625 44.37929688 84.28125 45.08984375 C108.49956607 67.94807323 121.72780037 100.56677063 135.3984375 130.2265625 C139.08706411 138.22441528 142.85945732 146.18216143 146.63186646 154.14074707 C151.7383149 164.91531288 156.83097052 175.68894144 161.66967773 186.5871582 C165.6988044 195.63589301 169.92333317 204.59467908 174.12963867 213.56201172 C177.15348373 220.01257269 180.14822674 226.47123393 183 233 C185.85825224 239.53737873 188.86277427 245.99846413 191.91894531 252.4453125 C193.78233068 256.38303252 195.60907633 260.33449007 197.40234375 264.3046875 C200.51412402 271.17194134 203.79472682 277.95589317 207.0703125 284.74609375 C209.49482717 289.79043121 211.81951496 294.84612626 214 300 C214.65129797 301.34090759 215.31513275 302.67592331 216 304 C217.82707768 307.60571011 219.4309209 311.27343715 221 315 C223.21540341 320.11674762 225.54960842 325.14026428 228.0703125 330.11328125 C229.19451982 332.39476081 230.19030398 334.7248172 231.17626953 337.06884766 C235.06983857 346.19692446 239.40612237 355.13769619 243.64596558 364.10842896 C249.25029656 375.96818448 254.81356909 387.84069376 260.16870117 399.81567383 C260.53455322 400.63060303 260.90040527 401.44553223 261.27734375 402.28515625 C261.58921631 402.98519775 261.90108887 403.68523926 262.22241211 404.40649414 C262.8944037 406.0028652 262.8944037 406.0028652 264 407 C264.49177734 405.88069092 264.98355469 404.76138184 265.49023438 403.6081543 C273.92589958 384.41815724 282.37115185 365.23491684 291.125 346.1875 C302.18522969 322.11783337 312.93996156 297.91158491 323.68676758 273.70068359 C328.88006848 262.00575747 334.11931208 250.33146722 339.35888672 238.65722656 C342.61906912 231.39272918 345.87477803 224.12622484 349.13134766 216.86010742 C351.80068589 210.90466113 354.47117735 204.94973864 357.14453125 198.99609375 C363.44825077 184.95293212 369.7152379 170.89409354 375.95852661 156.82397461 C381.24895138 144.90465442 386.59192393 133.01010289 391.97436523 121.13208008 C394.78349724 114.92947516 397.57589819 108.7202808 400.328125 102.4921875 C400.73227631 101.57842094 400.73227631 101.57842094 401.14459229 100.64619446 C402.40676841 97.79120037 403.66558539 94.93480462 404.91894531 92.07592773 C407.21685916 86.86773482 409.60591691 81.7384127 412.1796875 76.66015625 C414.26967329 72.53111879 416.08310374 68.4844621 417.625 64.125 C420.92965658 55.35818811 420.92965658 55.35818811 424 52 C426.75 51.625 426.75 51.625 429 52 C431.04991419 58.84477785 432.33843615 65.76831118 433.60009766 72.79443359 C433.99749325 74.98617461 434.40948474 77.17476179 434.82421875 79.36328125 C436.23245458 86.90812982 437.35091699 94.28585327 437.69140625 101.97265625 C438.00582578 105.05715161 438.7021747 107.92689713 439.48950195 110.92114258 C440.33070637 114.34670717 440.81568013 117.82429365 441.3125 121.3125 C441.43439697 122.14225342 441.55629395 122.97200684 441.68188477 123.8269043 C442.42490681 128.91492172 443.14253724 134.00647798 443.85751343 139.09849548 C444.38251649 142.83673155 444.90945012 146.57469317 445.4375 150.3125 C445.54451233 151.07053925 445.65152466 151.82857849 445.76177979 152.60958862 C447.47658276 164.7187928 449.44128317 176.76416693 451.61083984 188.80078125 C452.28944414 192.6357044 452.86721567 196.48428739 453.44140625 200.3359375 C453.91271199 203.42743951 454.40272179 206.51455817 454.90234375 209.6015625 C455.07185547 210.65037598 455.24136719 211.69918945 455.41601562 212.77978516 C455.74789554 214.8291747 456.08108399 216.87835308 456.41601562 218.92724609 C457.49051916 225.57816408 458.46637404 232.2392179 459.40625 238.91015625 C460.98797042 250.10840093 462.76203121 261.27266271 464.5625 272.4375 C466.46942776 284.28025912 468.34227205 296.11946477 470 308 C470.6378189 312.43868558 471.28649509 316.87573157 471.9375 321.3125 C472.09412109 322.39466797 472.25074219 323.47683594 472.41210938 324.59179688 C473.42897013 331.50726029 474.57668796 338.38966338 475.80667114 345.26953125 C477.22739517 353.22779618 478.55223858 361.20141339 479.87481689 369.17648315 C480.32550208 371.89080709 480.77848515 374.60473992 481.23193359 377.31860352 C482.71960045 386.23163418 484.18947242 395.14684731 485.61328125 404.0703125 C489.22654593 426.771402 489.22654593 426.771402 495 449 C495.24298828 449.80791992 495.48597656 450.61583984 495.73632812 451.44824219 C503.36375897 476.65317344 514.33133348 501.19423752 532 521 C533.24330078 522.45792969 533.24330078 522.45792969 534.51171875 523.9453125 C555.7277964 548.42721376 588.87489443 566.40329629 621.171875 569.734375 C628.77757275 570.26211729 636.38239733 570.68840807 644 571 C644.625 573.375 644.625 573.375 645 576 C639.37673984 581.62326016 628.45123941 580.24689492 621.0022583 580.27575684 C619.2039732 580.27419714 617.40568807 580.26913324 615.60742188 580.26074219 C612.90211127 580.25010658 610.19747679 580.26063489 607.4921875 580.2734375 C591.67205098 580.2869217 577.17537429 578.78517866 562 574 C560.13794922 573.47792969 560.13794922 573.47792969 558.23828125 572.9453125 C518.4885145 561.66018866 488.02269745 532.47986135 468.12402344 496.99121094 C467.35879969 495.63561474 466.58021952 494.28749124 465.79003906 492.94628906 C457.44427413 478.76304921 452.5346333 463.76629931 448 448 C447.65243652 446.82663086 447.30487305 445.65326172 446.94677734 444.44433594 C444.15688684 434.62276929 442.65665043 424.85986098 441.375 414.75 C440.97019714 411.64008599 440.56000361 408.53090043 440.1484375 405.421875 C440.00135597 404.30058701 440.00135597 404.30058701 439.8513031 403.15664673 C439.33115359 399.25024784 438.73965291 395.37933373 437.99609375 391.5078125 C436.67818507 384.59075701 435.86806099 377.60344183 434.99853516 370.61914062 C434.45858707 366.28938421 433.90628301 361.96119763 433.35546875 357.6328125 C433.24286713 356.74644104 433.1302655 355.86006958 433.01425171 354.94683838 C430.26513231 333.33336062 427.36102156 311.76775688 423.8112793 290.27001953 C420.84249534 272.15608368 418.35658616 253.9864635 416.78613281 235.69677734 C415.87702092 225.7180062 414.12810685 215.87060031 412.48925781 205.99121094 C410.40820929 193.26815382 408.76968171 180.49585975 407.3125 167.6875 C407.18093506 166.54812988 407.04937012 165.40875977 406.91381836 164.23486328 C406.27458899 158.44955803 405.85112726 152.82021518 406 147 C405.34 147 404.68 147 404 147 C403.608125 148.2478125 403.21625 149.495625 402.8125 150.78125 C400.89769223 156.51672561 398.46975142 161.98559995 396 167.5 C395.00641864 169.73824051 394.01293159 171.97652289 393.01953125 174.21484375 C392.262771 175.91423096 392.262771 175.91423096 391.49072266 177.64794922 C389.20850044 182.77977218 386.94795018 187.92105938 384.6875 193.0625 C384.23632812 194.08674072 383.78515625 195.11098145 383.3203125 196.16625977 C380.82148044 201.84214101 378.3349032 207.52315807 375.86328125 213.2109375 C369.20016897 228.53177122 362.4068611 243.78736783 355.5 259 C349.35639811 272.53290549 343.28444605 286.0912741 337.35424805 299.71899414 C336.79218638 301.0105931 336.2300928 302.30217819 335.66796875 303.59375 C335.38426926 304.24568832 335.10056976 304.89762665 334.80827332 305.56932068 C330.68104336 315.04208962 326.49262522 324.48799032 322.3125 333.9375 C320.68090043 337.62626266 319.04937619 341.31505861 317.41796875 345.00390625 C317.02963867 345.88192398 316.64130859 346.75994171 316.24121094 347.66456604 C313.19104646 354.56305244 310.15553524 361.46786707 307.125 368.375 C303.93091633 375.65387225 300.69518221 382.91266039 297.42944336 390.15966797 C292.08688904 402.02251016 286.80581435 413.91139702 281.61264038 425.8404541 C280.92620703 427.41547463 280.23783175 428.98965063 279.54727173 430.56286621 C273.28970061 444.83055214 267.48745972 459.16505483 264.1875 474.4375 C263.78714158 476.22830958 263.3848969 478.01869886 262.98046875 479.80859375 C262.81442139 480.56970459 262.64837402 481.33081543 262.47729492 482.11499023 C262 484 262 484 261 486 C258.69 486 256.38 486 254 486 C253.5978125 484.87078125 253.5978125 484.87078125 253.1875 483.71875 C250.50955435 476.46010784 247.41088357 469.63488145 243.8840332 462.75854492 C241.60862497 458.29826769 239.60193959 453.82386336 237.88671875 449.11328125 C237.01895809 446.89570921 237.01895809 446.89570921 235.5390625 444.61328125 C233.86482728 441.77048084 232.79742406 438.97973604 231.6875 435.875 C229.67079295 430.48699051 227.24465222 425.6158961 224.41015625 420.62109375 C222.63059724 417.31338157 221.27578564 413.9210339 219.93359375 410.41796875 C218.09628105 405.65940572 216.1770794 400.91275402 213.5 396.5625 C211.6306649 393.36905254 210.3754528 390.05134884 209.03125 386.609375 C205.69769983 378.17448289 201.62203772 370.11534491 197.48828125 362.05078125 C194.74953041 356.6629616 192.19434468 351.29933951 190.0546875 345.64453125 C186.97544269 337.92361 183.31862487 330.47198321 179.6875 323 C174.91636837 313.12534913 170.32378066 303.18261852 165.8125 293.1875 C160.51085745 281.44390309 155.08869202 269.76458625 149.5625 258.125 C141.4739908 241.08159484 133.59535419 223.94738369 125.80218506 206.76715088 C124.68963259 204.31628489 123.57302319 201.86727012 122.45703125 199.41796875 C120.27878601 194.62332825 118.12995499 189.81627902 116 185 C115.74222778 184.41742432 115.48445557 183.83484863 115.21887207 183.23461914 C113.41809917 179.16175611 111.62610823 175.08514664 109.84237671 171.00479126 C109.24309549 169.63566681 108.64206423 168.26730694 108.03921509 166.89974976 C107.19652173 164.98625655 106.36104192 163.06976998 105.52734375 161.15234375 C105.03999756 160.03851318 104.55265137 158.92468262 104.05053711 157.77709961 C103 155 103 155 103 152 C102.34 152 101.68 152 101 152 C101.01160156 152.57363281 101.02320313 153.14726562 101.03515625 153.73828125 C101.21021855 170.21914673 99.70360112 186.66758767 98.1875 203.0625 C98.05835709 204.48125931 98.05835709 204.48125931 97.92660522 205.92868042 C96.68422344 219.5480785 95.21943753 233.12582305 93.54968262 246.69888306 C92.51933342 255.10018247 91.66973636 263.44388948 91.3581543 271.90454102 C91.07427481 278.96711858 90.35393894 285.97097831 89.625 293 C88.44565058 304.40938407 87.35602085 315.82181758 86.375 327.25 C86.31041595 328.0013623 86.24583191 328.75272461 86.17929077 329.52685547 C85.37613361 338.92962129 84.70452034 348.32461739 84.26098633 357.75170898 C84.0270282 361.99642626 83.57810497 366.20251636 83.1015625 370.42578125 C81.80573719 382.32637354 80.8807115 394.25475702 79.9375 406.1875 C79.67712413 409.472781 79.41600806 412.75799566 79.15272522 416.04304504 C78.99069596 418.06527571 78.83029895 420.08763809 78.67185974 422.1101532 C78.24605187 427.43092967 77.68386709 432.70652478 77 438 C76.44483409 447.13888501 76.76374569 453.97822607 81.8125 461.8125 C86.89474884 466.89474884 92.54516213 467.59383786 99.375 468.1875 C100.62216797 468.3102832 100.62216797 468.3102832 101.89453125 468.43554688 C103.92868087 468.63428563 105.96422949 468.81861584 108 469 C108 471.31 108 473.62 108 476 C69.72 476 31.44 476 -8 476 C-8 473.69 -8 471.38 -8 469 C-7.03320312 468.96261719 -6.06640625 468.92523437 -5.0703125 468.88671875 C9.18100359 468.16709784 23.80096296 465.16424139 34 454.1875 C41.9776563 443.93334128 43.86326196 432.85449505 45.5625 420.3125 C45.81318357 418.49600829 46.06446957 416.67959959 46.31640625 414.86328125 C46.43322754 414.01314453 46.55004883 413.16300781 46.67041016 412.28710938 C46.93171927 410.47381772 47.2373964 408.66692793 47.55859375 406.86328125 C48.22932528 402.51242981 48.38791191 398.13751891 48.60546875 393.74609375 C48.79113098 390.35935868 49.17485284 387.27599671 50 384 C50.18242168 382.61328264 50.33580727 381.22253362 50.46484375 379.82983398 C50.54162354 379.01896835 50.61840332 378.20810272 50.69750977 377.37266541 C50.81630493 376.07251244 50.81630493 376.07251244 50.9375 374.74609375 C51.11197313 372.9042963 51.28645248 371.06249945 51.4609375 369.22070312 C51.73174948 366.32178398 52.00136873 363.42275655 52.27050781 360.52368164 C52.53160924 357.72253809 52.79690508 354.92181424 53.0625 352.12109375 C53.18129517 350.81790443 53.18129517 350.81790443 53.30249023 349.48838806 C53.41765991 348.27681786 53.41765991 348.27681786 53.53515625 347.04077148 C53.600979 346.33113754 53.66680176 345.6215036 53.73461914 344.8903656 C54 343 54 343 55 340 C55.33855288 337.52325693 55.64095846 335.05431259 55.9140625 332.5703125 C56.08999898 331.02244157 56.26611295 329.47459081 56.44238281 327.92675781 C56.53362427 327.11694458 56.62486572 326.30713135 56.71887207 325.47277832 C57.08652955 322.23889317 57.47014459 319.00700656 57.85462952 315.77508545 C60.37690124 294.56730609 62.74912921 273.34961415 64.88220215 252.09909058 C65.17747108 249.15774224 65.47439689 246.21656194 65.77142334 243.27539062 C65.92902667 241.70651152 66.08523331 240.13749169 66.24029541 238.56835938 C67.08855838 229.99962227 68.00181751 221.51005493 69.50878906 213.02783203 C70.44064219 207.28387454 71.01273946 201.49213121 71.63189697 195.70761108 C71.96771183 192.57175119 72.31145956 189.43677383 72.65463257 186.30171204 C72.83340864 184.6678719 73.01181187 183.03399092 73.18984985 181.40007019 C74.06159111 173.40469348 74.95971808 165.41241539 75.8706665 157.42141724 C76.11672601 155.26017392 76.36089368 153.0987227 76.60498047 150.93725586 C79.02032273 129.67250954 79.02032273 129.67250954 80.67138672 120.11254883 C82.48202601 109.19905421 78.40096666 102.8371205 72.46582031 94.16162109 C71.0264284 92.03897352 69.65774672 89.88552608 68.3046875 87.70703125 C59.25928937 73.21652515 49.24649736 59.67961263 37.35351562 47.40039062 C36.12388005 46.12817027 34.91242516 44.83844048 33.703125 43.546875 C20.47091446 29.73515158 3.389504 18.49838586 -15 13 C-15.83708496 12.74105957 -16.67416992 12.48211914 -17.53662109 12.21533203 C-26.26149496 9.76053701 -34.76543032 9.45282081 -43.75 9.3125 C-45.23700744 9.27923543 -46.72398782 9.24473778 -48.2109375 9.20898438 C-51.80709246 9.12514641 -55.40332197 9.05785627 -59 9 C-58.20117188 4.16162109 -58.20117188 4.16162109 -56.390625 2.70703125 C-38.68207807 -4.69307322 -18.55738097 -2.52018754 0 0 Z " fill="#040404" transform="translate(301,261)"/>
<path d="M0 0 C5.97500581 0.60721604 11.23754563 2.28454696 16.875 4.3125 C17.72191406 4.60833984 18.56882812 4.90417969 19.44140625 5.20898438 C45.10620417 14.30760722 68.00657076 28.61334326 88 47 C88.81911865 47.75120117 88.81911865 47.75120117 89.65478516 48.51757812 C125.51475593 81.83511845 145.50110467 130.51385827 148 179 C148.5403029 196.71350831 148.31604386 214.41463257 146 232 C145.8146167 233.43085937 145.8146167 233.43085937 145.62548828 234.890625 C139.94633184 276.96456942 122.15954753 313.4036052 93 344 C92.23429688 344.83015625 91.46859375 345.6603125 90.6796875 346.515625 C85.59493149 351.85892792 80.08368397 356.44779604 74.25 360.9375 C73.1679126 361.77172485 73.1679126 361.77172485 72.06396484 362.62280273 C68.19710092 365.53927505 64.43983044 367.99649161 60 370 C57.57583225 364.33412233 56.48077332 358.51635005 55.25 352.5 C55.00378906 351.37207031 54.75757813 350.24414062 54.50390625 349.08203125 C54.28089844 347.99277344 54.05789063 346.90351562 53.828125 345.78125 C53.6209082 344.79189453 53.41369141 343.80253906 53.20019531 342.78320312 C52.89559452 338.54850921 54.17286188 335.99326523 56.84765625 332.78125 C57.94400391 331.65203125 57.94400391 331.65203125 59.0625 330.5 C91.46852268 295.1996595 102.19094889 243.56097245 102.1875 197.0625 C102.18840637 196.26758148 102.18931274 195.47266296 102.19024658 194.65365601 C102.18470761 151.67844124 91.99033829 108.03960587 66 73 C65.36320313 72.14148438 64.72640625 71.28296875 64.0703125 70.3984375 C49.63213808 51.92847098 32.46809616 38.0909784 11.8984375 27.09375 C11.22288818 26.72531982 10.54733887 26.35688965 9.85131836 25.97729492 C8.29634492 25.15643792 6.69672124 24.42095937 5.08984375 23.70703125 C1.94691515 21.13981667 1.73131044 18.00802816 1.1875 14.1875 C1.06697266 13.48818359 0.94644531 12.78886719 0.82226562 12.06835938 C0.15818217 8.01175815 -0.12293864 4.12167957 0 0 Z " fill="#030202" transform="translate(745,332)"/>
<path d="M0 0 C3.95729807 0.02228465 7.91460167 0.03341389 11.87194347 0.04490471 C23.79948642 0.08029936 35.72658903 0.15285581 47.65382004 0.24474335 C50.38724991 0.26576184 53.120685 0.28593148 55.85412216 0.30597687 C66.27156944 0.38392097 76.68852378 0.48520771 87.10545349 0.61507416 C89.24442764 0.64099102 91.38341698 0.66430115 93.52242661 0.68708038 C121.11366406 0.99179378 121.11366406 0.99179378 133.45775986 3.26630402 C131.55201356 9.36469216 129.379433 14.42295773 126.45775986 20.26630402 C81.57775986 19.93630402 36.69775986 19.60630402 -9.54224014 19.26630402 C-9.54224014 117.60630402 -9.54224014 215.94630402 -9.54224014 317.26630402 C-12.77797918 315.6484345 -13.51249306 312.22415588 -14.88599014 309.03192902 C-15.21145325 308.29052673 -15.53691635 307.54912445 -15.87224197 306.78525543 C-16.57110748 305.19220176 -17.2671904 303.5979251 -17.96078873 302.00257111 C-19.76144182 297.86285251 -21.58370236 293.73267915 -23.40552139 289.60224152 C-23.76370453 288.78913513 -24.12188766 287.97602875 -24.49092484 287.13828278 C-27.30746755 280.75947403 -30.21375902 274.42857479 -33.22974014 268.14130402 C-33.60227921 267.36432159 -33.97481827 266.58733917 -34.35864639 265.78681183 C-36.25855208 261.85352168 -38.20659321 257.9469578 -40.17505264 254.04755402 C-41.84856436 250.70955743 -43.4009552 247.38444172 -44.72974014 243.89130402 C-45.9335383 240.66798499 -45.9335383 240.66798499 -47.58311653 237.6697197 C-49.02934751 234.04568817 -48.80976772 230.42889597 -48.78274918 226.58509064 C-48.78445803 225.69962563 -48.78616688 224.81416062 -48.78792751 223.90186334 C-48.79122675 220.92918621 -48.7802115 217.95673385 -48.76929092 214.98407745 C-48.7687269 212.85543574 -48.76904319 210.72679364 -48.77017593 208.59815216 C-48.77075081 202.8134156 -48.75897469 197.02876163 -48.74502802 191.2440443 C-48.7325431 185.2008703 -48.73135193 179.15769449 -48.7289772 173.11450958 C-48.72275585 161.66818386 -48.70633615 150.22189625 -48.68627822 138.77558732 C-48.66393962 125.74551804 -48.65293092 112.71544695 -48.64288735 99.68536329 C-48.62197051 72.87898906 -48.58678179 46.07264867 -48.54224014 19.26630402 C-53.96452978 19.79600369 -59.3864598 20.32921279 -64.80810928 20.86542511 C-66.64558361 21.04668622 -68.4831465 21.22705227 -70.3208046 21.40644073 C-91.98669378 23.26774968 -91.98669378 23.26774968 -113.22974014 27.64130402 C-114.02791153 27.85826935 -114.82608292 28.07523468 -115.64844131 28.29877472 C-122.02639577 30.05801052 -128.30123574 32.07092766 -134.54224014 34.26630402 C-136.54129853 34.9357889 -138.54107465 35.60314406 -140.54224014 36.26630402 C-141.77059339 34.02530833 -142.97453509 31.77616621 -144.16724014 29.51630402 C-144.51786514 28.88208527 -144.86849014 28.24786652 -145.22974014 27.59442902 C-147.63436929 22.97754105 -147.63436929 22.97754105 -147.24927139 20.00458527 C-144.55208385 17.2580213 -141.18574746 16.3515086 -137.60474014 15.20380402 C-136.45002213 14.81756866 -136.45002213 14.81756866 -135.27197647 14.42353058 C-126.68898684 11.58680262 -118.23165506 9.24921043 -109.28502274 7.89136505 C-106.50581797 7.42722572 -103.76377569 6.91640229 -101.00587845 6.34851837 C-88.84689153 3.86066136 -76.88734102 2.30836305 -64.50708389 1.53192902 C-63.14232076 1.44109921 -63.14232076 1.44109921 -61.74998665 1.34843445 C-41.16824334 -0.00492559 -20.6179278 -0.12775593 0 0 Z " fill="#040404" transform="translate(572.5422401428223,320.7336959838867)"/>
<path d="M0 0 C8.34452603 0.41038653 14.57290514 3.20986051 21.9375 6.99609375 C25.97298785 8.94844783 29.02467423 9.14622182 33.37890625 8.97265625 C38.63986046 9.02753953 43.82673659 10.10447372 49 11 C49 11.99 49 12.98 49 14 C43.62924565 15.79025145 38.43214144 15.19242129 33 14 C42.47286053 17.42296641 51.05522261 18.50582539 61.06518555 18.67163086 C61.93570557 18.6897583 62.80622559 18.70788574 63.703125 18.7265625 C64.48333008 18.73252441 65.26353516 18.73848633 66.06738281 18.74462891 C68 19 68 19 70 21 C70 22.32 70 23.64 70 25 C71.20398437 24.96519531 72.40796875 24.93039062 73.6484375 24.89453125 C75.22394442 24.8663972 76.79946638 24.83909663 78.375 24.8125 C79.1690625 24.78736328 79.963125 24.76222656 80.78125 24.73632812 C82.85586148 24.70995595 84.93100865 24.84513538 87 25 C89 28 89 28 89 31 C88.34 31.33 87.68 31.66 87 32 C92.28 32.33 97.56 32.66 103 33 C103 33.99 103 34.98 103 36 C89.11699639 39.69228819 75.81254279 41.45021027 61.48681641 41.91650391 C59.91063217 41.96942507 58.33468534 42.03059085 56.75927734 42.10302734 C44.72272038 42.64850738 33.71264824 40.71316774 22 38 C41.87620407 44.83650483 62.20679317 44.17067287 83 44 C83 45.32 83 46.64 83 48 C74.88146378 49.59107444 67.14068981 50.2925668 58.875 50.1875 C57.79911621 50.18032959 56.72323242 50.17315918 55.61474609 50.16577148 C30.7492437 49.91641457 30.7492437 49.91641457 25 48 C25 48.66 25 49.32 25 50 C25.93851807 50.029729 25.93851807 50.029729 26.89599609 50.06005859 C29.72276519 50.15514226 32.54877815 50.26488746 35.375 50.375 C36.35984375 50.4059375 37.3446875 50.436875 38.359375 50.46875 C39.30039062 50.50742187 40.24140625 50.54609375 41.2109375 50.5859375 C42.08024902 50.6173584 42.94956055 50.6487793 43.84521484 50.68115234 C46 51 46 51 48 53 C48 54.32 48 55.64 48 57 C45.31173174 58.34413413 43.18764598 58.13239863 40.1875 58.125 C38.63095703 58.12886719 38.63095703 58.12886719 37.04296875 58.1328125 C34.24657058 58.01076175 31.72060121 57.63363355 29 57 C29.15726563 57.75152344 29.31453125 58.50304687 29.4765625 59.27734375 C31.87365503 76.32532272 29.86557477 92.63248243 25 109 C24.76522949 109.8053418 24.53045898 110.61068359 24.28857422 111.44042969 C22.48086191 117.63793954 22.48086191 117.63793954 21.61254883 120.41015625 C20.30670107 124.62305076 19.518531 128.63757619 19 133 C18.34 133 17.68 133 17 133 C17.33 107.26 17.66 81.52 18 55 C16.68 55 15.36 55 14 55 C14.33 67.87 14.66 80.74 15 94 C13 93 13 93 12.14624023 90.63012695 C11.23011391 87.19391893 10.31832908 83.75796926 9.4375 80.3125 C9.12031006 79.08490967 8.80312012 77.85731934 8.47631836 76.5925293 C6.41671013 68.35464198 4.88966067 60.52765426 5 52 C2.03 51.505 2.03 51.505 -1 51 C-1 51.99 -1 52.98 -1 54 C-14.54781153 53.1640712 -25.15105262 48.22363675 -37 42 C-37.78616699 41.58782227 -38.57233398 41.17564453 -39.38232422 40.75097656 C-44.26508205 38.18627583 -49.13619616 35.60044958 -54 33 C-54 32.34 -54 31.68 -54 31 C-49.51399963 32.69101186 -45.27749419 34.78691482 -41 36.9375 C-40.30132813 37.28490234 -39.60265625 37.63230469 -38.8828125 37.99023438 C-35.88888719 39.49002149 -32.98607136 41.00849723 -30.125 42.75390625 C-28.12302572 44.16861386 -28.12302572 44.16861386 -26 44 C-26.53367187 43.6596875 -27.06734375 43.319375 -27.6171875 42.96875 C-34.44353589 38.52808046 -41.22578725 33.77421275 -47 28 C-46.625 25.875 -46.625 25.875 -46 24 C-41.49468113 24.57586783 -38.08372202 26.45458381 -34.25 28.75 C-33.01327021 29.47438426 -31.77629061 30.19834218 -30.5390625 30.921875 C-29.93868164 31.27572266 -29.33830078 31.62957031 -28.71972656 31.99414062 C-26.37469738 33.36573634 -24.0029428 34.68646969 -21.625 36 C-20.91601562 36.391875 -20.20703125 36.78375 -19.4765625 37.1875 C-18.98929688 37.455625 -18.50203125 37.72375 -18 38 C-18.72445312 37.50371094 -19.44890625 37.00742187 -20.1953125 36.49609375 C-25.93306161 32.46436871 -30.91595798 28.73973474 -35 23 C-35 21.68 -35 20.36 -35 19 C-30.63541741 19.56651803 -27.84585363 21.16273272 -24.1875 23.5625 C-13.66546312 30.22534773 -2.94654709 35.63339061 8.9375 39.4375 C9.70594238 39.6845166 10.47438477 39.9315332 11.26611328 40.18603516 C16.50869632 41.77431933 21.54275199 42.52851979 27 43 C26.01902344 42.70867188 25.03804687 42.41734375 24.02734375 42.1171875 C8.91195876 37.56160727 -4.33676365 32.59336087 -17 23 C-17.77988281 22.41605469 -18.55976562 21.83210937 -19.36328125 21.23046875 C-19.90339844 20.82441406 -20.44351563 20.41835938 -21 20 C-20.505 18.515 -20.505 18.515 -20 17 C-16.69785872 17.62332554 -14.54527593 18.81863923 -11.8125 20.75 C-3.46525912 26.57171037 -3.46525912 26.57171037 6 30 C6 29.34 6 28.68 6 28 C5.28972656 27.74992188 4.57945312 27.49984375 3.84765625 27.2421875 C0.69400714 25.86652163 -1.79474872 24.16520609 -4.5625 22.125 C-5.49191406 21.44695313 -6.42132812 20.76890625 -7.37890625 20.0703125 C-9.79695139 18.16038117 -11.99147396 16.33771439 -14 14 C-13.75 11.25 -13.75 11.25 -13 9 C-12.236875 9.165 -11.47375 9.33 -10.6875 9.5 C-7.96403764 10.09145396 -7.96403764 10.09145396 -5 10 C-5.66 8.68 -6.32 7.36 -7 6 C-6.34 5.34 -5.68 4.68 -5 4 C-1.62008426 4.3557806 1.04288438 5.35715799 4 7 C3.34 6.401875 2.68 5.80375 2 5.1875 C0 3 0 3 0 0 Z " fill="#CF9622" transform="translate(980,658)"/>
<path d="M0 0 C0.83305664 0.00837891 1.66611328 0.01675781 2.52441406 0.02539062 C11.8400193 0.36598452 18.20447621 3.72085142 24.625 10.4375 C31.06531535 18.64270947 32.93603469 26.20406194 31.6875 36.625 C30.24350373 42.28123905 28.36519558 47.06212841 24.6875 51.625 C26.35501148 55.56639078 28.91460649 58.4142812 31.6875 61.625 C23.49493982 62.25519694 23.49493982 62.25519694 20.125 59.625 C19.650625 58.965 19.17625 58.305 18.6875 57.625 C17.965625 57.91375 17.24375 58.2025 16.5 58.5 C15.571875 58.87125 14.64375 59.2425 13.6875 59.625 C12.98496094 59.96917969 12.28242187 60.31335938 11.55859375 60.66796875 C4.42507945 63.04580685 -5.16785678 62.92929605 -12.31640625 60.6796875 C-19.94725816 56.57374688 -26.6121856 49.60109493 -29.4296875 41.35546875 C-31.56220284 32.34417604 -31.72607126 22.96653191 -26.92578125 14.83984375 C-19.88162294 5.16905014 -12.11299921 -0.16680517 0 0 Z " fill="#FCFBF8" transform="translate(808.3125,854.375)"/>
<path d="M0 0 C1.051875 0.598125 2.10375 1.19625 3.1875 1.8125 C9.29851419 6.56551103 14.05555178 12.39698897 16 20 C17.20350452 31.29820567 15.87642044 39.39545787 8.8125 48.25 C3.33937141 54.15956341 -3.30028247 57.66272615 -11.3203125 58.23828125 C-21.62118652 58.43922232 -29.50590044 57.58221446 -37.3125 50.3125 C-38.57619709 48.90525922 -39.80722039 47.46783301 -41 46 C-41.52980469 45.37738281 -42.05960937 44.75476563 -42.60546875 44.11328125 C-47.66999581 36.89242894 -47.03373021 27.4244942 -46 19 C-43.78693537 10.10065499 -37.86401605 4.03621368 -30.24609375 -0.7421875 C-20.5891973 -6.15004951 -9.3865544 -5.41459924 0 0 Z " fill="#FCFCF9" transform="translate(440,858)"/>
<path d="M0 0 C1.16796875 2.984375 1.16796875 2.984375 2.1875 6.75 C2.53167969 7.98234375 2.87585938 9.2146875 3.23046875 10.484375 C3.88746147 13.4858646 4.16867859 15.95215233 4 19 C-7.50794183 22.14726593 -18.67439029 24.60323741 -30.5703125 25.640625 C-33.85658204 25.78180455 -33.85658204 25.78180455 -36 27 C-37.68521815 27.09300842 -39.37413819 27.121919 -41.06192017 27.12025452 C-42.66894051 27.12231651 -42.66894051 27.12231651 -44.3084259 27.12442017 C-45.48877914 27.12082489 -46.66913239 27.11722961 -47.88525391 27.11352539 C-49.12424942 27.11367142 -50.36324493 27.11381744 -51.63978577 27.1139679 C-55.04247502 27.11338953 -58.44510403 27.10836527 -61.84778261 27.10139394 C-65.40188705 27.09515368 -68.95599225 27.09455607 -72.51010132 27.09336853 C-79.24261787 27.0902572 -85.97511824 27.08204648 -92.70762765 27.07201904 C-100.3713712 27.06085176 -108.03511552 27.0553459 -115.69886518 27.05032361 C-131.4659195 27.03986371 -147.23295766 27.02226809 -163 27 C-162.35702496 24.37426939 -161.71075589 21.74942697 -161.0625 19.125 C-160.88009766 18.37863281 -160.69769531 17.63226562 -160.50976562 16.86328125 C-159.11328125 11.2265625 -159.11328125 11.2265625 -158 9 C-157.428145 8.99761165 -156.85629 8.99522329 -156.26710606 8.99276257 C-142.27446935 8.93331338 -128.2819973 8.85757628 -114.28954411 8.76428509 C-107.52255384 8.7195501 -100.75561359 8.68008592 -93.98852539 8.65356445 C-87.44612501 8.62790812 -80.90392169 8.5868565 -74.36166191 8.53681374 C-71.87771869 8.52025305 -69.39373664 8.5086721 -66.90974617 8.50238609 C-53.22520474 8.46428414 -40.39612273 7.872751 -27 5 C-23.81838522 4.52896581 -20.63581014 4.14867725 -17.4375 3.8125 C-16.70337891 3.73064453 -15.96925781 3.64878906 -15.21289062 3.56445312 C-13.47579351 3.37144233 -11.73798006 3.1848915 -10 3 C-10 2.34 -10 1.68 -10 1 C-3.375 -1.125 -3.375 -1.125 0 0 Z " fill="#060606" transform="translate(739,710)"/>
<path d="M0 0 C0.69867187 -0.02900391 1.39734375 -0.05800781 2.1171875 -0.08789062 C5.80687193 -0.13314147 7.80878572 0.18917696 10.9375 2.20703125 C13.72654188 5.05417817 14.22949235 6.79208404 14.4375 10.6875 C14.31039877 19.49561509 9.76092829 26.82094566 3.875 33.125 C-3.58110213 40.05301395 -14.08349497 46.94197294 -24.5 47.5 C-25.325 47.438125 -26.15 47.37625 -27 47.3125 C-26.52054481 44.31590505 -25.63032741 42.74118781 -23.9375 40.125 C-21.48191136 35.94240396 -21.11812113 32.06039329 -22 27.3125 C-23.77567301 24.22151364 -25.19343124 22.78299844 -28.25 21 C-33.34329319 19.7266767 -37.40525156 19.77088732 -42.3125 21.4375 C-45.74523709 23.83243285 -46.75965194 25.29960922 -48 29.3125 C-48.24795751 35.66641131 -47.20374286 40.36692017 -43 45.3125 C-42.01 45.9725 -41.02 46.6325 -40 47.3125 C-40 48.3025 -40 49.2925 -40 50.3125 C-50.57029261 53.68254207 -61.14839661 53.78514969 -71.28515625 48.9140625 C-81.70819479 42.76521962 -89.17789599 32.77881203 -93 21.3125 C-93.1875 17.875 -93.1875 17.875 -93 15.3125 C-92.5153125 15.69921875 -92.030625 16.0859375 -91.53125 16.484375 C-82.08714274 23.82171987 -74.11643452 27.31149931 -62 26.3125 C-51.17178908 23.99913705 -42.03622303 18.23708242 -33.14038086 11.86206055 C-22.67918408 4.37153849 -12.89505023 0.17843704 0 0 Z " fill="#D19925" transform="translate(1030,533.6875)"/>
<path d="M0 0 C22.96296296 0 22.96296296 0 28 5 C30.7486078 8.73025345 31.41026417 11.39214834 31.375 16 C31.38273437 17.010625 31.39046875 18.02125 31.3984375 19.0625 C30.94639308 22.39521961 30.01556941 24.32568351 28 27 C27.34 27 26.68 27 26 27 C26 27.66 26 28.32 26 29 C26.721875 29.226875 27.44375 29.45375 28.1875 29.6875 C31.57685109 31.26919718 33.5424688 33.20114502 36 36 C37.62884422 40.88653266 38.08992391 46.18214795 36.19921875 51.0703125 C32.25427704 57.33341583 25.88246173 59.27938457 19 61 C12.73 61 6.46 61 0 61 C0 40.87 0 20.74 0 0 Z " fill="#D7AA44" transform="translate(299,855)"/>
<path d="M0 0 C1.13308594 -0.00515625 2.26617188 -0.0103125 3.43359375 -0.015625 C6.45205409 0.24062382 7.98121758 0.79126203 10.5625 2.25 C13.84096089 2.53508356 16.10200385 2.4254271 19.1875 1.25 C24.22424364 -0.24236849 29.34389525 -0.26207088 34.5625 0.25 C35.5525 0.91 36.5425 1.57 37.5625 2.25 C37.09097331 6.77665619 36.16827773 10.40763806 34.45703125 14.65625 C32.96620829 18.97898556 31.96973012 23.43111583 30.9206543 27.87866211 C29.66081786 33.15168214 29.66081786 33.15168214 28.5625 34.25 C26.03653741 34.48653523 23.53142793 34.67173692 21 34.8125 C19.93362305 34.87727539 19.93362305 34.87727539 18.84570312 34.94335938 C17.08488088 35.04971777 15.3237168 35.15038846 13.5625 35.25 C18.1825 36.9 22.8025 38.55 27.5625 40.25 C27.5625 40.91 27.5625 41.57 27.5625 42.25 C23.6025 42.25 19.6425 42.25 15.5625 42.25 C15.5625 42.91 15.5625 43.57 15.5625 44.25 C16.41714844 44.44335938 17.27179687 44.63671875 18.15234375 44.8359375 C19.25707031 45.09632813 20.36179687 45.35671875 21.5 45.625 C22.60214844 45.88023437 23.70429687 46.13546875 24.83984375 46.3984375 C25.73832031 46.67945313 26.63679687 46.96046875 27.5625 47.25 C27.8925 47.91 28.2225 48.57 28.5625 49.25 C18.91878591 49.01530784 11.05713314 45.57783442 2.5625 41.25 C2.5625 40.59 2.5625 39.93 2.5625 39.25 C5.2025 38.92 7.8425 38.59 10.5625 38.25 C9.81484375 38.00507812 9.0671875 37.76015625 8.296875 37.5078125 C0.47222091 34.53772129 0.47222091 34.53772129 -1.84765625 31.25390625 C-2.8732902 28.62100178 -3.64306359 25.96204152 -4.4375 23.25 C-4.95584435 21.90121916 -5.48814121 20.55775092 -6.03125 19.21875 C-6.31444092 18.51274658 -6.59763184 17.80674316 -6.8894043 17.0793457 C-7.45372079 15.67487801 -8.02273641 14.27228732 -8.59692383 12.87182617 C-10.09558578 8.98981907 -11.01638355 6.20802315 -9.4375 2.25 C-5.87784019 -0.12310654 -4.21787776 -0.01915041 0 0 Z " fill="#D19822" transform="translate(983.4375,595.75)"/>
<path d="M0 0 C0.83305664 0.00837891 1.66611328 0.01675781 2.52441406 0.02539062 C11.8400193 0.36598452 18.20447621 3.72085142 24.625 10.4375 C31.06531535 18.64270947 32.93603469 26.20406194 31.6875 36.625 C30.24350373 42.28123905 28.36519558 47.06212841 24.6875 51.625 C26.35501148 55.56639078 28.91460649 58.4142812 31.6875 61.625 C23.49493982 62.25519694 23.49493982 62.25519694 20.125 59.625 C19.650625 58.965 19.17625 58.305 18.6875 57.625 C17.965625 57.91375 17.24375 58.2025 16.5 58.5 C15.571875 58.87125 14.64375 59.2425 13.6875 59.625 C12.98496094 59.96917969 12.28242187 60.31335938 11.55859375 60.66796875 C4.42507945 63.04580685 -5.16785678 62.92929605 -12.31640625 60.6796875 C-19.94725816 56.57374688 -26.6121856 49.60109493 -29.4296875 41.35546875 C-31.56220284 32.34417604 -31.72607126 22.96653191 -26.92578125 14.83984375 C-19.88162294 5.16905014 -12.11299921 -0.16680517 0 0 Z M-17.625 14 C-18.54345048 15.19123277 -19.44154728 16.39861174 -20.3125 17.625 C-20.93125 18.49125 -21.55 19.3575 -22.1875 20.25 C-24.63287987 27.5861396 -24.45015487 35.14057576 -21.0625 42.125 C-20.17948997 43.64505627 -19.26645943 45.1484367 -18.3125 46.625 C-17.714375 47.57375 -17.11625 48.5225 -16.5 49.5 C-12.09529316 53.77885807 -7.53893991 55.85160314 -1.375 56.0625 C3.65235409 55.86764131 8.05055898 54.50665722 12.6875 52.625 C11.05601044 48.73167264 8.51122058 45.97780925 5.6875 42.875 C5.23632812 42.36839844 4.78515625 41.86179687 4.3203125 41.33984375 C3.15389188 40.05954183 1.92466029 38.83708271 0.6875 37.625 C0.0275 37.625 -0.6325 37.625 -1.3125 37.625 C-1.3125 36.965 -1.3125 36.305 -1.3125 35.625 C3.83693758 35.45888911 6.4382559 35.6107451 10.51171875 38.91796875 C12.98862818 41.42314533 15.37643223 43.96654834 17.6875 46.625 C20.71008829 45.94989081 20.71008829 45.94989081 21.85546875 43.9453125 C25.06247434 37.03980622 26.03024715 30.61461663 24.02734375 23.171875 C21.35010277 16.35707977 16.7744162 10.71556545 10 7.6875 C-0.33073511 4.47795123 -10.29178563 5.91374161 -17.625 14 Z " fill="#D19C29" transform="translate(808.3125,854.375)"/>
<path d="M0 0 C1.051875 0.598125 2.10375 1.19625 3.1875 1.8125 C9.29851419 6.56551103 14.05555178 12.39698897 16 20 C17.20350452 31.29820567 15.87642044 39.39545787 8.8125 48.25 C3.33937141 54.15956341 -3.30028247 57.66272615 -11.3203125 58.23828125 C-21.62118652 58.43922232 -29.50590044 57.58221446 -37.3125 50.3125 C-38.57619709 48.90525922 -39.80722039 47.46783301 -41 46 C-41.52980469 45.37738281 -42.05960937 44.75476563 -42.60546875 44.11328125 C-47.66999581 36.89242894 -47.03373021 27.4244942 -46 19 C-43.78693537 10.10065499 -37.86401605 4.03621368 -30.24609375 -0.7421875 C-20.5891973 -6.15004951 -9.3865544 -5.41459924 0 0 Z M-34.375 11.5 C-39.27664714 19.0409956 -39.91393142 25.11455561 -39 34 C-36.71640241 41.89437231 -30.9021437 46.8880846 -24 51 C-17.79477098 52.97260965 -10.55450785 53.1081615 -4.625 50.3125 C-1.21877073 48.34120576 1.40136451 45.96986913 4 43 C4.556875 42.38125 5.11375 41.7625 5.6875 41.125 C9.27296533 35.3199609 9.80358807 28.64231655 9 22 C6.86674791 14.16955968 2.13884891 8.48097431 -4.76953125 4.33984375 C-16.2213755 -0.40983289 -26.27595672 2.97469129 -34.375 11.5 Z " fill="#D39F2C" transform="translate(440,858)"/>
<path d="M0 0 C2.31 0 4.62 0 7 0 C7.01458252 1.30146973 7.02916504 2.60293945 7.04418945 3.94384766 C7.10228934 8.78591992 7.17952191 13.62753285 7.26245117 18.46923828 C7.29564549 20.56226124 7.32369445 22.65537253 7.34643555 24.74853516 C7.38008231 27.76242612 7.43240393 30.77551163 7.48828125 33.7890625 C7.49467117 34.72054108 7.5010611 35.65201965 7.50764465 36.61172485 C7.65262925 43.06075493 8.70045865 47.42992437 13.125 52.375 C17.72497312 54.97498481 21.95468189 54.65591467 27.03125 53.5625 C30.49707217 52.38764503 31.88400376 51.20759463 33.66333008 48.02319336 C35.50872036 43.3295802 35.47731393 38.67891274 35.51171875 33.69140625 C35.52966995 32.72468491 35.54762115 31.75796356 35.56611633 30.76194763 C35.61999511 27.69550853 35.65404309 24.62922308 35.6875 21.5625 C35.72069286 19.4745881 35.75518433 17.38669641 35.79101562 15.29882812 C35.87570875 10.19933001 35.94262679 5.09987569 36 0 C38.64 0 41.28 0 44 0 C44.15311887 6.36768501 44.25761702 12.73488919 44.32958984 19.10400391 C44.35961724 21.26694479 44.40045268 23.42976539 44.45263672 25.59228516 C44.52607266 28.71547233 44.55959751 31.8370394 44.5859375 34.9609375 C44.61690521 35.91551849 44.64787292 36.87009949 44.67977905 37.85360718 C44.68337808 45.16147819 42.57052388 50.28296957 38 56 C31.98504499 61.19156562 26.0325163 61.67434746 18.2421875 61.34765625 C11.3411166 60.6076619 7.63695032 58.17456656 3.26171875 52.81640625 C0.77709837 49.23947598 -0.25063105 46.6173747 -0.22705078 42.23144531 C-0.22689972 41.29077209 -0.22674866 40.35009888 -0.22659302 39.38092041 C-0.21627045 38.37349792 -0.20594788 37.36607544 -0.1953125 36.328125 C-0.1924826 35.29057068 -0.18965271 34.25301636 -0.18673706 33.184021 C-0.17554865 29.87256299 -0.15044627 26.56137616 -0.125 23.25 C-0.11496848 21.00391016 -0.10584293 18.75781607 -0.09765625 16.51171875 C-0.0756137 11.00772009 -0.04214932 5.50387942 0 0 Z " fill="#D4A234" transform="translate(899,855)"/>
<path d="M0 0 C2.31 0 4.62 0 7 0 C7.01458252 1.30146973 7.02916504 2.60293945 7.04418945 3.94384766 C7.10228934 8.78591992 7.17952191 13.62753285 7.26245117 18.46923828 C7.29564549 20.56226124 7.32369445 22.65537253 7.34643555 24.74853516 C7.38008231 27.76242612 7.43240393 30.77551163 7.48828125 33.7890625 C7.49467117 34.72054108 7.5010611 35.65201965 7.50764465 36.61172485 C7.65236878 43.04916875 8.72804944 47.3838145 13.0625 52.375 C18.33216185 55.29013209 23.74927027 54.44210763 29.5 53.3125 C32.21031986 52.19580434 32.21031986 52.19580434 33.3125 49.4375 C33.539375 48.633125 33.76625 47.82875 34 47 C34.33 46.67 34.66 46.34 35 46 C35.12221525 44.55815707 35.17772758 43.11056856 35.20532227 41.66381836 C35.22526749 40.7429393 35.24521271 39.82206024 35.26576233 38.87327576 C35.28247482 37.87224319 35.29918732 36.87121063 35.31640625 35.83984375 C35.33718735 34.82024063 35.35796844 33.80063751 35.37937927 32.75013733 C35.44498852 29.47932952 35.50381234 26.20843863 35.5625 22.9375 C35.60567442 20.72590272 35.64928834 18.51431397 35.69335938 16.30273438 C35.8006814 10.86857849 35.90242623 5.43433918 36 0 C38.64 0 41.28 0 44 0 C44.1018729 6.26206481 44.17166281 12.52391392 44.21972656 18.78662109 C44.23977468 20.91463202 44.26702054 23.04258832 44.30175781 25.17041016 C44.35057548 28.23874433 44.37303726 31.30634673 44.390625 34.375 C44.41127014 35.31802979 44.43191528 36.26105957 44.45318604 37.23266602 C44.45574685 44.86388325 42.52196247 49.93274835 37.6875 55.8125 C30.6119537 61.57166559 23.90595079 61.81065544 15 61 C9.55279217 59.83065306 5.28641114 56.41579701 2 52 C0.41287072 48.57009111 -0.24737573 45.88819739 -0.22705078 42.11791992 C-0.22689972 41.17732224 -0.22674866 40.23672455 -0.22659302 39.2676239 C-0.21627045 38.2653627 -0.20594788 37.2631015 -0.1953125 36.23046875 C-0.1924826 35.19432938 -0.18965271 34.15819 -0.18673706 33.09065247 C-0.17556454 29.78948293 -0.15046505 26.48858719 -0.125 23.1875 C-0.11496643 20.94596747 -0.10584124 18.70443067 -0.09765625 16.46289062 C-0.07563478 10.9751674 -0.04218621 5.48760326 0 0 Z " fill="#D29F2F" transform="translate(516,855)"/>
<path d="M0 0 C10.56 0 21.12 0 32 0 C32 2.31 32 4.62 32 7 C24.08 7 16.16 7 8 7 C8 12.61 8 18.22 8 24 C15.59 24 23.18 24 31 24 C31 26.31 31 28.62 31 31 C23.08 31 15.16 31 7 31 C7 38.59 7 46.18 7 54 C15.25 54 23.5 54 32 54 C32 56.31 32 58.62 32 61 C21.44 61 10.88 61 0 61 C0 40.87 0 20.74 0 0 Z " fill="#D4A43B" transform="translate(1005,855)"/>
<path d="M0 0 C0.66 0 1.32 0 2 0 C4.73304417 5.973808 7.4121661 11.96172089 10 18 C11.26590623 20.75425604 12.53628279 23.50622692 13.81640625 26.25390625 C15.04440694 29.10302997 16.0189041 32.0567123 17 35 C-3.13 35 -23.26 35 -44 35 C-44 32.69 -44 30.38 -44 28 C-42.88882812 27.90203125 -41.77765625 27.8040625 -40.6328125 27.703125 C-28.68052299 26.54675544 -17.96098232 24.71046024 -9 16 C-5.04974262 11.09129015 -2.24598547 5.86451761 0 0 Z " fill="#0D0C0C" transform="translate(522,702)"/>
<path d="M0 0 C12.54 0 25.08 0 38 0 C38 2.31 38 4.62 38 7 C33.05 7 28.1 7 23 7 C23 24.82 23 42.64 23 61 C20.36 61 17.72 61 15 61 C15 43.18 15 25.36 15 7 C10.05 7 5.1 7 0 7 C0 4.69 0 2.38 0 0 Z " fill="#D5A235" transform="translate(616,855)"/>
<path d="M0 0 C0.33 0 0.66 0 1 0 C1.33 16.17 1.66 32.34 2 49 C3.52106634 45.95786733 3.37429338 42.71952428 3.5625 39.375 C3.62727539 38.31539062 3.62727539 38.31539062 3.69335938 37.234375 C3.79944751 35.48981463 3.90022889 33.74493303 4 32 C4.33 32 4.66 32 5 32 C5 38.93 5 45.86 5 53 C15.47157852 52.77089479 15.47157852 52.77089479 25 49 C26.78279682 46.64994965 27.00113938 44.99234991 27.4375 42.0625 C26.84189067 37.89323471 25.24371483 36.59497186 22 34 C18.36873773 32.27024331 15.18569459 31.66402612 11.1875 31.375 C10.21167969 31.30023437 9.23585938 31.22546875 8.23046875 31.1484375 C7.49441406 31.09945312 6.75835937 31.05046875 6 31 C7.32 30.34 8.64 29.68 10 29 C8.68 28.34 7.36 27.68 6 27 C6 26.67 6 26.34 6 26 C6.97839844 25.94392578 6.97839844 25.94392578 7.9765625 25.88671875 C15.52820434 25.46436301 15.52820434 25.46436301 22 22 C22.80191833 18.66315861 22.9871513 15.42417938 23 12 C24.65 11.67 26.3 11.34 28 11 C28.05406122 12.93719378 28.09282025 14.87481921 28.125 16.8125 C28.14820313 17.89144531 28.17140625 18.97039063 28.1953125 20.08203125 C28 23 28 23 26 26 C25.34 26 24.68 26 24 26 C24 26.66 24 27.32 24 28 C24.721875 28.226875 25.44375 28.45375 26.1875 28.6875 C29.57685109 30.26919718 31.5424688 32.20114502 34 35 C35.62884422 39.88653266 36.08992391 45.18214795 34.19921875 50.0703125 C31.03134558 55.09971939 26.56905104 57.3051841 21 59 C17.12401712 59.44109166 13.33166594 59.38401498 9.4375 59.25 C8.42880859 59.23195313 7.42011719 59.21390625 6.38085938 59.1953125 C3.91954395 59.14865249 1.46030429 59.0832157 -1 59 C-1.13629608 39.29997408 -0.82659154 19.6843102 0 0 Z " fill="#D19A24" transform="translate(301,856)"/>
<path d="M0 0 C40.59 0 81.18 0 123 0 C122.34 0.99 121.68 1.98 121 3 C81.4 3 41.8 3 1 3 C1 99.03 1 195.06 1 294 C0.67 294 0.34 294 0 294 C0 196.98 0 99.96 0 0 Z " fill="#E4E3E5" transform="translate(563,340)"/>
<path d="M0 0 C2.64 0 5.28 0 8 0 C8 20.13 8 40.26 8 61 C5.36 61 2.72 61 0 61 C0 40.87 0 20.74 0 0 Z " fill="#D5A336" transform="translate(710,855)"/>
<path d="M0 0 C2.31 0 4.62 0 7 0 C7.01458252 1.30146973 7.02916504 2.60293945 7.04418945 3.94384766 C7.10228934 8.78591992 7.17952191 13.62753285 7.26245117 18.46923828 C7.29564549 20.56226124 7.32369445 22.65537253 7.34643555 24.74853516 C7.38008231 27.76242612 7.43240393 30.77551163 7.48828125 33.7890625 C7.49467117 34.72054108 7.5010611 35.65201965 7.50764465 36.61172485 C7.65102362 42.98933522 8.59561893 47.45418475 13.125 52.25 C16.92314194 54.56191249 20.65049685 55.27982083 25 56 C24.01 56.495 24.01 56.495 23 57 C23.33 58.32 23.66 59.64 24 61 C17.95438263 61.37013984 13.3770303 61.14505546 8 58 C4.17981294 54.35585843 0.3357627 50.16250033 -0.24050903 44.73468018 C-0.23606781 43.90861267 -0.23162659 43.08254517 -0.22705078 42.23144531 C-0.22689972 41.29077209 -0.22674866 40.35009888 -0.22659302 39.38092041 C-0.21627045 38.37349792 -0.20594788 37.36607544 -0.1953125 36.328125 C-0.1924826 35.29057068 -0.18965271 34.25301636 -0.18673706 33.184021 C-0.17554865 29.87256299 -0.15044627 26.56137616 -0.125 23.25 C-0.11496848 21.00391016 -0.10584293 18.75781607 -0.09765625 16.51171875 C-0.0756137 11.00772009 -0.04214932 5.50387942 0 0 Z " fill="#D29D26" transform="translate(899,855)"/>
<path d="M0 0 C14.19642857 -0.53571429 14.19642857 -0.53571429 17.75 1.8125 C20.45146132 4.43892072 21.89959501 6.0762741 22.3125 9.875 C21.95005327 13.49946735 21.29039561 15.17517875 19 18 C13.35501322 22.30801623 6.75916547 21.20691323 0 21 C0 14.07 0 7.14 0 0 Z " fill="#FBFAF6" transform="translate(307,888)"/>
<path d="M0 0 C1.21429687 -0.02835938 2.42859375 -0.05671875 3.6796875 -0.0859375 C7.73952857 0.45721584 9.39882111 1.33785014 12.125 4.375 C12.4375 7.125 12.4375 7.125 12.125 9.375 C0.40625 13.76953125 0.40625 13.76953125 -1.72851562 14.56567383 C-3.17902429 15.11258423 -4.62560442 15.6700116 -6.06835938 16.23706055 C-10.21546064 17.85242338 -13.4036883 18.71034838 -17.875 18.375 C-17.75764342 11.80303162 -16.13572589 8.81517956 -11.6640625 4.0390625 C-7.75653277 0.40454795 -5.22699506 0.05525365 0 0 Z " fill="#D29D2B" transform="translate(993.875,527.625)"/>
<path d="M0 0 C4.95 0 9.9 0 15 0 C15 0.33 15 0.66 15 1 C10.38 1 5.76 1 1 1 C1 9.25 1 17.5 1 26 C8.92 26 16.84 26 25 26 C25 27.65 25 29.3 25 31 C15.1 31 5.2 31 -5 31 C-5.061875 27.596875 -5.12375 24.19375 -5.1875 20.6875 C-5.21481201 19.61846436 -5.24212402 18.54942871 -5.27026367 17.44799805 C-5.27775635 16.60277588 -5.28524902 15.75755371 -5.29296875 14.88671875 C-5.3086792 14.02264404 -5.32438965 13.15856934 -5.34057617 12.26831055 C-5 10 -5 10 -3.60668945 8.63208008 C-1.25364536 6.50234917 -1.25364536 6.50234917 0 0 Z " fill="#D3971C" transform="translate(1011,884)"/>
<path d="M0 0 C10.9030837 -0.43612335 10.9030837 -0.43612335 15 3 C16.86445823 6.72891646 16.54371609 10.93850633 16 15 C14.1875 17.625 14.1875 17.625 11 19 C7.26421285 19.30431974 3.76242585 19.18132173 0 19 C0 12.73 0 6.46 0 0 Z " fill="#FCFAF7" transform="translate(307,862)"/>
<path d="M0 0 C1.43793392 0.31049726 2.8753318 0.6234776 4.3125 0.9375 C5.51326172 1.19853516 5.51326172 1.19853516 6.73828125 1.46484375 C9 2 9 2 12 3 C12 3.66 12 4.32 12 5 C15.3 5.99 18.6 6.98 22 8 C22 8.66 22 9.32 22 10 C20.68 10 19.36 10 18 10 C18.81542103 12.20926429 18.81542103 12.20926429 21.109375 12.74609375 C21.98078125 12.97425781 22.8521875 13.20242188 23.75 13.4375 C27.55122655 14.5157849 30.81942419 15.56155855 34 18 C34 18.66 34 19.32 34 20 C27.2718373 20.22262303 21.46008837 19.95021536 15 18 C16.32 18.99 17.64 19.98 19 21 C11.22202122 20.00282323 4.22367704 17.8233497 -2 13 C-2.33 12.34 -2.66 11.68 -3 11 C-0.89535207 11.30924214 1.2087053 11.6225056 3.3125 11.9375 C5.07013672 12.19853516 5.07013672 12.19853516 6.86328125 12.46484375 C10 13 10 13 13 14 C13 13.01 13 12.02 13 11 C14.5 9.3125 14.5 9.3125 16 8 C15.43152344 7.82984375 14.86304688 7.6596875 14.27734375 7.484375 C9.0677886 5.84932263 4.64636859 3.86690828 0 1 C0 0.67 0 0.34 0 0 Z " fill="#CC9B37" transform="translate(990,643)"/>
<path d="M0 0 C11.56054731 0.73658288 23.10866684 0.65912654 34.6875 0.5625 C34.6875 1.8825 34.6875 3.2025 34.6875 4.5625 C26.26889338 6.22894947 18.198752 6.87399732 9.625 6.8125 C8.51189453 6.82023438 7.39878906 6.82796875 6.25195312 6.8359375 C5.18783203 6.83335937 4.12371094 6.83078125 3.02734375 6.828125 C1.59442993 6.82474121 1.59442993 6.82474121 0.13256836 6.82128906 C-2.3125 6.5625 -2.3125 6.5625 -5.3125 4.5625 C-7.35834079 3.90091957 -7.35834079 3.90091957 -9.5 3.4375 C-10.758125 3.14875 -12.01625 2.86 -13.3125 2.5625 C-13.3125 1.9025 -13.3125 1.2425 -13.3125 0.5625 C-8.813546 -0.63544633 -4.58624935 -0.33351923 0 0 Z " fill="#D7A94D" transform="translate(1028.3125,701.4375)"/>
<path d="M0 0 C2.31 0 4.62 0 7 0 C7.04946121 5.62335936 7.08574868 11.2465919 7.10986328 16.87011719 C7.1199169 18.78290004 7.13356173 20.69566755 7.15087891 22.60839844 C7.17515522 25.35876252 7.1864895 28.10892328 7.1953125 30.859375 C7.20563507 31.71368103 7.21595764 32.56798706 7.22659302 33.44818115 C7.22674408 34.24870911 7.22689514 35.04923706 7.22705078 35.87402344 C7.231492 36.57573669 7.23593323 37.27744995 7.24050903 38.00042725 C6.95925791 40.33872645 6.15285101 41.96267675 5 44 C4.01 43.67 3.02 43.34 2 43 C1.34 44.32 0.68 45.64 0 47 C0 31.49 0 15.98 0 0 Z " fill="#D7A431" transform="translate(516,855)"/>
<path d="M0 0 C0.99 0 1.98 0 3 0 C3.53521161 3.6700225 3.69405547 5.84324089 1.7578125 9.0703125 C-3.08055947 14.93433014 -9.37917067 19.63252408 -17 21 C-18.91561254 21.06688591 -20.83335592 21.08531719 -22.75 21.0625 C-23.73484375 21.05347656 -24.7196875 21.04445313 -25.734375 21.03515625 C-26.48203125 21.02355469 -27.2296875 21.01195312 -28 21 C-27.01 20.01 -26.02 19.02 -25 18 C-25.99 17.34 -26.98 16.68 -28 16 C-26.700625 15.938125 -25.40125 15.87625 -24.0625 15.8125 C-16.01366902 14.91255197 -10.45544304 10.76718264 -5 5 C-3.66666667 4.33333333 -2.33333333 3.66666667 -1 3 C-0.67 2.01 -0.34 1.02 0 0 Z " fill="#CF9920" transform="translate(449,895)"/>
<path d="M0 0 C2.33419944 0.28569629 4.66717867 0.5784174 7 0.875 C8.299375 1.03742187 9.59875 1.19984375 10.9375 1.3671875 C13.70208768 1.75056586 16.32463746 2.32155706 19.015625 3.05859375 C36.1786181 7.52899361 58.6505129 3.4958061 76 1 C73 3 73 3 70 3.9375 C67.02761911 4.71933903 67.02761911 4.71933903 65.62158203 6.54589844 C63.39666888 8.54101779 62.01036983 8.35945923 59.0546875 8.328125 C58.06847412 8.32385498 57.08226074 8.31958496 56.06616211 8.31518555 C55.01307861 8.29367432 53.95999512 8.27216309 52.875 8.25 C51.79420166 8.23686768 50.71340332 8.22373535 49.59985352 8.21020508 C46.39901089 8.16153119 43.20001921 8.08668108 40 8 C39.15840332 7.97921387 38.31680664 7.95842773 37.44970703 7.93701172 C24.62343353 7.56773321 11.89232291 6.09670982 0 1 C0 0.67 0 0.34 0 0 Z " fill="#FCFBF5" transform="translate(999,695)"/>
<path d="M0 0 C3.96 0 7.92 0 12 0 C12 0.33 12 0.66 12 1 C9.36 1.33 6.72 1.66 4 2 C10.93 4.475 10.93 4.475 18 7 C18 7.66 18 8.32 18 9 C14.04 9 10.08 9 6 9 C6 9.66 6 10.32 6 11 C6.85464844 11.19335938 7.70929687 11.38671875 8.58984375 11.5859375 C9.69457031 11.84632813 10.79929687 12.10671875 11.9375 12.375 C13.59072266 12.75785156 13.59072266 12.75785156 15.27734375 13.1484375 C16.17582031 13.42945313 17.07429687 13.71046875 18 14 C18.33 14.66 18.66 15.32 19 16 C9.35628591 15.76530784 1.49463314 12.32783442 -7 8 C-7 7.34 -7 6.68 -7 6 C-4.36 5.67 -1.72 5.34 1 5 C-1.475 4.01 -1.475 4.01 -4 3 C-2.68 2.67 -1.36 2.34 0 2 C0 1.34 0 0.68 0 0 Z " fill="#CC9A34" transform="translate(993,629)"/>
<path d="M0 0 C0.94875 0.53625 1.8975 1.0725 2.875 1.625 C3.52726563 1.99238281 4.17953125 2.35976563 4.8515625 2.73828125 C6.26712504 3.56960253 7.65955681 4.44182667 9.0234375 5.35546875 C20.25805928 12.70724756 34.0058323 16.93396043 47 20 C47 20.33 47 20.66 47 21 C29.83854157 22.17009944 10.46313965 12.54285986 -4 4 C-2.68 2.68 -1.36 1.36 0 0 Z " fill="#F8F3E6" transform="translate(963,681)"/>
<path d="M0 0 C1.32 0 2.64 0 4 0 C4.04947953 5.19611221 4.08575727 10.39208691 4.10986328 15.58837891 C4.11991384 17.35565582 4.13355642 19.12291613 4.15087891 20.89013672 C4.17516885 23.43200785 4.18649255 25.97365889 4.1953125 28.515625 C4.20563507 29.30430969 4.21595764 30.09299438 4.22659302 30.90557861 C4.22737709 34.74889664 4.18664676 37.74651174 2 41 C1.01 40.67 0.02 40.34 -1 40 C-0.67 39.34 -0.34 38.68 0 38 C0.08691001 35.15570643 0.11553802 32.33620824 0.09765625 29.4921875 C0.0962413 28.65156769 0.09482635 27.81094788 0.09336853 26.94485474 C0.08776237 24.25486725 0.07520886 21.56496241 0.0625 18.875 C0.05748579 17.05338662 0.05292275 15.23177193 0.04882812 13.41015625 C0.03779094 8.94007223 0.0205222 4.47005014 0 0 Z " fill="#F8F4E7" transform="translate(994,713)"/>
<path d="M0 0 C3.30214128 0.62332554 5.45472407 1.81863923 8.1875 3.75 C16.53474088 9.57171037 16.53474088 9.57171037 26 13 C26 12.34 26 11.68 26 11 C31.44876003 12.72066106 36.71169451 14.84705349 42 17 C42 17.33 42 17.66 42 18 C34.586155 17.37170805 34.586155 17.37170805 31.4375 15.375 C28.03394396 13.45504531 25.72044618 14.19755082 22 15 C22 15.66 22 16.32 22 17 C17.15752051 15.64673911 13.41074848 13.48087419 9.375 10.5625 C8.81554687 10.16740234 8.25609375 9.77230469 7.6796875 9.36523438 C4.75137867 7.28986456 1.85950383 5.16903827 -1 3 C-0.67 2.01 -0.34 1.02 0 0 Z " fill="#D8AE54" transform="translate(960,675)"/>
<path d="M0 0 C0.33 0 0.66 0 1 0 C1.00586624 0.63227005 1.01173248 1.2645401 1.01777649 1.91596985 C1.08161987 8.48586292 1.16601581 15.055262 1.26245117 21.62475586 C1.29574326 24.07781469 1.3237617 26.53095091 1.34643555 28.98413086 C1.37990229 32.50668378 1.43221515 36.02852465 1.48828125 39.55078125 C1.49467117 40.65086014 1.5010611 41.75093903 1.50764465 42.88435364 C1.52743881 43.90518539 1.54723297 44.92601715 1.56762695 45.9777832 C1.57873001 46.87713089 1.58983307 47.77647858 1.60127258 48.70307922 C2.07788821 51.44868508 3.01206616 52.14806323 5 54 C4.671875 56.671875 4.671875 56.671875 3.75 59.75 C2.49211121 64.19849943 1.52129846 68.41257353 1 73 C0.34 73 -0.32 73 -1 73 C-0.67 48.91 -0.34 24.82 0 0 Z " fill="#DCBB68" transform="translate(998,718)"/>
<path d="M0 0 C0.33 0 0.66 0 1 0 C1.33 13.86 1.66 27.72 2 42 C2.66 42.33 3.32 42.66 4 43 C3.01 45.475 3.01 45.475 2 48 C1.34 47.67 0.68 47.34 0 47 C0 31.49 0 15.98 0 0 Z M4 0 C4.33 0 4.66 0 5 0 C5.02505615 1.13953125 5.0501123 2.2790625 5.07592773 3.453125 C5.1706104 7.70989853 5.27067866 11.96653182 5.37231445 16.22314453 C5.41543447 18.06002505 5.45712406 19.89693976 5.49731445 21.73388672 C5.55557707 24.38519564 5.61910539 27.03633606 5.68359375 29.6875 C5.70030624 30.49928711 5.71701874 31.31107422 5.73423767 32.14746094 C5.86244258 37.16250311 6.30189618 42.03128955 7 47 C5 46 5 46 4 43 C3.91389486 41.57281363 3.88228172 40.14193352 3.88647461 38.7121582 C3.88655014 37.85149246 3.88662567 36.99082672 3.88670349 36.1040802 C3.89186478 35.17899155 3.89702606 34.25390289 3.90234375 33.30078125 C3.9037587 32.35059616 3.90517365 31.40041107 3.90663147 30.4214325 C3.91223125 27.38508971 3.92478368 24.34882052 3.9375 21.3125 C3.94251503 19.25455836 3.94707793 17.19661556 3.95117188 15.13867188 C3.9622006 10.09241954 3.97946507 5.04622225 4 0 Z " fill="#D2940E" transform="translate(517,856)"/>
<path d="M0 0 C33.99 0 67.98 0 103 0 C103 0.33 103 0.66 103 1 C69.67 1 36.34 1 2 1 C1.67 1.99 1.34 2.98 1 4 C0.34 4 -0.32 4 -1 4 C-0.67 2.68 -0.34 1.36 0 0 Z " fill="#131313" transform="translate(581,719)"/>
<path d="M0 0 C7.64613831 -0.89954568 7.64613831 -0.89954568 10.74609375 1.16015625 C12.9750539 3.62906112 14.03088336 5.33600787 13.875 8.6875 C13.58625 9.450625 13.2975 10.21375 13 11 C12.67 11.99 12.34 12.98 12 14 C11.30132813 13.21753906 10.60265625 12.43507813 9.8828125 11.62890625 C8.9637002 10.60662828 8.04442066 9.58450065 7.125 8.5625 C6.66480469 8.04623047 6.20460938 7.52996094 5.73046875 6.99804688 C3.18206915 4.10512063 3.18206915 4.10512063 0 2 C0 1.34 0 0.68 0 0 Z " fill="#D5A02E" transform="translate(807,890)"/>
<path d="M0 0 C1.43793392 0.31049726 2.8753318 0.6234776 4.3125 0.9375 C5.11300781 1.11152344 5.91351562 1.28554688 6.73828125 1.46484375 C9 2 9 2 12 3 C12 3.66 12 4.32 12 5 C15.3 5.99 18.6 6.98 22 8 C22 8.66 22 9.32 22 10 C20.68 10 19.36 10 18 10 C18 10.66 18 11.32 18 12 C17.01 12.495 17.01 12.495 16 13 C17.98 13.66 19.96 14.32 22 15 C22 15.33 22 15.66 22 16 C19.89521396 15.88590318 17.79115423 15.75834639 15.6875 15.625 C14.51574219 15.55539062 13.34398437 15.48578125 12.13671875 15.4140625 C9 15 9 15 6 13 C8.31 13.33 10.62 13.66 13 14 C13 13.01 13 12.02 13 11 C14.5 9.3125 14.5 9.3125 16 8 C15.43152344 7.82984375 14.86304688 7.6596875 14.27734375 7.484375 C9.0677886 5.84932263 4.64636859 3.86690828 0 1 C0 0.67 0 0.34 0 0 Z " fill="#F2E6C5" transform="translate(990,643)"/>
<path d="M0 0 C1.46373047 0.01353516 1.46373047 0.01353516 2.95703125 0.02734375 C4.06111328 0.04474609 4.06111328 0.04474609 5.1875 0.0625 C4.8575 1.0525 4.5275 2.0425 4.1875 3.0625 C-3.48628168 4.65790822 -10.07115043 5.22055555 -17.8125 4.0625 C-19.52017347 3.86908244 -21.22849738 3.68129825 -22.9375 3.5 C-24.21625 3.355625 -25.495 3.21125 -26.8125 3.0625 C-26.8125 2.4025 -26.8125 1.7425 -26.8125 1.0625 C-21.5325 1.3925 -16.2525 1.7225 -10.8125 2.0625 C-10.8125 1.7325 -10.8125 1.4025 -10.8125 1.0625 C-7.13862505 0.20951624 -3.7677607 -0.04539471 0 0 Z " fill="#D9A638" transform="translate(1058.8125,702.9375)"/>
<path d="M0 0 C1.134375 0.020625 2.26875 0.04125 3.4375 0.0625 C3.4375 0.3925 3.4375 0.7225 3.4375 1.0625 C1.7875 1.0625 0.1375 1.0625 -1.5625 1.0625 C-1.5625 1.7225 -1.5625 2.3825 -1.5625 3.0625 C3.0575 3.7225 7.6775 4.3825 12.4375 5.0625 C12.4375 5.3925 12.4375 5.7225 12.4375 6.0625 C9.10446997 6.1799875 5.77198163 6.25017324 2.4375 6.3125 C1.03564453 6.36277344 1.03564453 6.36277344 -0.39453125 6.4140625 C-6.92963489 6.50546255 -10.94553343 5.42738092 -16.5625 2.0625 C-13.71727161 1.30704409 -11.3223486 0.97402424 -8.375 1.0625 C-7.116875 1.0625 -5.85875 1.0625 -4.5625 1.0625 C-3.5625 0.0625 -3.5625 0.0625 0 0 Z " fill="#C38E1C" transform="translate(1016.5625,700.9375)"/>
<path d="M0 0 C2.27734375 0.171875 2.27734375 0.171875 4.9375 0.75 C6.25041016 1.02070312 6.25041016 1.02070312 7.58984375 1.296875 C10 2 10 2 13 4 C14.155 4.144375 15.31 4.28875 16.5 4.4375 C19.96506278 4.99438509 20.9762972 5.26204915 23 8 C15.17384634 9.95653842 10.10799637 7.32360106 3 4 C1.33790694 3.32201115 -0.32728752 2.65134874 -2 2 C-1.34 1.34 -0.68 0.68 0 0 Z " fill="#F5EED8" transform="translate(992,659)"/>
<path d="M0 0 C2 2 2 2 2 6 C-0.76452033 7.38226016 -3.0461363 7.09525387 -6.125 7.0625 C-7.22070312 7.05347656 -8.31640625 7.04445313 -9.4453125 7.03515625 C-10.70988281 7.01775391 -10.70988281 7.01775391 -12 7 C-11.34 6.67 -10.68 6.34 -10 6 C-10 4.68 -10 3.36 -10 2 C-6.32653229 -0.44897847 -4.33643601 -0.31537716 0 0 Z " fill="#D4A133" transform="translate(1026,709)"/>
<path d="M0 0 C2.33419944 0.28569629 4.66717867 0.5784174 7 0.875 C8.299375 1.03742187 9.59875 1.19984375 10.9375 1.3671875 C13.67341661 1.74797974 16.27334412 2.30508251 18.9375 3.03125 C23.27760337 4.16829763 27.53068921 4.43910146 32 4.625 C32.77472656 4.66367187 33.54945312 4.70234375 34.34765625 4.7421875 C36.23143415 4.83521357 38.11568256 4.91863175 40 5 C40 5.33 40 5.66 40 6 C25.81260267 7.44131454 13.34570268 6.71958686 0 1 C0 0.67 0 0.34 0 0 Z " fill="#EEDCB0" transform="translate(999,695)"/>
<path d="M0 0 C2.29141286 -0.05384521 4.58318188 -0.09272087 6.875 -0.125 C8.78925781 -0.15980469 8.78925781 -0.15980469 10.7421875 -0.1953125 C14 0 14 0 16 2 C16 3.32 16 4.64 16 6 C21.61 6 27.22 6 33 6 C33 6.33 33 6.66 33 7 C24.75 7 16.5 7 8 7 C8 6.67 8 6.34 8 6 C9.98 5.67 11.96 5.34 14 5 C13.2575 4.87625 12.515 4.7525 11.75 4.625 C9.16798974 4.03817949 7.34568582 3.17284291 5 2 C3.34259285 1.62331656 1.67654729 1.27942455 0 1 C0 0.67 0 0.34 0 0 Z " fill="#D8B567" transform="translate(1034,677)"/>
<path d="M0 0 C10.69609508 5.79966044 10.69609508 5.79966044 15 9 C15 9.66 15 10.32 15 11 C10.09690194 10.47729735 6.81611493 8.9987369 2.625 6.4375 C1.56539062 5.79683594 0.50578125 5.15617188 -0.5859375 4.49609375 C-1.78089844 3.75552734 -1.78089844 3.75552734 -3 3 C-2.01 2.01 -1.02 1.02 0 0 Z " fill="#F8F3E5" transform="translate(971,677)"/>
<path d="M0 0 C3.45807781 0.63161239 5.75392417 2.00272986 8.625 4 C11.72090305 6.15527113 11.72090305 6.15527113 15 8 C15 8.66 15 9.32 15 10 C12.86328125 10.74609375 12.86328125 10.74609375 10 11 C7.10546875 9.34765625 7.10546875 9.34765625 4.1875 7.0625 C3.21167969 6.31097656 2.23585938 5.55945313 1.23046875 4.78515625 C0.49441406 4.19605469 -0.24164062 3.60695313 -1 3 C-0.67 2.01 -0.34 1.02 0 0 Z " fill="#C5902A" transform="translate(960,675)"/>
<path d="M0 0 C5.28 0.33 10.56 0.66 16 1 C16 1.66 16 2.32 16 3 C16.90492187 2.96519531 16.90492187 2.96519531 17.828125 2.9296875 C19.02695313 2.90261719 19.02695313 2.90261719 20.25 2.875 C21.03890625 2.85179687 21.8278125 2.82859375 22.640625 2.8046875 C25.22216563 3.01839119 26.73802582 3.793892 29 5 C25.89591193 5.05807043 22.7919636 5.09361914 19.6875 5.125 C18.36588867 5.15013672 18.36588867 5.15013672 17.01757812 5.17578125 C16.17001953 5.18222656 15.32246094 5.18867187 14.44921875 5.1953125 C13.27879028 5.21102295 13.27879028 5.21102295 12.0847168 5.22705078 C10 5 10 5 7 3 C4.67891331 2.29187186 2.34622853 1.61975848 0 1 C0 0.67 0 0.34 0 0 Z " fill="#DFB864" transform="translate(1016,703)"/>
<path d="M0 0 C4.48600037 1.69101186 8.72250581 3.78691482 13 5.9375 C13.69867187 6.28490234 14.39734375 6.63230469 15.1171875 6.99023438 C18.09841965 8.48366293 20.98371525 9.98995436 23.82421875 11.7421875 C26.40068146 13.23163273 28.07166496 13.25100015 31 13 C31.33 13.66 31.66 14.32 32 15 C31.67 15.66 31.34 16.32 31 17 C23.57078763 14.81041828 17.17663097 11.59907988 10.4375 7.8125 C8.92446289 6.97428711 8.92446289 6.97428711 7.38085938 6.11914062 C4.91674556 4.75278367 2.45667932 3.37966497 0 2 C0 1.34 0 0.68 0 0 Z " fill="#D0AD5A" transform="translate(926,689)"/>
<path d="M0 0 C0.75732422 0.09667969 1.51464844 0.19335938 2.29492188 0.29296875 C3.08060547 0.40511719 3.86628906 0.51726563 4.67578125 0.6328125 C5.47306641 0.73722656 6.27035156 0.84164062 7.09179688 0.94921875 C9.05869236 1.20833073 11.02369892 1.48170904 12.98828125 1.7578125 C12.98828125 2.7478125 12.98828125 3.7378125 12.98828125 4.7578125 C8.46086953 6.26694974 3.92401327 6.53210531 -0.51171875 4.7578125 C-1.00671875 4.4278125 -1.50171875 4.0978125 -2.01171875 3.7578125 C-1.35171875 3.4278125 -0.69171875 3.0978125 -0.01171875 2.7578125 C-2.32171875 2.4278125 -4.63171875 2.0978125 -7.01171875 1.7578125 C-3.81766666 -0.37155556 -3.51984214 -0.47636961 0 0 Z " fill="#D4A445" transform="translate(1016.01171875,667.2421875)"/>
<path d="M0 0 C-0.61488281 0.18175781 -1.22976563 0.36351562 -1.86328125 0.55078125 C-2.67152344 0.80214844 -3.47976563 1.05351563 -4.3125 1.3125 C-5.11300781 1.55613281 -5.91351562 1.79976562 -6.73828125 2.05078125 C-9.06410415 2.85915387 -9.06410415 2.85915387 -10.625 4.625 C-11.07875 5.07875 -11.5325 5.5325 -12 6 C-14.6875 5.6875 -14.6875 5.6875 -17 5 C-17 4.34 -17 3.68 -17 3 C-23.27 3 -29.54 3 -36 3 C-36 2.67 -36 2.34 -36 2 C-34.69546875 1.95101562 -33.3909375 1.90203125 -32.046875 1.8515625 C-23.34791434 1.49021593 -14.85740129 1.11799504 -6.3125 -0.6953125 C-3.89001265 -1.01449158 -2.30382311 -0.75727519 0 0 Z " fill="#F0E5C9" transform="translate(1075,697)"/>
<path d="M0 0 C0.70125 0.144375 1.4025 0.28875 2.125 0.4375 C5.07556141 1.01478375 8.03270151 1.51695141 11 2 C11 2.66 11 3.32 11 4 C10.01 4 9.02 4 8 4 C7.731875 4.639375 7.46375 5.27875 7.1875 5.9375 C6 8 6 8 3 9 C0.9375 7.3125 0.9375 7.3125 -1 5 C-0.75 2.25 -0.75 2.25 0 0 Z " fill="#D5A136" transform="translate(967,667)"/>
<path d="M0 0 C0.639375 0.680625 1.27875 1.36125 1.9375 2.0625 C4.98033606 5.1227237 8.36973727 7.66741116 11.81640625 10.25390625 C14.04472132 12.03576105 16.02020894 13.94837978 18 16 C13.02642312 14.2657267 8.68501047 11.56672043 4.1875 8.875 C3.39923828 8.40707031 2.61097656 7.93914063 1.79882812 7.45703125 C-0.13602454 6.30784603 -2.06887228 5.15542997 -4 4 C-2.68 2.68 -1.36 1.36 0 0 Z " fill="#F8F3E3" transform="translate(945,681)"/>
<path d="M0 0 C0.33 0 0.66 0 1 0 C1 12.21 1 24.42 1 37 C1.66 37.33 2.32 37.66 3 38 C2.67 39.98 2.34 41.96 2 44 C1.34 44 0.68 44 0 44 C-0.33 44.66 -0.66 45.32 -1 46 C-0.67 30.82 -0.34 15.64 0 0 Z " fill="#CD900E" transform="translate(553,856)"/>
<path d="M0 0 C3.1875 -0.25 3.1875 -0.25 6 0 C6 1.98 6 3.96 6 6 C-1.92 6 -9.84 6 -18 6 C-18 5.67 -18 5.34 -18 5 C-16.95199219 4.97421875 -15.90398438 4.9484375 -14.82421875 4.921875 C-13.44527098 4.86559142 -12.06636635 4.80824412 -10.6875 4.75 C-9.99720703 4.73582031 -9.30691406 4.72164062 -8.59570312 4.70703125 C-6.30313277 4.63690588 -6.30313277 4.63690588 -3 4 C-1.2013142 2.06145147 -1.2013142 2.06145147 0 0 Z " fill="#D4A439" transform="translate(1030,880)"/>
<path d="M0 0 C4.17387237 0.29712312 6.78745374 1.95604445 10.125 4.375 C10.97320313 4.98085938 11.82140625 5.58671875 12.6953125 6.2109375 C14.6280153 7.711239 16.32911448 9.21990628 18 11 C13.13127946 10.40440894 9.40671159 8.27522585 5.1875 5.9375 C4.49462891 5.56044922 3.80175781 5.18339844 3.08789062 4.79492188 C1.38871015 3.86916148 -0.30609425 2.93537688 -2 2 C-1.34 1.34 -0.68 0.68 0 0 Z " fill="#F7F0DC" transform="translate(937,692)"/>
<path d="M0 0 C5.61 0.33 11.22 0.66 17 1 C17 1.66 17 2.32 17 3 C12.1956792 5.4021604 7.26896105 5.61122229 2 6 C2.66 5.01 3.32 4.02 4 3 C2.68 2.01 1.36 1.02 0 0 Z " fill="#323232" transform="translate(392,729)"/>
<path d="M0 0 C0.33 0 0.66 0 1 0 C1.33 10.23 1.66 20.46 2 31 C1.34 30.67 0.68 30.34 0 30 C-0.6328125 27.71484375 -0.6328125 27.71484375 -1.125 24.9375 C-1.29257812 24.01839844 -1.46015625 23.09929688 -1.6328125 22.15234375 C-1.75398437 21.44207031 -1.87515625 20.73179687 -2 20 C-1.34 20 -0.68 20 0 20 C0 13.4 0 6.8 0 0 Z " fill="#CCA041" transform="translate(993,721)"/>
<path d="M0 0 C-0.33 1.32 -0.66 2.64 -1 4 C0.65 3.67 2.3 3.34 4 3 C2.22555028 5.24606427 1.41647515 5.95081002 -1.48046875 6.29296875 C-2.82044922 6.24076172 -2.82044922 6.24076172 -4.1875 6.1875 C-5.53908203 6.14689453 -5.53908203 6.14689453 -6.91796875 6.10546875 C-7.60503906 6.07066406 -8.29210937 6.03585937 -9 6 C-8.01 5.01 -7.02 4.02 -6 3 C-7.65 2.67 -9.3 2.34 -11 2 C-11 1.67 -11 1.34 -11 1 C-3.375 0 -3.375 0 0 0 Z " fill="#CA951E" transform="translate(816,910)"/>
<path d="M0 0 C0.54527344 0.13277344 1.09054687 0.26554688 1.65234375 0.40234375 C7.09902987 1.67789247 12.43120352 2.46963843 18 3 C17.01 3.66 16.02 4.32 15 5 C15.33 5.99 15.66 6.98 16 8 C11.85701333 7.40165275 8.81805623 5.99335715 5.1875 3.9375 C4.21167969 3.38964844 3.23585938 2.84179688 2.23046875 2.27734375 C1.49441406 1.85582031 0.75835938 1.43429687 0 1 C0 0.67 0 0.34 0 0 Z " fill="#F8F2E2" transform="translate(1004,660)"/>
<path d="M0 0 C1.43793392 0.31049726 2.8753318 0.6234776 4.3125 0.9375 C5.11300781 1.11152344 5.91351562 1.28554688 6.73828125 1.46484375 C9 2 9 2 12 3 C12 3.66 12 4.32 12 5 C14.97 5.99 17.94 6.98 21 8 C16.49569218 9.12607695 16.49569218 9.12607695 13.14453125 7.63671875 C12.08782227 7.17168945 12.08782227 7.17168945 11.00976562 6.69726562 C10.28466797 6.36404297 9.55957031 6.03082031 8.8125 5.6875 C8.07580078 5.36587891 7.33910156 5.04425781 6.58007812 4.71289062 C1.1371749 2.27434981 1.1371749 2.27434981 0 0 Z " fill="#CDA755" transform="translate(990,643)"/>
<path d="M0 0 C0.66 0 1.32 0 2 0 C2.34515632 3.71043048 2.37710875 5.46684625 0.1875 8.5625 C-0.534375 9.366875 -1.25625 10.17125 -2 11 C-3.0268343 12.6502694 -4.03567924 14.31243867 -5 16 C-5.33 15.34 -5.66 14.68 -6 14 C-5.09176973 11.56442428 -4.13171929 9.23804483 -3.0625 6.875 C-2.77181641 6.21628906 -2.48113281 5.55757813 -2.18164062 4.87890625 C-1.46139802 3.24950495 -0.73158857 1.62433868 0 0 Z " fill="#C9C9C9" transform="translate(705,408)"/>
<path d="M0 0 C0.53625 0.37125 1.0725 0.7425 1.625 1.125 C1.295 2.445 0.965 3.765 0.625 5.125 C-2.75 4.8125 -2.75 4.8125 -6.375 4.125 C-7.035 3.135 -7.695 2.145 -8.375 1.125 C-2.95961538 -1.09038462 -2.95961538 -1.09038462 0 0 Z " fill="#C79122" transform="translate(989.375,688.875)"/>
<path d="M0 0 C0.89203125 0.20367188 1.7840625 0.40734375 2.703125 0.6171875 C3.37859375 0.78476562 4.0540625 0.95234375 4.75 1.125 C4.09 2.775 3.43 4.425 2.75 6.125 C1.76 5.795 0.77 5.465 -0.25 5.125 C-0.25 4.465 -0.25 3.805 -0.25 3.125 C-4.705 2.135 -4.705 2.135 -9.25 1.125 C-4.96970042 -1.01514979 -4.36227246 -1.03316979 0 0 Z " fill="#F8F3E6" transform="translate(1002.25,642.875)"/>
<path d="M0 0 C0.97582031 0.00902344 1.95164062 0.01804687 2.95703125 0.02734375 C3.69308594 0.03894531 4.42914062 0.05054688 5.1875 0.0625 C4.8575 1.0525 4.5275 2.0425 4.1875 3.0625 C2.43784642 3.11679959 0.68770213 3.15542823 -1.0625 3.1875 C-2.03703125 3.21070313 -3.0115625 3.23390625 -4.015625 3.2578125 C-6.8321498 3.06112781 -8.42199036 2.50818916 -10.8125 1.0625 C-7.13862505 0.20951624 -3.7677607 -0.04539471 0 0 Z " fill="#CC9321" transform="translate(1058.8125,702.9375)"/>
<path d="M0 0 C3.96 0 7.92 0 12 0 C12 0.33 12 0.66 12 1 C9.36 1.33 6.72 1.66 4 2 C4.99 2.66 5.98 3.32 7 4 C6.34 4.66 5.68 5.32 5 6 C2.03 5.01 -0.94 4.02 -4 3 C-2.68 2.67 -1.36 2.34 0 2 C0 1.34 0 0.68 0 0 Z " fill="#D7B161" transform="translate(993,629)"/>
<path d="M0 0 C0.33 0 0.66 0 1 0 C2.72972973 10.81081081 2.72972973 10.81081081 1 16 C0.34 16 -0.32 16 -1 16 C-1 18.31 -1 20.62 -1 23 C-1.33 23 -1.66 23 -2 23 C-2.31732638 15.22550376 -1.11855299 7.67007765 0 0 Z " fill="#333433" transform="translate(368,494)"/>
<path d="M0 0 C1.4391134 0.28359887 2.87625518 0.57721399 4.3125 0.875 C5.11300781 1.03742187 5.91351562 1.19984375 6.73828125 1.3671875 C9 2 9 2 12 4 C11.67 4.66 11.34 5.32 11 6 C5.64951939 5.62671065 3.49087093 4.0042343 0 0 Z " fill="#CB9832" transform="translate(987,654)"/>
<path d="M0 0 C0.66 0.33 1.32 0.66 2 1 C2 2.98 2 4.96 2 7 C1.67 7 1.34 7 1 7 C1 11.29 1 15.58 1 20 C0.67 20 0.34 20 0 20 C-0.66 13.73 -1.32 7.46 -2 1 C-1.34 0.67 -0.68 0.34 0 0 Z " fill="#444444" transform="translate(721,505)"/>
<path d="M0 0 C0 3.3 0 6.6 0 10 C-0.66 8.68 -1.32 7.36 -2 6 C-2.99 6.99 -3.98 7.98 -5 9 C-5 6.36 -5 3.72 -5 1 C-2 0 -2 0 0 0 Z " fill="#CF9315" transform="translate(329,867)"/>
<path d="M0 0 C0.86625 0.53625 1.7325 1.0725 2.625 1.625 C-0.63263222 3.79675481 -1.59939213 4.08543998 -5.375 3.625 C-7.6875 2.125 -7.6875 2.125 -9.375 0.625 C-5.48068237 -1.13671512 -4.05334448 -1.65136257 0 0 Z " fill="#EEDFB5" transform="translate(1012.375,664.375)"/>
<path d="M0 0 C3.79588866 0.54226981 5.47211993 2.20127563 8 5 C6.02 5.99 6.02 5.99 4 7 C2.35 5.68 0.7 4.36 -1 3 C-0.67 2.01 -0.34 1.02 0 0 Z " fill="#CE9A3B" transform="translate(960,675)"/>
<path d="M0 0 C3.96 0 7.92 0 12 0 C12 0.33 12 0.66 12 1 C9.69 1.33 7.38 1.66 5 2 C4.67 2.99 4.34 3.98 4 5 C1.36 4.67 -1.28 4.34 -4 4 C-4 3.67 -4 3.34 -4 3 C-2.02 3 -0.04 3 2 3 C2 2.34 2 1.68 2 1 C1.34 0.67 0.68 0.34 0 0 Z " fill="#C88E16" transform="translate(1012,710)"/>
<path d="M0 0 C0 0.33 0 0.66 0 1 C-0.61488281 1.12117188 -1.22976563 1.24234375 -1.86328125 1.3671875 C-2.67152344 1.53476562 -3.47976563 1.70234375 -4.3125 1.875 C-5.11300781 2.03742188 -5.91351563 2.19984375 -6.73828125 2.3671875 C-9.25301118 2.94478999 -9.25301118 2.94478999 -12 5 C-14.1875 4.625 -14.1875 4.625 -16 4 C-11.0425785 0.69505234 -5.96381118 -2.05006009 0 0 Z " fill="#19191A" transform="translate(446,335)"/>
<path d="M0 0 C1.42944945 2.35438733 2.08661261 3.48032433 1.625 6.25 C1.41875 6.8275 1.2125 7.405 1 8 C0.26919734 6.02253397 -0.39421747 4.01927511 -1 2 C-0.67 1.34 -0.34 0.68 0 0 Z M-5 3 C-3.68 3.33 -2.36 3.66 -1 4 C-1.66 5.65 -2.32 7.3 -3 9 C-3.66 8.67 -4.32 8.34 -5 8 C-5 6.35 -5 4.7 -5 3 Z " fill="#CF981D" transform="translate(522,895)"/>
<path d="M0 0 C1.36511719 0.29197266 1.36511719 0.29197266 2.7578125 0.58984375 C3.45648437 0.74582031 4.15515625 0.90179687 4.875 1.0625 C3.2405205 3.02696905 2.41070606 3.98567791 -0.16796875 4.35546875 C-2.15364583 4.2578125 -4.13932292 4.16015625 -6.125 4.0625 C-5.135 3.4025 -4.145 2.7425 -3.125 2.0625 C-4.445 1.4025 -5.765 0.7425 -7.125 0.0625 C-4.4030754 -1.2984623 -2.9418043 -0.64116248 0 0 Z " fill="#D1A852" transform="translate(1010.125,698.9375)"/>
<path d="M0 0 C0.99128906 0.26425781 1.98257813 0.52851562 3.00390625 0.80078125 C5.4375 1.6875 5.4375 1.6875 6.4375 3.6875 C4.8531683 3.59981752 3.26996433 3.49162671 1.6875 3.375 C0.36492188 3.28798828 0.36492188 3.28798828 -0.984375 3.19921875 C-3.88553774 2.6233819 -5.35475607 1.61153852 -7.5625 -0.3125 C-4.68774262 -1.74987869 -3.05599643 -0.84069784 0 0 Z " fill="#D0A952" transform="translate(1005.5625,641.3125)"/>
<path d="M0 0 C1.75763672 0.45246094 1.75763672 0.45246094 3.55078125 0.9140625 C4.73027344 1.21054687 5.90976562 1.50703125 7.125 1.8125 C8.02863281 2.05226563 8.93226563 2.29203125 9.86328125 2.5390625 C9.86328125 2.8690625 9.86328125 3.1990625 9.86328125 3.5390625 C4.23046526 3.7787568 -0.68210706 2.92436071 -6.13671875 1.5390625 C-3.13671875 -0.4609375 -3.13671875 -0.4609375 0 0 Z " fill="#F5ECD3" transform="translate(1000.13671875,698.4609375)"/>
<path d="M0 0 C0.33 0.66 0.66 1.32 1 2 C0.01 2.66 -0.98 3.32 -2 4 C0.475 4.99 0.475 4.99 3 6 C3 6.33 3 6.66 3 7 C0.03 6.67 -2.94 6.34 -6 6 C-6 5.34 -6 4.68 -6 4 C-5.34 4 -4.68 4 -4 4 C-4 3.01 -4 2.02 -4 1 C-2.68 0.67 -1.36 0.34 0 0 Z " fill="#C6952E" transform="translate(1002,692)"/>
<path d="M0 0 C6.52307692 -0.36923077 6.52307692 -0.36923077 8.9375 1.5 C9.288125 1.995 9.63875 2.49 10 3 C6.18510326 4.46726798 3.70988378 3.43336419 0 2 C0 1.34 0 0.68 0 0 Z " fill="#C9972D" transform="translate(990,637)"/>
<path d="M0 0 C5.61 0 11.22 0 17 0 C17 0.99 17 1.98 17 3 C15.68 3.33 14.36 3.66 13 4 C13 3.34 13 2.68 13 2 C8.71 1.67 4.42 1.34 0 1 C0 0.67 0 0.34 0 0 Z " fill="#D4AD51" transform="translate(1066,691)"/>
<path d="M0 0 C1.98 0.99 3.96 1.98 6 3 C4.68 3.99 3.36 4.98 2 6 C0.35 5.01 -1.3 4.02 -3 3 C-2.01 2.01 -1.02 1.02 0 0 Z " fill="#F5EFDB" transform="translate(971,677)"/>
<path d="M0 0 C-0.3125 1.9375 -0.3125 1.9375 -1 4 C-1.99 4.33 -2.98 4.66 -4 5 C-4.33 4.01 -4.66 3.02 -5 2 C-7.01508358 1.26676204 -7.01508358 1.26676204 -9 1 C-3.375 -1.125 -3.375 -1.125 0 0 Z " fill="#F4F0DD" transform="translate(1003,539)"/>
<path d="M0 0 C1.32 0 2.64 0 4 0 C4 1.32 4 2.64 4 4 C-0.29 3.67 -4.58 3.34 -9 3 C-9 2.67 -9 2.34 -9 2 C-6.94921875 1.77213542 -4.8984375 1.54427083 -2.84765625 1.31640625 C-0.98859771 1.18113386 -0.98859771 1.18113386 0 0 Z " fill="#0C0C0C" transform="translate(405,732)"/>
<path d="M0 0 C0.33 0 0.66 0 1 0 C1.33 3.63 1.66 7.26 2 11 C0.68 11 -0.64 11 -2 11 C-2.28571429 3.57142857 -2.28571429 3.57142857 0 0 Z " fill="#333333" transform="translate(745,407)"/>
<path d="M0 0 C2.97 0 5.94 0 9 0 C9 0.66 9 1.32 9 2 C7.68 2 6.36 2 5 2 C4.67 2.99 4.34 3.98 4 5 C2 3.625 2 3.625 0 2 C0 1.34 0 0.68 0 0 Z " fill="#D2AC54" transform="translate(807,890)"/>
<path d="M0 0 C0 0.66 0 1.32 0 2 C-3.21451269 3.60725635 -6.43612536 3.05748185 -10 3 C-10 2.34 -10 1.68 -10 1 C-6.59437148 0.22157062 -3.49234244 -0.09978121 0 0 Z " fill="#D1A036" transform="translate(1028,670)"/>
<path d="M0 0 C0.53625 0.391875 1.0725 0.78375 1.625 1.1875 C0.67625 1.64125 -0.2725 2.095 -1.25 2.5625 C-4.37813679 3.98988254 -4.37813679 3.98988254 -6.375 6.1875 C-7.035 4.8675 -7.695 3.5475 -8.375 2.1875 C-2.95961538 -1.0125 -2.95961538 -1.0125 0 0 Z " fill="#D0AA48" transform="translate(989.375,552.8125)"/>
<path d="M0 0 C2.475 0.99 2.475 0.99 5 2 C5 2.66 5 3.32 5 4 C1.37 4 -2.26 4 -6 4 C-6 3.67 -6 3.34 -6 3 C-4.02 3 -2.04 3 0 3 C0 2.01 0 1.02 0 0 Z " fill="#CEA64D" transform="translate(1019,659)"/>
<path d="M0 0 C0.99 0.33 1.98 0.66 3 1 C1.76446724 2.20254524 0.51097661 3.38666232 -0.75 4.5625 C-1.79414063 5.55443359 -1.79414063 5.55443359 -2.859375 6.56640625 C-5 8 -5 8 -7.265625 7.71484375 C-7.83796875 7.47894531 -8.4103125 7.24304688 -9 7 C-7.2421875 6.05598958 -5.484375 5.11197917 -3.7265625 4.16796875 C-1.69497635 2.95236507 -1.69497635 2.95236507 0 0 Z " fill="#CCA140" transform="translate(444,900)"/>
<path d="M0 0 C0.66 0.33 1.32 0.66 2 1 C-0.36292656 3.52588702 -1.66462511 4.88820837 -5 6 C-5.99 5.34 -6.98 4.68 -8 4 C-6.71349294 3.30289269 -5.42059335 2.61757124 -4.125 1.9375 C-3.40570313 1.55464844 -2.68640625 1.17179688 -1.9453125 0.77734375 C-1.30335938 0.52082031 -0.66140625 0.26429688 0 0 Z " fill="#363636" transform="translate(324,723)"/>
<path d="M0 0 C3.96 0 7.92 0 12 0 C12 0.66 12 1.32 12 2 C10.37585622 2.19477739 8.75063577 2.38059458 7.125 2.5625 C6.22007812 2.66691406 5.31515625 2.77132812 4.3828125 2.87890625 C2 3 2 3 0 2 C0 1.34 0 0.68 0 0 Z " fill="#D6A84C" transform="translate(1001,658)"/>
<path d="M0 0 C-3.66539668 2.37706418 -6.49056835 2.05094317 -10.75 1.625 C-11.92046875 1.51414062 -13.0909375 1.40328125 -14.296875 1.2890625 C-15.18890625 1.19367187 -16.0809375 1.09828125 -17 1 C-17 0.67 -17 0.34 -17 0 C-14.9174133 -0.19561869 -12.83388144 -0.38119313 -10.75 -0.5625 C-9.58984375 -0.66691406 -8.4296875 -0.77132812 -7.234375 -0.87890625 C-4.48128523 -0.98198087 -2.580018 -0.86213473 0 0 Z " fill="#EDE2BC" transform="translate(436,916)"/>
<path d="M0 0 C0.33 0 0.66 0 1 0 C1.22304441 1.74818591 1.4278645 3.49870323 1.625 5.25 C1.74101563 6.22453125 1.85703125 7.1990625 1.9765625 8.203125 C2.00112537 11.13429393 1.5312717 12.54528964 0 15 C-0.33 15 -0.66 15 -1 15 C-0.67 10.05 -0.34 5.1 0 0 Z " fill="#C79023" transform="translate(833,881)"/>
<path d="M0 0 C0.99 0.33 1.98 0.66 3 1 C1.68 2.65 0.36 4.3 -1 6 C-1.99 5.67 -2.98 5.34 -4 5 C-2.68 3.35 -1.36 1.7 0 0 Z " fill="#E6E6E6" transform="translate(511,716)"/>
<path d="M0 0 C3.15330554 0.60694155 5.18888867 1.6416665 7.75 3.5625 C8.67039062 4.24505859 8.67039062 4.24505859 9.609375 4.94140625 C10.29773438 5.46541016 10.29773438 5.46541016 11 6 C10.01 6.495 10.01 6.495 9 7 C7.4972763 6.02501855 5.99788037 5.04490611 4.5 4.0625 C3.6646875 3.51722656 2.829375 2.97195313 1.96875 2.41015625 C1.3190625 1.94480469 0.669375 1.47945312 0 1 C0 0.67 0 0.34 0 0 Z " fill="#F4E9C8" transform="translate(952,690)"/>
<path d="M0 0 C0.33 0.99 0.66 1.98 1 3 C3.00016466 4.20882096 3.00016466 4.20882096 5 5 C5 5.66 5 6.32 5 7 C-0.75 5.25 -0.75 5.25 -3 3 C-2.01 3 -1.02 3 0 3 C0 2.01 0 1.02 0 0 Z " fill="#F6EFD9" transform="translate(979,658)"/>
<path d="M0 0 C2.38564077 0.57584432 4.66682784 1.22227595 7 2 C7 2.66 7 3.32 7 4 C7.66 4.33 8.32 4.66 9 5 C5.26512223 4.5020163 3.18762365 4.12508244 0 2 C0 1.34 0 0.68 0 0 Z " fill="#141414" transform="translate(756,335)"/>
<path d="M0 0 C2.64 0 5.28 0 8 0 C8 0.66 8 1.32 8 2 C5.69 2.33 3.38 2.66 1 3 C0.67 2.01 0.34 1.02 0 0 Z " fill="#D5AF62" transform="translate(986,635)"/>
<path d="M0 0 C0.66 0 1.32 0 2 0 C2.6875 1.8125 2.6875 1.8125 3 4 C1.5625 5.75 1.5625 5.75 0 7 C-0.38133299 5.0085944 -0.71325582 3.00720923 -1 1 C-0.67 0.67 -0.34 0.34 0 0 Z " fill="#DDA126" transform="translate(325,863)"/>
<path d="M0 0 C0.66 0.66 1.32 1.32 2 2 C1.01 4.31 0.02 6.62 -1 9 C-1.66 9 -2.32 9 -3 9 C-2.01 6.03 -1.02 3.06 0 0 Z " fill="#D7D6D7" transform="translate(574,705)"/>
<path d="M0 0 C1.98 0.495 1.98 0.495 4 1 C3.34 1.66 2.68 2.32 2 3 C2.3185177 5.10820797 2.3185177 5.10820797 3 7 C1.68 6.01 0.36 5.02 -1 4 C-0.67 2.68 -0.34 1.36 0 0 Z " fill="#CCA242" transform="translate(934,682)"/>
<path d="M0 0 C0.66 0 1.32 0 2 0 C1.7452486 1.31571603 1.47065859 2.62760376 1.1875 3.9375 C1.03667969 4.66839844 0.88585937 5.39929688 0.73046875 6.15234375 C0.48941406 6.76207031 0.24835937 7.37179687 0 8 C-0.99 8.33 -1.98 8.66 -3 9 C-2.01 6.03 -1.02 3.06 0 0 Z " fill="#E2E1E2" transform="translate(596,654)"/>
<path d="M0 0 C2.29633824 3.44450737 2.54016485 5.93812283 3 10 C0.9375 8.375 0.9375 8.375 -1 6 C-0.75 2.75 -0.75 2.75 0 0 Z " fill="#B7B8B7" transform="translate(751,715)"/>
<path d="M0 0 C2.97 0.495 2.97 0.495 6 1 C6.33 2.32 6.66 3.64 7 5 C3.34683329 3.75023244 2.21934164 3.32901247 0 0 Z " fill="#CC9E47" transform="translate(987,654)"/>
<path d="M0 0 C0.66 0.99 1.32 1.98 2 3 C0.02 5.97 0.02 5.97 -2 9 C-2.33 8.34 -2.66 7.68 -3 7 C-2.06421005 4.64018187 -1.06652192 2.30368736 0 0 Z " fill="#333434" transform="translate(709,346)"/>
<path d="M0 0 C2.31 0.33 4.62 0.66 7 1 C6.01 1.66 5.02 2.32 4 3 C3.01 2.67 2.02 2.34 1 2 C0.67 3.32 0.34 4.64 0 6 C0 4.02 0 2.04 0 0 Z " fill="#3F4040" transform="translate(745,332)"/>
</svg>
