<?xml version="1.0" encoding="UTF-8"?>
<svg version="1.1" xmlns="http://www.w3.org/2000/svg" width="507" height="492">
<path d="M0 0 C2.15510673 1.42509489 4.22642793 2.90910734 6.28515625 4.46875 C7.27515625 5.12875 8.26515625 5.78875 9.28515625 6.46875 C9.28515625 7.12875 9.28515625 7.78875 9.28515625 8.46875 C9.94515625 8.46875 10.60515625 8.46875 11.28515625 8.46875 C20.28581248 18.7675778 25.78915426 31.07880823 31.28515625 43.46875 C31.61644531 44.21511719 31.94773438 44.96148437 32.2890625 45.73046875 C33.75691053 49.0530871 35.20569031 52.3834862 36.64453125 55.71875 C38.5359908 60.07948968 40.55820488 64.37558717 42.58618164 68.67407227 C44.93754647 73.67671087 47.18186936 78.72276159 49.41015625 83.78125 C51.82887477 89.26448087 54.31784929 94.67815351 57.0546875 100.01171875 C59.60166782 105.09759374 61.9249765 110.29419784 64.28515625 115.46875 C67.39580937 109.496296 70.1029667 103.38820982 72.73461914 97.19335938 C73.94607213 94.37402749 75.13058145 91.71813067 76.75 89.10546875 C78.57426433 85.97219032 79.80067428 82.7551938 81.11572266 79.38183594 C83.39252315 73.71027363 85.95820882 68.16293559 88.47265625 62.59375 C89.05309423 61.30388099 89.63333283 60.01392224 90.21337891 58.72387695 C91.90144277 54.97102494 93.59296704 51.21974372 95.28515625 47.46875 C96.91057139 43.8647703 98.53575325 40.26068602 100.16015625 36.65625 C100.69116943 35.47844971 100.69116943 35.47844971 101.23291016 34.27685547 C104.64289847 26.69999266 107.97495961 19.08965287 111.28515625 11.46875 C112.60515625 11.79875 113.92515625 12.12875 115.28515625 12.46875 C116.98351252 20.98462152 118.47841574 29.4913129 119.66015625 38.09375 C120.98006515 47.6523461 122.54286867 57.15946177 124.16748047 66.6706543 C125.53057788 74.72554846 126.7931601 82.78951083 127.98828125 90.87109375 C128.28850894 92.87894036 128.58896575 94.88675273 128.88964844 96.89453125 C129.33491614 99.86810754 129.7759547 102.84193351 130.20178223 105.81835938 C132.82643988 124.14940127 136.30002011 141.40151918 149.28515625 155.46875 C149.94515625 155.79875 150.60515625 156.12875 151.28515625 156.46875 C151.28515625 157.12875 151.28515625 157.78875 151.28515625 158.46875 C151.99285156 158.74589844 152.70054687 159.02304687 153.4296875 159.30859375 C155.31778554 160.07571429 157.19120122 160.88012261 159.046875 161.72265625 C165.52793949 164.62139671 171.17255343 166.29565568 178.28515625 166.46875 C178.61515625 167.78875 178.94515625 169.10875 179.28515625 170.46875 C164.39983879 171.01262051 152.20445169 170.69011983 139.28515625 162.46875 C139.28515625 161.80875 139.28515625 161.14875 139.28515625 160.46875 C138.70507812 160.21867188 138.125 159.96859375 137.52734375 159.7109375 C127.43007997 154.116983 122.32747726 141.52104519 119.25634766 131.01757812 C117.17520084 123.5344388 115.99736881 116.06740316 114.99609375 108.375 C114.80573028 106.97110833 114.61443515 105.56734272 114.42227173 104.16369629 C113.92416174 100.50761835 113.43815251 96.85003836 112.95501709 93.19195557 C112.46545082 89.50070089 111.96481976 85.81095034 111.46484375 82.12109375 C110.7285848 76.68246181 109.99930279 71.24296207 109.27490234 65.80273438 C108.32259386 58.68484348 107.31358881 51.57602852 106.28515625 44.46875 C105.89122681 45.38418579 105.49729736 46.29962158 105.09143066 47.24279785 C103.76806538 50.31676565 102.44233142 53.38969515 101.11547852 56.4621582 C100.53200005 57.81435399 99.94928486 59.16687946 99.36743164 60.51977539 C96.01439243 68.31450292 92.57598949 76.05525487 88.96121216 83.73223877 C85.72067363 90.63208826 82.63892185 97.60068775 79.56811523 104.57739258 C78.59021663 106.79814495 77.60872831 109.01728726 76.62695312 111.23632812 C72.22325882 121.21144603 68.07287288 131.2419151 64.28515625 141.46875 C62.41503906 141.19287109 62.41503906 141.19287109 60.28515625 140.46875 C59.13183594 138.91259766 59.13183594 138.91259766 58.20703125 136.8828125 C57.85495605 136.12637451 57.50288086 135.36993652 57.14013672 134.59057617 C56.77549316 133.76662354 56.41084961 132.9426709 56.03515625 132.09375 C55.64602051 131.24466064 55.25688477 130.39557129 54.85595703 129.52075195 C51.85272451 122.90937617 49.00277059 116.22770807 46.28808594 109.49267578 C44.12356339 104.1935332 41.62710126 99.10816177 39.0400238 94.00274658 C35.71332767 87.40188544 32.71323124 80.6654724 29.72265625 73.90625 C25.64633399 64.72689478 21.51960413 55.57628691 17.28515625 46.46875 C15.80139276 49.43627698 15.86884874 52.55316384 15.63671875 55.81640625 C15.57961227 56.56788437 15.5225058 57.31936249 15.46366882 58.09361267 C15.27563251 60.57257262 15.09296835 63.0518998 14.91015625 65.53125 C14.6489262 69.00154154 14.38398158 72.47153826 14.1171875 75.94140625 C14.04962753 76.82180573 13.98206757 77.7022052 13.91246033 78.60928345 C13.4654561 84.35793125 12.96743983 90.09974343 12.421875 95.83984375 C12.35230591 96.57574234 12.28273682 97.31164093 12.21105957 98.06983948 C11.88290675 101.52419771 11.54655823 104.97737902 11.19970703 108.42993164 C9.97778476 120.93418501 9.97778476 120.93418501 10.28515625 133.46875 C12.85061565 136.0342094 14.76202293 136.00921087 18.28515625 136.46875 C18.28515625 137.45875 18.28515625 138.44875 18.28515625 139.46875 C6.40515625 139.46875 -5.47484375 139.46875 -17.71484375 139.46875 C-17.71484375 138.47875 -17.71484375 137.48875 -17.71484375 136.46875 C-16.57595703 136.19611328 -16.57595703 136.19611328 -15.4140625 135.91796875 C-14.42019531 135.66660156 -13.42632812 135.41523438 -12.40234375 135.15625 C-11.41621094 134.91261719 -10.43007812 134.66898438 -9.4140625 134.41796875 C-6.58192597 133.42200757 -5.58939522 132.74188377 -3.71484375 130.46875 C-2.9657607 128.50692279 -2.9657607 128.50692279 -2.59692383 126.33398438 C-2.44083649 125.53500732 -2.28474915 124.73603027 -2.12393188 123.9128418 C-1.49582944 120.16025184 -1.01333722 116.40697133 -0.6015625 112.625 C-0.50685669 111.7939122 -0.41215088 110.9628244 -0.3145752 110.10655212 C-0.00620248 107.3944179 0.29576427 104.68161256 0.59765625 101.96875 C1.03271605 98.11560683 1.47114169 94.26285063 1.91015625 90.41015625 C2.0775103 88.93652367 2.0775103 88.93652367 2.24824524 87.43312073 C3.03159199 80.57370172 3.86245256 73.72127249 4.72265625 66.87109375 C4.83868698 65.94273712 4.95471771 65.01438049 5.07426453 64.05789185 C5.52326231 60.46887639 5.97245494 56.87993944 6.43374634 53.29248047 C9.4792714 33.70712556 9.4792714 33.70712556 1.28515625 16.46875 C-4.9041842 8.53212059 -12.24739421 1.53696815 -22.609375 0.0546875 C-23.57230469 -0.01492187 -24.53523437 -0.08453125 -25.52734375 -0.15625 C-26.50316406 -0.23101562 -27.47898438 -0.30578125 -28.484375 -0.3828125 C-29.22042969 -0.43179688 -29.95648438 -0.48078125 -30.71484375 -0.53125 C-31.04484375 -1.85125 -31.37484375 -3.17125 -31.71484375 -4.53125 C-21.09620931 -7.60440773 -9.49798167 -5.35713498 0 0 Z " fill="#363434" transform="translate(157.71484375,156.53125)"/>
<path d="M0 0 C2.30742675 0.06642404 4.61497792 0.12541726 6.92260742 0.18432617 C8.39722959 0.22619576 9.8718396 0.26849637 11.34643555 0.3112793 C13.3241394 0.36626587 13.3241394 0.36626587 15.34179688 0.42236328 C18.4519043 0.62768555 18.4519043 0.62768555 20.4519043 1.62768555 C19.5769043 6.50268555 19.5769043 6.50268555 18.4519043 7.62768555 C15.42212626 7.71639827 12.41523408 7.74287905 9.38549805 7.7253418 C8.47687515 7.72392685 7.56825226 7.7225119 6.63209534 7.72105408 C3.71783209 7.71543748 0.80364449 7.7028822 -2.1105957 7.69018555 C-4.08129772 7.68517268 -6.05200094 7.68060941 -8.02270508 7.67651367 C-12.86453129 7.66546266 -17.70630065 7.64818693 -22.5480957 7.62768555 C-22.38576447 8.14370834 -22.22343323 8.65973114 -22.05618286 9.19139099 C-21.39373923 12.36782988 -21.42075932 15.36237269 -21.41870117 18.60839844 C-21.41694885 19.30332397 -21.41519653 19.99824951 -21.41339111 20.7142334 C-21.4089942 23.00962837 -21.41190525 25.30494605 -21.4152832 27.6003418 C-21.41460901 29.20495112 -21.41363802 30.80956034 -21.41238403 32.41416931 C-21.41090954 35.7808428 -21.41305168 39.14748976 -21.41772461 42.51416016 C-21.42338959 46.80194015 -21.42016195 51.0896571 -21.41415215 55.37743473 C-21.41051227 58.695129 -21.4117013 62.01280872 -21.41427994 65.33050346 C-21.41494144 66.90954025 -21.41414832 68.48857842 -21.41180038 70.0676136 C-21.40186685 78.63428952 -21.54134061 87.10628946 -22.5480957 95.62768555 C-26.91489834 92.03611304 -28.59771152 87.58066187 -30.7355957 82.50268555 C-31.43733958 80.8750473 -32.13915888 79.24744157 -32.84106445 77.61987305 C-33.1455249 76.9017041 -33.44998535 76.18353516 -33.76367188 75.44360352 C-34.32050389 74.15455385 -34.920129 72.88361896 -35.5480957 71.62768555 C-35.63962242 69.59537658 -35.66561004 67.55999976 -35.66162109 65.52563477 C-35.66154556 64.2444577 -35.66147003 62.96328064 -35.66139221 61.64328003 C-35.65628518 60.23964398 -35.65106918 58.83600832 -35.64575195 57.43237305 C-35.64388716 56.00033619 -35.64246355 54.5682987 -35.64146423 53.13626099 C-35.63764389 49.36495201 -35.62781772 45.59368147 -35.61676025 41.8223877 C-35.60653576 37.97494019 -35.60196438 34.12748647 -35.59692383 30.2800293 C-35.58619503 22.72923051 -35.56912439 15.17846341 -35.5480957 7.62768555 C-37.95223439 7.93276687 -40.35572876 8.24193766 -42.7590332 8.5534668 C-43.43571045 8.63890747 -44.1123877 8.72434814 -44.80957031 8.81237793 C-48.34230261 9.27358978 -51.74547515 9.84343745 -55.1730957 10.81518555 C-58.49130933 11.61401475 -60.32720691 11.63421329 -63.5480957 10.62768555 C-63.8780957 8.97768555 -64.2080957 7.32768555 -64.5480957 5.62768555 C-43.53290165 -1.34638328 -21.84530863 -0.64005969 0 0 Z " fill="#393739" transform="translate(244.548095703125,169.372314453125)"/>
<path d="M0 0 C10.066915 1.78606556 19.49556814 5.85192384 27 13 C27 13.66 27 14.32 27 15 C27.66 15 28.32 15 29 15 C29 15.66 29 16.32 29 17 C29.66 17 30.32 17 31 17 C35 22.41176471 35 22.41176471 35 25 C35.66 25 36.32 25 37 25 C37.78229725 26.59860743 38.55003031 28.20434121 39.3125 29.8125 C39.74175781 30.70582031 40.17101562 31.59914062 40.61328125 32.51953125 C44.32641294 41.83896882 45.52495809 50.36175358 45.4375 60.375 C45.43137695 61.56585205 45.42525391 62.7567041 45.41894531 63.98364258 C45.27028584 72.31943634 44.55055944 79.36386531 41 87 C40.66484375 87.76828125 40.3296875 88.5365625 39.984375 89.328125 C38.05102295 93.47102225 35.74215005 97.34379994 33 101 C32.34 101 31.68 101 31 101 C30.7525 101.61875 30.505 102.2375 30.25 102.875 C28.79371361 105.35068687 27.62187494 105.95125002 25 107 C25 107.66 25 108.32 25 109 C23.03533587 110.06775224 21.03144641 111.06553465 19 112 C18.34 111.67 17.68 111.34 17 111 C15.81564641 106.69002151 15.54519832 103.06120391 17.3125 98.9375 C18.1478125 97.9784375 18.1478125 97.9784375 19 97 C19.66 97 20.32 97 21 97 C21.2784375 96.11828125 21.556875 95.2365625 21.84375 94.328125 C22.88600531 91.32811985 24.12926076 88.6084928 25.5 85.75 C32.3371852 69.42571463 31.40134763 49.21963081 25 33 C21.19030004 24.31932652 14.85293797 16.37306282 7 11 C5.9275 10.5875 4.855 10.175 3.75 9.75 C1 8 1 8 0.3984375 6.03515625 C0.125 3.8125 0.125 3.8125 0 0 Z " fill="#353334" transform="translate(276,173)"/>
<path d="M0 0 C0.3403125 0.9590625 0.3403125 0.9590625 0.6875 1.9375 C1.120625 2.618125 1.55375 3.29875 2 4 C4.475 4.495 4.475 4.495 7 5 C7 8.63 7 12.26 7 16 C6.67 16 6.34 16 6 16 C5.505 13.525 5.505 13.525 5 11 C4.64284912 11.83023682 4.28569824 12.66047363 3.91772461 13.51586914 C2.55706545 16.67583399 1.19433774 19.83489143 -0.16967773 22.9934082 C-0.7531562 24.34560399 -1.33587139 25.69812946 -1.91772461 27.05102539 C-5.27076382 34.84575292 -8.70916676 42.58650487 -12.32394409 50.26348877 C-15.56448262 57.16333826 -18.6462344 64.13193775 -21.71704102 71.10864258 C-22.69493962 73.32939495 -23.67642794 75.54853726 -24.65820312 77.76757812 C-29.06189743 87.74269603 -33.21228337 97.7731651 -37 108 C-38.79296875 107.875 -38.79296875 107.875 -41 107 C-44.64033713 101.50268191 -47.65478685 95.38512134 -46.875 88.6875 C-46.58625 87.470625 -46.2975 86.25375 -46 85 C-39.71428571 82.57142857 -39.71428571 82.57142857 -36 84 C-35.87882813 83.28714844 -35.75765625 82.57429688 -35.6328125 81.83984375 C-33.64989282 72.94118569 -28.92211895 64.66061711 -24.74609375 56.6171875 C-23.4096956 53.94740789 -22.27384714 51.2400594 -21.18359375 48.4609375 C-18.56255246 41.78839472 -15.58071909 35.27877192 -12.625 28.75 C-8.31104949 19.20953253 -4.09038248 9.63857653 0 0 Z " fill="#312F30" transform="translate(259,190)"/>
<path d="M0 0 C0.66 0 1.32 0 2 0 C2 2.31 2 4.62 2 7 C2.66 7 3.32 7 4 7 C4.33 6.01 4.66 5.02 5 4 C6.98 4.66 8.96 5.32 11 6 C11 31.41 11 56.82 11 83 C10.01 82.67 9.02 82.34 8 82 C7.67 81.01 7.34 80.02 7 79 C6.34 78.67 5.68 78.34 5 78 C3.01328636 74.90955656 2.90231398 72.61438281 3 69 C2.67 68.67 2.34 68.34 2 68 C0.27952607 53.99689983 0.66749417 39.64283672 0.4375 25.5625 C0.3942158 23.07746809 0.3505987 20.59244196 0.30664062 18.10742188 C0.20058895 12.0716758 0.09864693 6.0358714 0 0 Z " fill="#2B292A" transform="translate(210,176)"/>
<path d="M0 0 C1.49080078 0.02707031 1.49080078 0.02707031 3.01171875 0.0546875 C3.77097656 0.07789063 4.53023438 0.10109375 5.3125 0.125 C5.6425 1.445 5.9725 2.765 6.3125 4.125 C6.9725 4.125 7.6325 4.125 8.3125 4.125 C8.3125 5.115 8.3125 6.105 8.3125 7.125 C9.611875 7.063125 9.611875 7.063125 10.9375 7 C15.90514487 7.18398685 19.96891563 8.78614688 24.3125 11.125 C24.3125 12.115 24.3125 13.105 24.3125 14.125 C22.3325 14.125 20.3525 14.125 18.3125 14.125 C17.9825 15.115 17.6525 16.105 17.3125 17.125 C14.3425 17.455 11.3725 17.785 8.3125 18.125 C8.3125 18.785 8.3125 19.445 8.3125 20.125 C6.6625 20.125 5.0125 20.125 3.3125 20.125 C3.35375 21.23875 3.395 22.3525 3.4375 23.5 C3.4375 29.97589555 2.43538849 36.40407823 -0.6875 42.125 C-1.3475 41.795 -2.0075 41.465 -2.6875 41.125 C-3.03125 38.61328125 -3.03125 38.61328125 -3.1875 35.4375 C-3.47835293 30.9742296 -4.14579337 27.33899813 -5.6875 23.125 C-5.8125 20.25 -5.8125 20.25 -5.6875 18.125 C-6.6775 18.24875 -7.6675 18.3725 -8.6875 18.5 C-13.10942703 18.51804868 -15.67515066 16.43559911 -19.0859375 13.828125 C-20.87195462 11.92884826 -21.30001101 10.6713562 -21.6875 8.125 C-20.3675 8.125 -19.0475 8.125 -17.6875 8.125 C-17.6875 7.465 -17.6875 6.805 -17.6875 6.125 C-16.945 6.2075 -16.2025 6.29 -15.4375 6.375 C-11.86080494 6.0498459 -11.01394915 4.76164238 -8.6875 2.125 C-5.26655758 -0.15562828 -4.00562778 -0.09425007 0 0 Z " fill="#E2B458" transform="translate(353.6875,269.875)"/>
<path d="M0 0 C0.3403125 0.9590625 0.3403125 0.9590625 0.6875 1.9375 C1.120625 2.618125 1.55375 3.29875 2 4 C4.475 4.495 4.475 4.495 7 5 C7 8.63 7 12.26 7 16 C6.67 16 6.34 16 6 16 C5.505 13.525 5.505 13.525 5 11 C4.64284912 11.83023682 4.28569824 12.66047363 3.91772461 13.51586914 C-9.19198141 43.96156148 -9.19198141 43.96156148 -15 56 C-15.33 56 -15.66 56 -16 56 C-16.33 54.35 -16.66 52.7 -17 51 C-18.485 51.495 -18.485 51.495 -20 52 C-21.18519265 54.43276386 -22 56.28017286 -22 59 C-22.99 59 -23.98 59 -25 59 C-25.33 60.32 -25.66 61.64 -26 63 C-26.33 62.34 -26.66 61.68 -27 61 C-26.07880829 59.08938016 -25.14624766 57.18348315 -24.15991211 55.30566406 C-23.05200042 53.10336602 -22.13700102 50.90973643 -21.25390625 48.609375 C-18.60137625 41.89053938 -15.60328277 35.32861194 -12.625 28.75 C-8.31104949 19.20953253 -4.09038248 9.63857653 0 0 Z " fill="#3E3C3C" transform="translate(259,190)"/>
<path d="M0 0 C0 0.66 0 1.32 0 2 C0.99 1.34 1.98 0.68 3 0 C7.07490752 -0.33957563 8.53001271 -0.31332486 12 2 C12.5 4.8125 12.5 4.8125 12 8 C9.1531457 11.49756386 6.05532599 14.02432836 2 16 C0.68 16 -0.64 16 -2 16 C-1.67 14.02 -1.34 12.04 -1 10 C-2.65 9.34 -4.3 8.68 -6 8 C-6.20140476 11.62528568 -5.85776765 13.86501708 -4 17 C-5 18 -5 18 -8.25 18.1875 C-11.73221175 18.01338941 -13.90214817 17.50198876 -17 16 C-17 15.34 -17 14.68 -17 14 C-17.66 14 -18.32 14 -19 14 C-21.1519437 10.77208445 -21.20086443 9.71599191 -21 6 C-20.505 6.165 -20.01 6.33 -19.5 6.5 C-15.46790828 7.30641834 -10.73974432 7.86987216 -7 6 C-7.99 5.67 -8.98 5.34 -10 5 C-9.51851852 0.42592593 -9.51851852 0.42592593 -7.25 -1.4375 C-4.25020339 -2.18744915 -2.7110745 -1.35553725 0 0 Z " fill="#E4C789" transform="translate(355,233)"/>
<path d="M0 0 C1 1 1 1 1.0625 4.0625 C1.041875 5.031875 1.02125 6.00125 1 7 C-5.20810944 8.82331669 -10.73766443 9.26934808 -17.1875 9.1953125 C-18.60216553 9.19106766 -18.60216553 9.19106766 -20.04541016 9.18673706 C-23.03040756 9.17562442 -26.01509469 9.15053672 -29 9.125 C-31.03515189 9.11495866 -33.07030852 9.10583484 -35.10546875 9.09765625 C-40.07043037 9.07571435 -45.03516275 9.04124673 -50 9 C-49.125 4.25 -49.125 4.25 -48 2 C-46.83428467 1.97494385 -45.66856934 1.9498877 -44.4675293 1.92407227 C-40.14563869 1.82995309 -35.8239071 1.72974331 -31.50219727 1.62768555 C-29.63114134 1.58435378 -27.76004631 1.54267743 -25.88891602 1.50268555 C-23.20056369 1.44494051 -20.51240785 1.38125819 -17.82421875 1.31640625 C-16.98662521 1.29969376 -16.14903168 1.28298126 -15.28605652 1.26576233 C-10.00929978 1.13093219 -5.27533123 -0.22936223 0 0 Z " fill="#454447" transform="translate(275,287)"/>
<path d="M0 0 C0.33 0 0.66 0 1 0 C1 6.66666667 1 13.33333333 1 20 C3.90876913 21.390117 3.90876913 21.390117 7 22 C7.09302667 27.80899896 7.02919703 33.26590227 6 39 C6.33 39.66 6.66 40.32 7 41 C9.11846285 41.68729254 9.11846285 41.68729254 11.5625 42.125 C12.80193359 42.37636719 12.80193359 42.37636719 14.06640625 42.6328125 C15.02353516 42.81457031 15.02353516 42.81457031 16 43 C16 43.33 16 43.66 16 44 C4.78 44 -6.44 44 -18 44 C-18 43.67 -18 43.34 -18 43 C-16.02 43 -14.04 43 -12 43 C-12 42.01 -12 41.02 -12 40 C-11.236875 39.773125 -10.47375 39.54625 -9.6875 39.3125 C-6.29566629 37.65602307 -5.63844781 36.38138048 -4 33 C-3.4865856 30.3907781 -3.1043157 27.92474712 -2.83203125 25.29296875 C-2.74749191 24.56757401 -2.66295258 23.84217926 -2.57585144 23.09480286 C-2.31022876 20.7934787 -2.06113839 18.49071469 -1.8125 16.1875 C-1.6345547 14.62031843 -1.4555296 13.05325906 -1.27539062 11.48632812 C-0.83775006 7.65885346 -0.41491948 3.8300016 0 0 Z " fill="#333232" transform="translate(159,251)"/>
<path d="M0 0 C2.15510673 1.42509489 4.22642793 2.90910734 6.28515625 4.46875 C7.27515625 5.12875 8.26515625 5.78875 9.28515625 6.46875 C9.28515625 7.12875 9.28515625 7.78875 9.28515625 8.46875 C8.29515625 8.46875 7.30515625 8.46875 6.28515625 8.46875 C6.28515625 7.80875 6.28515625 7.14875 6.28515625 6.46875 C5.29515625 6.79875 4.30515625 7.12875 3.28515625 7.46875 C2.06645696 9.97322516 2.06645696 9.97322516 1.28515625 12.46875 C2.27515625 12.46875 3.26515625 12.46875 4.28515625 12.46875 C4.28515625 14.77875 4.28515625 17.08875 4.28515625 19.46875 C1.48051227 16.74659555 -1.08792828 14.02303183 -3.52734375 10.96875 C-8.33675068 5.27927118 -15.18599775 1.11660111 -22.609375 0.0546875 C-23.57230469 -0.01492187 -24.53523437 -0.08453125 -25.52734375 -0.15625 C-26.50316406 -0.23101562 -27.47898438 -0.30578125 -28.484375 -0.3828125 C-29.22042969 -0.43179688 -29.95648438 -0.48078125 -30.71484375 -0.53125 C-31.04484375 -1.85125 -31.37484375 -3.17125 -31.71484375 -4.53125 C-21.09620931 -7.60440773 -9.49798167 -5.35713498 0 0 Z M4.28515625 9.46875 C5.27515625 9.96375 5.27515625 9.96375 6.28515625 10.46875 C5.95515625 11.45875 5.62515625 12.44875 5.28515625 13.46875 C4.95515625 12.14875 4.62515625 10.82875 4.28515625 9.46875 Z " fill="#413D3E" transform="translate(157.71484375,156.53125)"/>
<path d="M0 0 C1.32 0.66 2.64 1.32 4 2 C4 2.66 4 3.32 4 4 C5.06154297 4.41572266 5.06154297 4.41572266 6.14453125 4.83984375 C8.03262929 5.60696429 9.90604497 6.41137261 11.76171875 7.25390625 C18.24278324 10.15264671 23.88739718 11.82690568 31 12 C31.495 13.98 31.495 13.98 32 16 C17.11468254 16.54387051 4.91929544 16.22136983 -8 8 C-8 7.34 -8 6.68 -8 6 C-8.99 5.67 -9.98 5.34 -11 5 C-10.01 4.34 -9.02 3.68 -8 3 C-6.68 4.32 -5.36 5.64 -4 7 C-3.67 6.01 -3.34 5.02 -3 4 C-2.34 4 -1.68 4 -1 4 C-0.67 2.68 -0.34 1.36 0 0 Z " fill="#3D3B3C" transform="translate(305,311)"/>
<path d="M0 0 C1.49080078 0.02707031 1.49080078 0.02707031 3.01171875 0.0546875 C3.77097656 0.07789063 4.53023438 0.10109375 5.3125 0.125 C5.6425 1.445 5.9725 2.765 6.3125 4.125 C6.9725 4.125 7.6325 4.125 8.3125 4.125 C8.3125 5.115 8.3125 6.105 8.3125 7.125 C9.611875 7.063125 9.611875 7.063125 10.9375 7 C15.90514487 7.18398685 19.96891563 8.78614688 24.3125 11.125 C24.3125 12.115 24.3125 13.105 24.3125 14.125 C22.3325 14.125 20.3525 14.125 18.3125 14.125 C17.9825 15.115 17.6525 16.105 17.3125 17.125 C14.3425 17.455 11.3725 17.785 8.3125 18.125 C8.3125 18.785 8.3125 19.445 8.3125 20.125 C6.6625 20.125 5.0125 20.125 3.3125 20.125 C3.3125 22.765 3.3125 25.405 3.3125 28.125 C2.9825 28.125 2.6525 28.125 2.3125 28.125 C1.9825 24.165 1.6525 20.205 1.3125 16.125 C2.20453125 15.99222656 3.0965625 15.85945313 4.015625 15.72265625 C5.77132813 15.45775391 5.77132813 15.45775391 7.5625 15.1875 C8.72265625 15.01347656 9.8828125 14.83945312 11.078125 14.66015625 C13.54356961 14.2522264 15.90674562 13.78598697 18.3125 13.125 C18.3125 12.465 18.3125 11.805 18.3125 11.125 C17.15234375 10.99544922 17.15234375 10.99544922 15.96875 10.86328125 C9.64746862 10.01053413 5.26111741 8.87103251 0.0703125 5.16796875 C-2.51998909 3.63105648 -4.76338213 3.75948527 -7.6875 4.125 C-8.0175 5.775 -8.3475 7.425 -8.6875 9.125 C-9.75291016 9.30675781 -9.75291016 9.30675781 -10.83984375 9.4921875 C-11.75894531 9.65976562 -12.67804688 9.82734375 -13.625 10 C-14.99978516 10.24363281 -14.99978516 10.24363281 -16.40234375 10.4921875 C-17.15644531 10.70101563 -17.91054688 10.90984375 -18.6875 11.125 C-19.0175 11.785 -19.3475 12.445 -19.6875 13.125 C-20.3475 12.465 -21.0075 11.805 -21.6875 11.125 C-21.6875 10.135 -21.6875 9.145 -21.6875 8.125 C-20.3675 8.125 -19.0475 8.125 -17.6875 8.125 C-17.6875 7.465 -17.6875 6.805 -17.6875 6.125 C-16.945 6.2075 -16.2025 6.29 -15.4375 6.375 C-11.86080494 6.0498459 -11.01394915 4.76164238 -8.6875 2.125 C-5.26655758 -0.15562828 -4.00562778 -0.09425007 0 0 Z " fill="#E0BB6F" transform="translate(353.6875,269.875)"/>
<path d="M0 0 C3.43038822 0.77073179 4.94703438 1.69104893 7.12109375 4.4765625 C8.59909943 9.8681607 8.15938104 15.05439553 7.12109375 20.4765625 C-5.40995509 21.2396169 -5.40995509 21.2396169 -8.88671875 19.43359375 C-11.40561638 16.86190485 -12.74465794 14.30123067 -13.31640625 10.7890625 C-12.78068683 6.73290116 -11.55623409 4.79300173 -8.79296875 1.83984375 C-5.87762463 -0.23659522 -3.50089224 -0.31879963 0 0 Z M-6.69140625 5.5390625 C-8.52582725 8.53206519 -8.18998201 11.05472913 -7.87890625 14.4765625 C-6.04006744 16.76384984 -6.04006744 16.76384984 -3.25390625 16.6015625 C-2.47015625 16.5603125 -1.68640625 16.5190625 -0.87890625 16.4765625 C-0.87890625 15.4865625 -0.87890625 14.4965625 -0.87890625 13.4765625 C0.77109375 13.1465625 2.42109375 12.8165625 4.12109375 12.4765625 C3.85452803 9.54212848 3.85452803 9.54212848 3.12109375 6.4765625 C-0.39657837 4.13144775 -2.88982316 3.31054828 -6.69140625 5.5390625 Z " fill="#DEC286" transform="translate(297.87890625,329.5234375)"/>
<path d="M0 0 C3.55854167 0.78675241 5.16699936 2.61564414 7.26171875 5.50390625 C8.92967111 8.73281025 8.95223217 10.96888377 8.296875 14.5078125 C6.50125095 17.26110271 5.24432578 19.03408711 2.296875 20.5078125 C-2.33525993 21.06294065 -5.68484627 21.1442367 -9.703125 18.6328125 C-12.37734107 15.79145792 -12.8420826 14.30427905 -12.828125 10.5078125 C-12.83199219 9.4559375 -12.83199219 9.4559375 -12.8359375 8.3828125 C-12.703125 6.5078125 -12.703125 6.5078125 -11.703125 4.5078125 C-11.043125 4.5078125 -10.383125 4.5078125 -9.703125 4.5078125 C-9.703125 3.8478125 -9.703125 3.1878125 -9.703125 2.5078125 C-6.16102356 0.14641154 -4.16382851 -0.09525098 0 0 Z M-7.140625 6.6328125 C-9.08036882 9.46071317 -9.08036882 9.46071317 -8.015625 12.7578125 C-6.96071177 15.36141861 -6.96071177 15.36141861 -5.703125 16.5078125 C-2.24491098 16.75785214 -2.24491098 16.75785214 1.296875 16.5078125 C3.66097988 14.57049722 3.66097988 14.57049722 3.609375 11.0703125 C3.57524168 7.63869431 3.57524168 7.63869431 2.109375 5.5703125 C-1.68485071 3.34611122 -3.87565594 3.78642922 -7.140625 6.6328125 Z " fill="#DBBF7E" transform="translate(182.703125,329.4921875)"/>
<path d="M0 0 C8 0 8 0 9.921875 1.23046875 C12.54907969 5.54251123 13.11042147 10.48170477 12.75 15.4375 C12 18 12 18 10 20 C6.7 20 3.4 20 0 20 C0 13.4 0 6.8 0 0 Z M4 4 C4 5.32 4 6.64 4 8 C4.99 7.67 5.98 7.34 7 7 C6.01 6.01 5.02 5.02 4 4 Z M4 12 C4 13.32 4 14.64 4 16 C5.32 15.67 6.64 15.34 8 15 C7.67 14.01 7.34 13.02 7 12 C6.01 12 5.02 12 4 12 Z " fill="#D1B46D" transform="translate(142,330)"/>
<path d="M0 0 C1.24546405 2.49092811 0.7767578 3.41080733 0 6 C1.11375 5.690625 1.11375 5.690625 2.25 5.375 C5.32330841 4.95591249 6.42786866 5.38050989 9 7 C9.33 6.01 9.66 5.02 10 4 C10.99 4.33 11.98 4.66 13 5 C11.7260411 7.03833424 10.38938077 9.03852126 9 11 C8.34 11 7.68 11 7 11 C6.7525 11.61875 6.505 12.2375 6.25 12.875 C4.79371361 15.35068687 3.62187494 15.95125002 1 17 C1 17.66 1 18.32 1 19 C-0.96466413 20.06775224 -2.96855359 21.06553465 -5 22 C-5.66 21.67 -6.32 21.34 -7 21 C-8.18435359 16.69002151 -8.45480168 13.06120391 -6.6875 8.9375 C-5.8521875 7.9784375 -5.8521875 7.9784375 -5 7 C-4.34 7 -3.68 7 -3 7 C-2.690625 6.030625 -2.38125 5.06125 -2.0625 4.0625 C-1 1 -1 1 0 0 Z " fill="#403F40" transform="translate(300,263)"/>
<path d="M0 0 C0.99 0.33 1.98 0.66 3 1 C3.33 5.95 3.66 10.9 4 16 C5.65 16 7.3 16 9 16 C9 11.05 9 6.1 9 1 C10.32 0.67 11.64 0.34 13 0 C14.97796285 1.97796285 14.2747259 5.62046546 14.3125 8.3125 C14.34150391 8.98990234 14.37050781 9.66730469 14.40039062 10.36523438 C14.44357441 13.76346605 14.24049504 15.66586087 12.234375 18.453125 C8.58223213 20.9815316 6.37381042 20.48597894 2 20 C0.26953125 18.98046875 0.26953125 18.98046875 -1 17 C-1.24400699 14.20553898 -1.32828487 11.65900564 -1.25 8.875 C-1.24484375 8.13378906 -1.2396875 7.39257812 -1.234375 6.62890625 C-1.15430775 1.15430775 -1.15430775 1.15430775 0 0 Z " fill="#E9D5A3" transform="translate(208,330)"/>
<path d="M0 0 C2.3828125 -0.29296875 2.3828125 -0.29296875 5.125 -0.1875 C6.03507812 -0.16042969 6.94515625 -0.13335937 7.8828125 -0.10546875 C8.58148438 -0.07066406 9.28015625 -0.03585937 10 0 C10 1.32 10 2.64 10 4 C7.69 4 5.38 4 3 4 C3 4.99 3 5.98 3 7 C5.31 7 7.62 7 10 7 C10 8.32 10 9.64 10 11 C8.02 11.33 6.04 11.66 4 12 C3.67 13.32 3.34 14.64 3 16 C4.98 16 6.96 16 9 16 C9.33 17.32 9.66 18.64 10 20 C6.37 20 2.74 20 -1 20 C-2.50930882 16.98138236 -2.18438844 13.87008697 -2.1875 10.5625 C-2.19974609 9.88123047 -2.21199219 9.19996094 -2.22460938 8.49804688 C-2.23555848 4.77170191 -2.12005619 3.18008429 0 0 Z " fill="#DFC58F" transform="translate(355,330)"/>
<path d="M0 0 C2.29651157 3.64642955 2.247747 6.73030852 2.24291992 10.98071289 C2.24481827 11.67563843 2.24671661 12.37056396 2.24867249 13.08654785 C2.25237363 15.38203252 2.24167772 17.67719969 2.23046875 19.97265625 C2.22927545 21.57726504 2.2288241 23.18187455 2.2290802 24.78648376 C2.22751597 28.15319178 2.21923683 31.51979338 2.20581055 34.88647461 C2.18891675 39.17426231 2.18499367 43.4619321 2.18575573 47.74974918 C2.1854818 51.06744994 2.17996358 54.38512559 2.17275429 57.70281792 C2.16959895 59.2818527 2.16760765 60.8608903 2.16686058 62.43992805 C2.15837928 71.00507187 2.00075132 79.48023358 1 88 C-2.8665284 84.777893 -3.88059018 81.85077588 -5 77 C-4.34 77.33 -3.68 77.66 -3 78 C-3 78.99 -3 79.98 -3 81 C-2.34 81 -1.68 81 -1 81 C-1.00222061 80.07371796 -1.00444122 79.14743591 -1.00672913 78.19308472 C-1.02678603 69.45356511 -1.04200168 60.71405327 -1.05181217 51.97451591 C-1.05702542 47.48169852 -1.06409476 42.98890018 -1.07543945 38.49609375 C-1.08632372 34.15836526 -1.09228858 29.82065507 -1.09487724 25.48291397 C-1.09672151 23.82996457 -1.10032288 22.17701614 -1.10573006 20.52407455 C-1.11301402 18.20466719 -1.11398784 15.88533498 -1.11352539 13.56591797 C-1.115746 12.24687469 -1.11796661 10.92783142 -1.12025452 9.56881714 C-1.00947349 6.28114664 -0.62888755 3.22431656 0 0 Z " fill="#727172" transform="translate(221,177)"/>
<path d="M0 0 C1.79244141 0.01740234 1.79244141 0.01740234 3.62109375 0.03515625 C5.41740234 0.04869141 5.41740234 0.04869141 7.25 0.0625 C8.17683594 0.07410156 9.10367187 0.08570313 10.05859375 0.09765625 C11.45484527 5.17161604 10.38463066 8.24634441 8.3828125 12.98046875 C7.05859375 15.09765625 7.05859375 15.09765625 3.80859375 16.22265625 C2.90109375 16.18140625 1.99359375 16.14015625 1.05859375 16.09765625 C-4.78313287 6.70916704 -4.78313287 6.70916704 -3.94140625 1.09765625 C-2.94140625 0.09765625 -2.94140625 0.09765625 0 0 Z " fill="#E1BC71" transform="translate(348.94140625,251.90234375)"/>
<path d="M0 0 C0.99 0.33 1.98 0.66 3 1 C3.33 5.95 3.66 10.9 4 16 C5.65 16 7.3 16 9 16 C9.33 11.05 9.66 6.1 10 1 C11.32 1 12.64 1 14 1 C14.0814222 3.22855574 14.13938079 5.45797655 14.1875 7.6875 C14.22230469 8.92886719 14.25710938 10.17023438 14.29296875 11.44921875 C13.9796252 15.24694258 13.4657126 17.10972761 11 20 C8.84375 20.59375 8.84375 20.59375 6.5 20.5 C5.7265625 20.4896875 4.953125 20.479375 4.15625 20.46875 C2 20 2 20 0.234375 18.9765625 C-1.73923775 15.81628385 -1.35130308 12.47759089 -1.25 8.875 C-1.24484375 8.13378906 -1.2396875 7.39257812 -1.234375 6.62890625 C-1.15430775 1.15430775 -1.15430775 1.15430775 0 0 Z " fill="#E2C589" transform="translate(323,330)"/>
<path d="M0 0 C1.99954746 -0.04254356 4.00041636 -0.04080783 6 0 C7.83788538 1.83788538 7.17305323 4.79764004 7.20532227 7.26391602 C7.21522186 7.91755127 7.22512146 8.57118652 7.23532104 9.24462891 C7.26701634 11.41435064 7.29172492 13.5840943 7.31640625 15.75390625 C7.33696887 17.25463952 7.35796515 18.7553669 7.37937927 20.25608826 C7.43467155 24.21311693 7.48404911 28.17019849 7.53222656 32.12731934 C7.5823895 36.1624016 7.63810268 40.19740672 7.69335938 44.23242188 C7.8010284 52.15488277 7.90245379 60.07740804 8 68 C8.66 68.33 9.32 68.66 10 69 C9.01 69.99 9.01 69.99 8 71 C5.49232702 66.60734794 4.62951753 63.4880426 4.65942383 58.44384766 C4.65965042 57.16297272 4.65987701 55.88209778 4.66011047 54.56240845 C4.67542688 53.17962284 4.69107481 51.79684087 4.70703125 50.4140625 C4.71263246 48.98774666 4.71690008 47.56142501 4.71989441 46.13510132 C4.731302 42.39658433 4.76073325 38.65842174 4.79400635 34.92004395 C4.82479592 31.09908847 4.83841865 27.27807525 4.85351562 23.45703125 C4.88560751 15.9711933 4.93675354 8.48564647 5 1 C3.35 1 1.7 1 0 1 C0 0.67 0 0.34 0 0 Z " fill="#828082" transform="translate(204,176)"/>
<path d="M0 0 C6.9457133 1.23230397 12.96693861 3.26524771 19 7 C19.33 7.66 19.66 8.32 20 9 C17.36 8.67 14.72 8.34 12 8 C12.66 9.98 13.32 11.96 14 14 C14.66 14 15.32 14 16 14 C16.66 13.34 17.32 12.68 18 12 C18.625 14.3125 18.625 14.3125 19 17 C18.34 17.99 17.68 18.98 17 20 C16.34773438 19.38511719 15.69546875 18.77023438 15.0234375 18.13671875 C13.71246094 16.92435547 13.71246094 16.92435547 12.375 15.6875 C11.51648438 14.88699219 10.65796875 14.08648437 9.7734375 13.26171875 C7.07280448 10.87083168 7.07280448 10.87083168 3.71875 9.46875 C1 8 1 8 0.1953125 5.95703125 C0.09765625 2.97851562 0.09765625 2.97851562 0 0 Z " fill="#4F4E50" transform="translate(276,173)"/>
<path d="M0 0 C0.66 0 1.32 0 2 0 C-0.08067333 6.76296354 -2.73249736 13.13878613 -5.6875 19.5625 C-6.10322266 20.47580078 -6.51894531 21.38910156 -6.94726562 22.33007812 C-7.96082902 24.55525752 -8.97845216 26.77847781 -10 29 C-10.33 29 -10.66 29 -11 29 C-11.33 27.35 -11.66 25.7 -12 24 C-12.99 24.33 -13.98 24.66 -15 25 C-16.18519265 27.43276386 -17 29.28017286 -17 32 C-17.99 32 -18.98 32 -20 32 C-20.33 33.32 -20.66 34.64 -21 36 C-21.33 35.34 -21.66 34.68 -22 34 C-21.08679048 32.10593581 -20.1630677 30.21613035 -19.18359375 28.35546875 C-17.17278225 24.35375477 -15.61957708 20.17143172 -14 16 C-13.33493736 14.33269262 -12.66870677 12.66584917 -12 11 C-11.67 11 -11.34 11 -11 11 C-11 12.65 -11 14.3 -11 16 C-10.34 16 -9.68 16 -9 16 C-8.67 15.67 -8.34 15.34 -8 15 C-7.01 14.34 -6.02 13.68 -5 13 C-4.32852082 10.55936559 -4.32852082 10.55936559 -4 8 C-3.67 7.01 -3.34 6.02 -3 5 C-2.34 5 -1.68 5 -1 5 C-0.67 3.35 -0.34 1.7 0 0 Z " fill="#484746" transform="translate(254,217)"/>
<path d="M0 0 C0.99 0.33 1.98 0.66 3 1 C3.64484736 7.96435152 2.0687761 13.23946963 -2 19 C-5.00745032 21.01719229 -6.20091994 21 -10 21 C-9.4140625 14.84765625 -9.4140625 14.84765625 -9 13 C-8.34 12.67 -7.68 12.34 -7 12 C-6.67 11.01 -6.34 10.02 -6 9 C-5.01 9 -4.02 9 -3 9 C-3.33 8.01 -3.66 7.02 -4 6 C-2.0625 2.8125 -2.0625 2.8125 0 0 Z " fill="#424140" transform="translate(240,240)"/>
<path d="M0 0 C0.80050781 0.43441406 1.60101563 0.86882812 2.42578125 1.31640625 C7.17055229 3.75576848 11.49788616 4.94915873 16.73828125 5.87890625 C16.73828125 6.53890625 16.73828125 7.19890625 16.73828125 7.87890625 C10.22088583 11.04824296 3.8576558 9.27541248 -2.78515625 7.0234375 C-4.94921875 6.06640625 -4.94921875 6.06640625 -8.26171875 3.87890625 C-9.26171875 1.12890625 -9.26171875 1.12890625 -9.26171875 -1.12109375 C-5.35425829 -2.42358057 -3.62592507 -1.79730656 0 0 Z " fill="#E1AB42" transform="translate(355.26171875,275.12109375)"/>
<path d="M0 0 C16.335 0.495 16.335 0.495 33 1 C33 1.66 33 2.32 33 3 C32.34 3 31.68 3 31 3 C31 3.66 31 4.32 31 5 C20.77 5 10.54 5 0 5 C0 3.35 0 1.7 0 0 Z " fill="#27262A" transform="translate(227,290)"/>
<path d="M0 0 C0.33 1.32 0.66 2.64 1 4 C3.31 3.34 5.62 2.68 8 2 C7.07387135 7.2672477 5.1391181 11.84697603 3.0625 16.75 C2.70220703 17.62527344 2.34191406 18.50054687 1.97070312 19.40234375 C1.62072266 20.23378906 1.27074219 21.06523437 0.91015625 21.921875 C0.59183838 22.68081055 0.27352051 23.43974609 -0.05444336 24.22167969 C-1 26 -1 26 -3 27 C-2.67 24.69 -2.34 22.38 -2 20 C-1.34 20 -0.68 20 0 20 C0.33 18.02 0.66 16.04 1 14 C-1.97 13.505 -1.97 13.505 -5 13 C-3.35 8.71 -1.7 4.42 0 0 Z " fill="#4D4C4B" transform="translate(229,257)"/>
<path d="M0 0 C4.29 0 8.58 0 13 0 C13 1.32 13 2.64 13 4 C11.35 4 9.7 4 8 4 C8 9.28 8 14.56 8 20 C6.68 19.67 5.36 19.34 4 19 C4 14.05 4 9.1 4 4 C2.68 4 1.36 4 0 4 C0 2.68 0 1.36 0 0 Z " fill="#D0AF6C" transform="translate(237,330)"/>
<path d="M0 0 C3 1 3 1 3.94921875 2.77734375 C4.31466797 3.84662109 4.31466797 3.84662109 4.6875 4.9375 C4.93886719 5.64777344 5.19023437 6.35804688 5.44921875 7.08984375 C6 9 6 9 6 11 C-0.27 11 -6.54 11 -13 11 C-13 10.01 -13 9.02 -13 8 C-12.31292969 7.75765625 -11.62585938 7.5153125 -10.91796875 7.265625 C-9.56638672 6.76289063 -9.56638672 6.76289063 -8.1875 6.25 C-7.29417969 5.92515625 -6.40085938 5.6003125 -5.48046875 5.265625 C-2.75704839 3.87603729 -1.61675616 2.55673068 0 0 Z " fill="#464446" transform="translate(209,285)"/>
<path d="M0 0 C0.226875 0.639375 0.45375 1.27875 0.6875 1.9375 C1.120625 2.618125 1.55375 3.29875 2 4 C3.65 4.33 5.3 4.66 7 5 C7 8.63 7 12.26 7 16 C6.67 16 6.34 16 6 16 C5.67 14.35 5.34 12.7 5 11 C4.01 13.31 3.02 15.62 2 18 C1.34 17.01 0.68 16.02 0 15 C-2.02450921 15 -4.02400526 15.59466775 -6 16 C-4.25192871 10.53262809 -2.34205919 5.24175152 0 0 Z " fill="#4B494A" transform="translate(259,190)"/>
<path d="M0 0 C0 0.33 0 0.66 0 1 C-1.98 1.33 -3.96 1.66 -6 2 C-5.67 3.32 -5.34 4.64 -5 6 C-5.928125 5.690625 -6.85625 5.38125 -7.8125 5.0625 C-12.77871546 3.6216844 -17.86205306 3.35305964 -23 3 C-23.33 1.68 -23.66 0.36 -24 -1 C-16.1526777 -3.33551259 -7.70247578 -2.36999255 0 0 Z " fill="#696868" transform="translate(150,153)"/>
<path d="M0 0 C1.49080078 0.02707031 1.49080078 0.02707031 3.01171875 0.0546875 C3.77097656 0.07789063 4.53023438 0.10109375 5.3125 0.125 C5.43625 0.764375 5.56 1.40375 5.6875 2.0625 C5.89375 2.743125 6.1 3.42375 6.3125 4.125 C6.9725 4.455 7.6325 4.785 8.3125 5.125 C3.0325 4.795 -2.2475 4.465 -7.6875 4.125 C-8.0175 5.775 -8.3475 7.425 -8.6875 9.125 C-9.75291016 9.30675781 -9.75291016 9.30675781 -10.83984375 9.4921875 C-11.75894531 9.65976562 -12.67804688 9.82734375 -13.625 10 C-14.99978516 10.24363281 -14.99978516 10.24363281 -16.40234375 10.4921875 C-17.15644531 10.70101563 -17.91054688 10.90984375 -18.6875 11.125 C-19.0175 11.785 -19.3475 12.445 -19.6875 13.125 C-20.3475 12.465 -21.0075 11.805 -21.6875 11.125 C-21.6875 10.135 -21.6875 9.145 -21.6875 8.125 C-20.3675 8.125 -19.0475 8.125 -17.6875 8.125 C-17.6875 7.465 -17.6875 6.805 -17.6875 6.125 C-16.945 6.2075 -16.2025 6.29 -15.4375 6.375 C-11.86080494 6.0498459 -11.01394915 4.76164238 -8.6875 2.125 C-5.26655758 -0.15562828 -4.00562778 -0.09425007 0 0 Z " fill="#EBD49F" transform="translate(353.6875,269.875)"/>
<path d="M0 0 C0.66 0.33 1.32 0.66 2 1 C2.32152515 4.53677664 2.4131192 6.3962104 0.375 9.375 C-2.6037896 11.4131192 -4.46322336 11.32152515 -8 11 C-9.125 4.375 -9.125 4.375 -8 1 C-5.26094655 -0.36952673 -3.02912668 -0.12621361 0 0 Z " fill="#E0AC42" transform="translate(364,235)"/>
<path d="M0 0 C1.98 0.495 1.98 0.495 4 1 C4 6.94 4 12.88 4 19 C2.68 19.33 1.36 19.66 0 20 C-1.5220959 18.4779041 -1.12959521 17.11789918 -1.1328125 15 C-1.13410156 14.195625 -1.13539063 13.39125 -1.13671875 12.5625 C-1.13285156 11.716875 -1.12898438 10.87125 -1.125 10 C-1.12886719 9.154375 -1.13273437 8.30875 -1.13671875 7.4375 C-1.13542969 6.633125 -1.13414062 5.82875 -1.1328125 5 C-1.13168457 4.2575 -1.13055664 3.515 -1.12939453 2.75 C-1 1 -1 1 0 0 Z " fill="#E3C896" transform="translate(266,330)"/>
<path d="M0 0 C2.30742675 0.06642404 4.61497792 0.12541726 6.92260742 0.18432617 C8.39722959 0.22619576 9.8718396 0.26849637 11.34643555 0.3112793 C13.3241394 0.36626587 13.3241394 0.36626587 15.34179688 0.42236328 C18.4519043 0.62768555 18.4519043 0.62768555 20.4519043 1.62768555 C20.1219043 2.61768555 19.7919043 3.60768555 19.4519043 4.62768555 C19.4519043 3.96768555 19.4519043 3.30768555 19.4519043 2.62768555 C11.81107954 2.60452182 4.17025841 2.58674986 -3.47059345 2.57587337 C-7.01849418 2.57065338 -10.5663709 2.56357174 -14.11425781 2.55224609 C-18.19246655 2.53930892 -22.27065003 2.53445003 -26.34887695 2.5300293 C-27.62394608 2.52486801 -28.8990152 2.51970673 -30.21272278 2.51438904 C-31.98421944 2.51427574 -31.98421944 2.51427574 -33.79150391 2.51416016 C-34.83297073 2.51193954 -35.87443756 2.50971893 -36.94746399 2.50743103 C-39.66294407 2.51481864 -39.66294407 2.51481864 -42.5480957 3.62768555 C-44.59106445 3.5065918 -44.59106445 3.5065918 -46.7355957 3.19018555 C-47.9937207 3.00456055 -49.2518457 2.81893555 -50.5480957 2.62768555 C-50.5480957 2.29768555 -50.5480957 1.96768555 -50.5480957 1.62768555 C-47.52812277 1.28429776 -44.50753387 0.95295598 -41.4855957 0.62768555 C-40.24326172 0.48459961 -40.24326172 0.48459961 -38.97583008 0.33862305 C-26.04569639 -1.02757976 -12.97517913 -0.38016808 0 0 Z " fill="#848083" transform="translate(244.548095703125,169.372314453125)"/>
<path d="M0 0 C0.60585938 0.20496094 1.21171875 0.40992188 1.8359375 0.62109375 C7.90341521 2.5720212 13.64303124 3.6077615 20 4 C20.33 5.32 20.66 6.64 21 8 C17.56257082 8.05802698 14.12526747 8.09360486 10.6875 8.125 C9.71103516 8.14175781 8.73457031 8.15851563 7.72851562 8.17578125 C6.79072266 8.18222656 5.85292969 8.18867188 4.88671875 8.1953125 C4.02264404 8.20578613 3.15856934 8.21625977 2.26831055 8.22705078 C0 8 0 8 -3 6 C-0.69 6 1.62 6 4 6 C3.34 5.38125 2.68 4.7625 2 4.125 C0 2 0 2 0 0 Z " fill="#4F4C4C" transform="translate(316,319)"/>
<path d="M0 0 C4.7517398 0.43197635 6.92000054 1.32769295 10 5 C8.375 10.75 8.375 10.75 5 13 C5 12.34 5 11.68 5 11 C4.34 10.67 3.68 10.34 3 10 C1.66666667 9.33333333 0.33333333 8.66666667 -1 8 C-1 7.67 -1 7.34 -1 7 C-1.65035814 5.65863633 -2.3162955 4.32467746 -3 3 C-2.34 3 -1.68 3 -1 3 C-0.67 2.01 -0.34 1.02 0 0 Z " fill="#282728" transform="translate(295,306)"/>
<path d="M0 0 C0.33 0.66 0.66 1.32 1 2 C0.34 2 -0.32 2 -1 2 C-0.67 3.32 -0.34 4.64 0 6 C-8.42857143 8.42857143 -8.42857143 8.42857143 -13 7 C-13.33 5.35 -13.66 3.7 -14 2 C-12.42085985 1.46658816 -10.83645613 0.94874237 -9.25 0.4375 C-8.36828125 0.14746094 -7.4865625 -0.14257812 -6.578125 -0.44140625 C-3.90038614 -1.021583 -2.51600424 -1.03700175 0 0 Z " fill="#4B4A4E" transform="translate(194,173)"/>
<path d="M0 0 C0.33 0 0.66 0 1 0 C1.04898438 0.62648438 1.09796875 1.25296875 1.1484375 1.8984375 C1.22320312 2.71570313 1.29796875 3.53296875 1.375 4.375 C1.44460937 5.18710937 1.51421875 5.99921875 1.5859375 6.8359375 C1.82892588 9.20334191 1.82892588 9.20334191 4 11 C5.98821313 11.39764263 7.98944339 11.73775349 10 12 C10 12.99 10 13.98 10 15 C-1.88 15 -13.76 15 -26 15 C-26 14.01 -26 13.02 -26 12 C-22.535 11.505 -22.535 11.505 -19 11 C-19 11.66 -19 12.32 -19 13 C-11.74 13 -4.48 13 3 13 C1.68 12.34 0.36 11.68 -1 11 C-2.61027397 6.85929551 -1.58989591 4.02150141 0 0 Z " fill="#5B5858" transform="translate(166,281)"/>
<path d="M0 0 C0.99 0.33 1.98 0.66 3 1 C3.33 6.28 3.66 11.56 4 17 C5.65 17 7.3 17 9 17 C9 17.66 9 18.32 9 19 C5.53058454 18.54177532 2.32604951 18.10868317 -1 17 C-1.02684679 14.35409986 -1.04676357 11.70846904 -1.0625 9.0625 C-1.07087891 8.30775391 -1.07925781 7.55300781 -1.08789062 6.77539062 C-1.09652441 4.85005687 -1.05224333 2.92464419 -1 1 C-0.67 0.67 -0.34 0.34 0 0 Z " fill="#DABE82" transform="translate(208,330)"/>
<path d="M0 0 C2.00720923 0.28674418 4.0085944 0.61866701 6 1 C5.34 1.66 4.68 2.32 4 3 C4.33 3.66 4.66 4.32 5 5 C-0.28 5.66 -5.56 6.32 -11 7 C-11.66 5.35 -12.32 3.7 -13 2 C-10.47901757 0.73950878 -8.7450692 0.93536531 -5.9375 1 C-4.29210014 1.03777102 -2.64517844 1.04642479 -1 1 C-0.67 0.67 -0.34 0.34 0 0 Z " fill="#312F32" transform="translate(205,171)"/>
<path d="M0 0 C0.4125 0.639375 0.825 1.27875 1.25 1.9375 C3.22889786 4.26977248 4.02723399 4.63966473 7 5 C8.32 5 9.64 5 11 5 C10.01 6.485 10.01 6.485 9 8 C8.34 8 7.68 8 7 8 C7 8.66 7 9.32 7 10 C5.03533587 11.06775224 3.03144641 12.06553465 1 13 C0.34 12.67 -0.32 12.34 -1 12 C-1.484375 10.0390625 -1.484375 10.0390625 -1.75 7.625 C-1.84796875 6.83351563 -1.9459375 6.04203125 -2.046875 5.2265625 C-2 3 -2 3 0 0 Z " fill="#414040" transform="translate(294,272)"/>
<path d="M0 0 C0.99 0.495 0.99 0.495 2 1 C4.85450631 12.99949874 4.45576095 24.97889858 2 37 C1.01 37.495 1.01 37.495 0 38 C0.08378906 36.84886719 0.16757812 35.69773438 0.25390625 34.51171875 C1.02190084 22.90824201 0.84389552 11.59382619 0 0 Z " fill="#7D7B7C" transform="translate(305,214)"/>
<path d="M0 0 C5.95345982 0.56227121 10.66374326 1.66374326 15 6 C14.67 6.99 14.34 7.98 14 9 C11 8 11 8 9 6 C8.67 6.66 8.34 7.32 8 8 C4 8 4 8 1 7 C-0.1875 3.9375 -0.1875 3.9375 -1 1 C-0.67 0.67 -0.34 0.34 0 0 Z " fill="#2B292A" transform="translate(288,180)"/>
<path d="M0 0 C1.32 0.33 2.64 0.66 4 1 C4.33 2.32 4.66 3.64 5 5 C4.34 5 3.68 5 3 5 C3.061875 5.78375 3.12375 6.5675 3.1875 7.375 C3.125625 8.24125 3.06375 9.1075 3 10 C0 12 0 12 -4 12 C-3.4140625 5.84765625 -3.4140625 5.84765625 -3 4 C-2.34 3.67 -1.68 3.34 -1 3 C-0.67 2.01 -0.34 1.02 0 0 Z " fill="#302E2D" transform="translate(234,249)"/>
<path d="M0 0 C3.3 0 6.6 0 10 0 C11.25664978 2.90600261 12 4.79604584 12 8 C9.69 8 7.38 8 5 8 C4.731875 7.401875 4.46375 6.80375 4.1875 6.1875 C3.01373338 4.02529834 1.76393777 2.68375878 0 1 C0 0.67 0 0.34 0 0 Z " fill="#DDAD4D" transform="translate(336,242)"/>
<path d="M0 0 C4.875 3.75 4.875 3.75 6 6 C6.5824233 12.29017161 6.5824233 12.29017161 4 15.4375 C3.01 16.2109375 3.01 16.2109375 2 17 C1.87882813 16.24074219 1.75765625 15.48148437 1.6328125 14.69921875 C1.46523437 13.70535156 1.29765625 12.71148437 1.125 11.6875 C0.96257812 10.70136719 0.80015625 9.71523438 0.6328125 8.69921875 C0.11914546 5.79940173 0.11914546 5.79940173 -2 3 C-1.34 3 -0.68 3 0 3 C0 2.01 0 1.02 0 0 Z " fill="#DCBD82" transform="translate(185,331)"/>
<path d="M0 0 C1 1 1 1 1.0625 4.0625 C1.041875 5.031875 1.02125 6.00125 1 7 C0.34 5.68 -0.32 4.36 -1 3 C-16.51 3 -32.02 3 -48 3 C-48 2.67 -48 2.34 -48 2 C-46.83428467 1.97494385 -45.66856934 1.9498877 -44.4675293 1.92407227 C-40.14563869 1.82995309 -35.8239071 1.72974331 -31.50219727 1.62768555 C-29.63114134 1.58435378 -27.76004631 1.54267743 -25.88891602 1.50268555 C-23.20056369 1.44494051 -20.51240785 1.38125819 -17.82421875 1.31640625 C-16.56782845 1.29133751 -16.56782845 1.29133751 -15.28605652 1.26576233 C-10.00929978 1.13093219 -5.27533123 -0.22936223 0 0 Z " fill="#A2A1A1" transform="translate(275,287)"/>
<path d="M0 0 C2 1 2 1 2.66796875 2.85546875 C3.7082953 7.52520522 4.37829409 11.29082853 3 16 C2.34 16.66 1.68 17.32 1 18 C0.01 17.67 -0.98 17.34 -2 17 C-1.67 16.34 -1.34 15.68 -1 15 C-0.01 15 0.98 15 2 15 C1.37189827 12.02982306 1.37189827 12.02982306 0 9 C-2.50995496 7.56076801 -2.50995496 7.56076801 -5 7 C-4.34 6.01 -3.68 5.02 -3 4 C-3.33 3.34 -3.66 2.68 -4 2 C-2.02 2.495 -2.02 2.495 0 3 C0 2.01 0 1.02 0 0 Z " fill="#E5C991" transform="translate(151,332)"/>
<path d="M0 0 C0.33 0 0.66 0 1 0 C1.06058594 1.10859375 1.12117187 2.2171875 1.18359375 3.359375 C1.26802951 4.8229282 1.35267599 6.28646925 1.4375 7.75 C1.47681641 8.47960937 1.51613281 9.20921875 1.55664062 9.9609375 C1.76147098 13.4272973 2.0852002 16.65333026 3 20 C2.34 20.33 1.68 20.66 1 21 C0.26924352 23.3140622 -0.40138258 25.64828869 -1 28 C-1.33 28 -1.66 28 -2 28 C-2.36799953 18.53423442 -1.22914592 9.36126309 0 0 Z " fill="#504F4F" transform="translate(165,201)"/>
<path d="M0 0 C1.32 0.33 2.64 0.66 4 1 C5.8815863 10.32509434 7.47703913 19.47850555 8 29 C7.34 29 6.68 29 6 29 C5.95101563 28.28714844 5.90203125 27.57429688 5.8515625 26.83984375 C5.41858489 21.2932512 4.6773717 16.32812188 3 11 C2.46091346 8.64442622 1.95752291 6.28364307 1.46484375 3.91796875 C1.05931382 1.93199905 1.05931382 1.93199905 0 0 Z " fill="#656362" transform="translate(269,168)"/>
<path d="M0 0 C3.51354325 0.06800406 4.63487005 0.34277758 7.75 2.25 C9.6875 4.375 9.6875 4.375 9.6875 6.375 C9.0275 6.375 8.3675 6.375 7.6875 6.375 C6.6975 7.86 6.6975 7.86 5.6875 9.375 C5.3575 8.385 5.0275 7.395 4.6875 6.375 C1.80431225 5.19164605 1.80431225 5.19164605 -1.3125 4.375 C-4.3125 3.375 -4.3125 3.375 -6.3125 2.375 C-3.93025072 -0.00724928 -3.2622963 0.05482851 0 0 Z " fill="#E5CF9C" transform="translate(295.3125,329.625)"/>
<path d="M0 0 C1.485 0.99 1.485 0.99 3 2 C3.40843923 4.71203652 3.13336867 7.2437142 3 10 C3.99 10 4.98 10 6 10 C6 8.02 6 6.04 6 4 C6.33 4 6.66 4 7 4 C7.34615998 9.65394631 6.43425238 13.03006806 4 18 C3.34 17.67 2.68 17.34 2 17 C1.62109375 14.453125 1.62109375 14.453125 1.4375 11.25 C1.20546507 7.40484978 0.84291966 3.76179024 0 0 Z " fill="#E2CA9C" transform="translate(349,294)"/>
<path d="M0 0 C0.66 0 1.32 0 2 0 C2 1.32 2 2.64 2 4 C4.31 4 6.62 4 9 4 C9.33 5.32 9.66 6.64 10 8 C6.7 8 3.4 8 0 8 C0 5.36 0 2.72 0 0 Z " fill="#DCBE81" transform="translate(355,342)"/>
<path d="M0 0 C2.5 0.125 2.5 0.125 3.5 1.125 C3.54080783 3.12458364 3.54254356 5.12545254 3.5 7.125 C1.19 7.125 -1.12 7.125 -3.5 7.125 C-3.54254356 5.12545254 -3.54080783 3.12458364 -3.5 1.125 C-2.5 0.125 -2.5 0.125 0 0 Z " fill="#E2AB3F" transform="translate(352.5,254.875)"/>
<path d="M0 0 C4.29 0 8.58 0 13 0 C13 1.32 13 2.64 13 4 C11.35 4 9.7 4 8 4 C8.66 3.67 9.32 3.34 10 3 C10 2.34 10 1.68 10 1 C7.03 1 4.06 1 1 1 C1 1.66 1 2.32 1 3 C2.32 3 3.64 3 5 3 C5 8.28 5 13.56 5 19 C4.67 19 4.34 19 4 19 C4 14.05 4 9.1 4 4 C2.68 4 1.36 4 0 4 C0 2.68 0 1.36 0 0 Z " fill="#F1DAB6" transform="translate(237,330)"/>
<path d="M0 0 C0.99 0.33 1.98 0.66 3 1 C4.1875 4.0625 4.1875 4.0625 5 7 C3.35 6.34 1.7 5.68 0 5 C-0.7115625 5.99 -0.7115625 5.99 -1.4375 7 C-5.14875563 9.89658976 -8.45397207 9.34969446 -13 9 C-10.66367991 7.81922484 -8.3270054 6.69783916 -5.9375 5.625 C-3.02573321 4.0142354 -1.72995868 2.78715566 0 0 Z " fill="#69686B" transform="translate(209,285)"/>
<path d="M0 0 C1.65 0.33 3.3 0.66 5 1 C5 2.65 5 4.3 5 6 C1.52674819 7.1577506 -1.36067448 7.06866652 -5 7 C-5.33 6.01 -5.66 5.02 -6 4 C-4.02 4 -2.04 4 0 4 C0 2.68 0 1.36 0 0 Z " fill="#DAB16A" transform="translate(298,343)"/>
<path d="M0 0 C2.64 0 5.28 0 8 0 C8.33 0.66 8.66 1.32 9 2 C6.36 1.67 3.72 1.34 1 1 C1 4.63 1 8.26 1 12 C2.98 11.67 4.96 11.34 7 11 C6.01 11.33 5.02 11.66 4 12 C4 13.32 4 14.64 4 16 C3.01 16 2.02 16 1 16 C0.67 17.32 0.34 18.64 0 20 C0 13.4 0 6.8 0 0 Z " fill="#E6CC96" transform="translate(142,330)"/>
<path d="M0 0 C2.97 0 5.94 0 9 0 C9.33 1.32 9.66 2.64 10 4 C6.56257082 4.05802698 3.12526747 4.09360486 -0.3125 4.125 C-1.28896484 4.14175781 -2.26542969 4.15851563 -3.27148438 4.17578125 C-4.20927734 4.18222656 -5.14707031 4.18867188 -6.11328125 4.1953125 C-6.97735596 4.20578613 -7.84143066 4.21625977 -8.73168945 4.22705078 C-11 4 -11 4 -14 2 C-8.06 2 -2.12 2 4 2 C2.68 1.34 1.36 0.68 0 0 Z " fill="#787674" transform="translate(327,323)"/>
<path d="M0 0 C1.46015291 0.28241641 2.91809793 0.57626614 4.375 0.875 C5.18710937 1.03742188 5.99921875 1.19984375 6.8359375 1.3671875 C9 2 9 2 11 4 C9.03533587 5.06775224 7.03144641 6.06553465 5 7 C4.34 6.67 3.68 6.34 3 6 C2.34 6.66 1.68 7.32 1 8 C0.67 5.36 0.34 2.72 0 0 Z " fill="#5C595C" transform="translate(276,173)"/>
<path d="M0 0 C1.32 0.66 2.64 1.32 4 2 C3.67 6.29 3.34 10.58 3 15 C1.68 14.67 0.36 14.34 -1 14 C-0.34 14 0.32 14 1 14 C0.835 13.360625 0.67 12.72125 0.5 12.0625 C-0.15932515 8.02413348 -0.08003779 4.08192742 0 0 Z " fill="#DEBF87" transform="translate(302,335)"/>
<path d="M0 0 C0.33 0.99 0.66 1.98 1 3 C3.31 3 5.62 3 8 3 C8 4.32 8 5.64 8 7 C7.05125 7.0825 6.1025 7.165 5.125 7.25 C4.09375 7.4975 3.0625 7.745 2 8 C1.34 9.32 0.68 10.64 0 12 C0 8.04 0 4.08 0 0 Z " fill="#E7CC9A" transform="translate(357,334)"/>
<path d="M0 0 C0.90105469 0.19464844 1.80210937 0.38929688 2.73046875 0.58984375 C3.41753906 0.74582031 4.10460937 0.90179688 4.8125 1.0625 C4.8125 1.3925 4.8125 1.7225 4.8125 2.0625 C2.8325 2.0625 0.8525 2.0625 -1.1875 2.0625 C-1.1875 2.7225 -1.1875 3.3825 -1.1875 4.0625 C-2.8375 4.0625 -4.4875 4.0625 -6.1875 4.0625 C-6.1875 6.7025 -6.1875 9.3425 -6.1875 12.0625 C-6.5175 12.0625 -6.8475 12.0625 -7.1875 12.0625 C-7.5175 8.1025 -7.8475 4.1425 -8.1875 0.0625 C-4.80475734 -1.06508089 -3.41971777 -0.75500262 0 0 Z " fill="#ECC984" transform="translate(363.1875,285.9375)"/>
<path d="M0 0 C0.33 0 0.66 0 1 0 C1.66 2.31 2.32 4.62 3 7 C4.65 7.33 6.3 7.66 8 8 C7.67 7.01 7.34 6.02 7 5 C8.65 4.67 10.3 4.34 12 4 C12.33 4.66 12.66 5.32 13 6 C12.01 6 11.02 6 10 6 C9.67 6.99 9.34 7.98 9 9 C7.02 9 5.04 9 3 9 C3.33 9.99 3.66 10.98 4 12 C1.5625 11.1875 1.5625 11.1875 -1 10 C-1.33 9.01 -1.66 8.02 -2 7 C-1.34 7 -0.68 7 0 7 C0 4.69 0 2.38 0 0 Z " fill="#E9D19C" transform="translate(289,338)"/>
<path d="M0 0 C0.66 0 1.32 0 2 0 C-0.16163513 6.93998648 -2.8936214 13.43117569 -6 20 C-6.66 19.01 -7.32 18.02 -8 17 C-7.505 15.515 -7.505 15.515 -7 14 C-6.34 13.67 -5.68 13.34 -5 13 C-4.60828247 11.34608154 -4.27942455 9.67654729 -4 8 C-3.67 7.01 -3.34 6.02 -3 5 C-2.34 5 -1.68 5 -1 5 C-0.67 3.35 -0.34 1.7 0 0 Z " fill="#6A6867" transform="translate(254,217)"/>
<path d="M0 0 C7.04440079 -0.21133202 13.24112575 -0.07965362 20 2 C20 2.33 20 2.66 20 3 C15.36830092 3.89071136 13.11896066 4.12188883 9 2 C6.64435404 1.55188863 6.64435404 1.55188863 4.25 1.375 C3.45078125 1.30023438 2.6515625 1.22546875 1.828125 1.1484375 C1.22484375 1.09945312 0.6215625 1.05046875 0 1 C0 0.67 0 0.34 0 0 Z M13 4 C13.66 5.32 14.32 6.64 15 8 C12.69 7.34 10.38 6.68 8 6 C11 4 11 4 13 4 Z " fill="#7A7777" transform="translate(130,151)"/>
<path d="M0 0 C1.23593891 3.70781672 0.5678132 4.67510253 -0.9375 8.1875 C-1.31777344 9.08855469 -1.69804687 9.98960937 -2.08984375 10.91796875 C-2.39019531 11.60503906 -2.69054687 12.29210937 -3 13 C-4.32 12.67 -5.64 12.34 -7 12 C-7.33 10.35 -7.66 8.7 -8 7 C-6.02 7 -4.04 7 -2 7 C-1.855625 6.030625 -1.71125 5.06125 -1.5625 4.0625 C-1 1 -1 1 0 0 Z " fill="#6D6B6D" transform="translate(225,285)"/>
<path d="M0 0 C1.125 3.75 1.125 3.75 0 6 C0.66 6.33 1.32 6.66 2 7 C1.360625 7.556875 0.72125 8.11375 0.0625 8.6875 C-2.19680987 11.22066561 -2.63149047 12.68341424 -3 16 C-3.99 16 -4.98 16 -6 16 C-6.33 17.32 -6.66 18.64 -7 20 C-7.33 19.34 -7.66 18.68 -8 18 C-7.08982541 16.11223048 -6.16931098 14.22858946 -5.19140625 12.375 C-3.18078834 8.36694857 -1.61081552 4.18126582 0 0 Z " fill="#686863" transform="translate(240,233)"/>
<path d="M0 0 C0.433125 0.495 0.86625 0.99 1.3125 1.5 C2.99740483 3.33218192 2.99740483 3.33218192 6 3 C6 3.99 6 4.98 6 6 C5.34 6 4.68 6 4 6 C3.67 6.66 3.34 7.32 3 8 C3 7.34 3 6.68 3 6 C2.01 6.66 1.02 7.32 0 8 C-0.99 8 -1.98 8 -3 8 C-2.45276317 4.62537285 -1.9451 2.91765 0 0 Z " fill="#282627" transform="translate(297,185)"/>
<path d="M0 0 C4.49014624 1.49671541 8.47848764 3.83368341 12 7 C12 7.66 12 8.32 12 9 C11.01 9 10.02 9 9 9 C9 8.34 9 7.68 9 7 C8.34 7 7.68 7 7 7 C7 6.34 7 5.68 7 5 C6.236875 5.226875 5.47375 5.45375 4.6875 5.6875 C3.800625 5.790625 2.91375 5.89375 2 6 C0.1875 4.5625 0.1875 4.5625 -1 3 C-0.67 2.01 -0.34 1.02 0 0 Z " fill="#575655" transform="translate(155,156)"/>
<path d="M0 0 C0.99 0 1.98 0 3 0 C2.67 4.29 2.34 8.58 2 13 C1.01 13 0.02 13 -1 13 C-1.0272415 11.58344207 -1.04650467 10.16672955 -1.0625 8.75 C-1.07410156 7.96109375 -1.08570313 7.1721875 -1.09765625 6.359375 C-1.00385306 4.09308998 -0.63241063 2.1711105 0 0 Z " fill="#D9B776" transform="translate(219,331)"/>
<path d="M0 0 C0.33 0 0.66 0 1 0 C1.04898438 0.62648438 1.09796875 1.25296875 1.1484375 1.8984375 C1.22320312 2.71570313 1.29796875 3.53296875 1.375 4.375 C1.44460937 5.18710937 1.51421875 5.99921875 1.5859375 6.8359375 C1.82892588 9.20334191 1.82892588 9.20334191 4 11 C5.98821313 11.39764263 7.98944339 11.73775349 10 12 C9.67 12.99 9.34 13.98 9 15 C9 14.34 9 13.68 9 13 C8.37351563 12.96261719 7.74703125 12.92523438 7.1015625 12.88671875 C6.28429687 12.82097656 5.46703125 12.75523437 4.625 12.6875 C3.81289062 12.62949219 3.00078125 12.57148438 2.1640625 12.51171875 C0 12 0 12 -2 9 C-1.7578125 6.73828125 -1.7578125 6.73828125 -1.125 4.3125 C-0.92132813 3.50425781 -0.71765625 2.69601562 -0.5078125 1.86328125 C-0.34023437 1.24839844 -0.17265625 0.63351562 0 0 Z " fill="#6A6868" transform="translate(166,281)"/>
<path d="M0 0 C0.66 0.33 1.32 0.66 2 1 C2 1.99 2 2.98 2 4 C0.93458984 4.18175781 0.93458984 4.18175781 -0.15234375 4.3671875 C-1.07144531 4.53476562 -1.99054688 4.70234375 -2.9375 4.875 C-3.85402344 5.03742188 -4.77054687 5.19984375 -5.71484375 5.3671875 C-6.46894531 5.57601563 -7.22304688 5.78484375 -8 6 C-8.33 6.66 -8.66 7.32 -9 8 C-9.66 7.34 -10.32 6.68 -11 6 C-11 5.01 -11 4.02 -11 3 C-9.68 3 -8.36 3 -7 3 C-7 2.34 -7 1.68 -7 1 C-4.69 1.33 -2.38 1.66 0 2 C0 1.34 0 0.68 0 0 Z " fill="#E3CF98" transform="translate(343,275)"/>
<path d="M0 0 C-3.4019487 2.09350689 -6.05272412 2.17942163 -10 2 C-10.33 3.65 -10.66 5.3 -11 7 C-10.01 7.33 -9.02 7.66 -8 8 C-9.65 7.67 -11.3 7.34 -13 7 C-13.33 5.35 -13.66 3.7 -14 2 C-12.42085985 1.46658816 -10.83645613 0.94874237 -9.25 0.4375 C-8.36828125 0.14746094 -7.4865625 -0.14257812 -6.578125 -0.44140625 C-3.92165684 -1.01697435 -2.52968894 -0.89248371 0 0 Z " fill="#777576" transform="translate(194,173)"/>
<path d="M0 0 C0.33 0 0.66 0 1 0 C1.08333357 4.8333472 0.95261487 9.23692563 0 14 C-0.99 14 -1.98 14 -3 14 C-3 11.03 -3 8.06 -3 5 C-2.01 4.67 -1.02 4.34 0 4 C0 2.68 0 1.36 0 0 Z " fill="#DCAE59" transform="translate(355,290)"/>
<path d="M0 0 C1.875 0.3125 1.875 0.3125 4 1 C4.66 1.99 5.32 2.98 6 4 C4.68 4 3.36 4 2 4 C1.67 4.99 1.34 5.98 1 7 C-5.0546875 7.1953125 -5.0546875 7.1953125 -7 7 C-7.66 6.34 -8.32 5.68 -9 5 C-3.555 4.01 -3.555 4.01 2 3 C2 2.34 2 1.68 2 1 C1.34 0.67 0.68 0.34 0 0 Z " fill="#E1BB7D" transform="translate(370,280)"/>
<path d="M0 0 C2.64 0.33 5.28 0.66 8 1 C8 2.32 8 3.64 8 5 C8.66 5.33 9.32 5.66 10 6 C9.01 6.99 8.02 7.98 7 9 C5.83037314 7.69013727 4.66437056 6.3770374 3.5 5.0625 C2.8503125 4.33160156 2.200625 3.60070312 1.53125 2.84765625 C0 1 0 1 0 0 Z " fill="#504E4D" transform="translate(286,306)"/>
<path d="M0 0 C1.32 0.33 2.64 0.66 4 1 C4 1.66 4 2.32 4 3 C4.99 3 5.98 3 7 3 C7.33 4.32 7.66 5.64 8 7 C5.525 6.01 5.525 6.01 3 5 C2.01 6.485 2.01 6.485 1 8 C0.01 7.67 -0.98 7.34 -2 7 C-1.34 4.69 -0.68 2.38 0 0 Z " fill="#282627" transform="translate(160,162)"/>
<path d="M0 0 C1.65 0 3.3 0 5 0 C5.66 2.31 6.32 4.62 7 7 C6.01 6.67 5.02 6.34 4 6 C3.01 7.485 3.01 7.485 2 9 C0.93347808 6.69631264 -0.06421005 4.35981813 -1 2 C-0.67 1.34 -0.34 0.68 0 0 Z " fill="#302E31" transform="translate(150,156)"/>
<path d="M0 0 C0.66 0 1.32 0 2 0 C2 1.65 2 3.3 2 5 C-0.95664519 6.4783226 -3.74229737 6.06032783 -7 6 C-7.33 5.01 -7.66 4.02 -8 3 C-5.69 3 -3.38 3 -1 3 C-0.67 2.01 -0.34 1.02 0 0 Z " fill="#D8B674" transform="translate(185,344)"/>
<path d="M0 0 C0.66 0 1.32 0 2 0 C2 2.31 2 4.62 2 7 C-0.70879335 8.35439668 -3.00933268 8.06501451 -6 8 C-6 6.68 -6 5.36 -6 4 C-4.02 3.67 -2.04 3.34 0 3 C0 2.01 0 1.02 0 0 Z " fill="#D6BC78" transform="translate(149,342)"/>
<path d="M0 0 C3.0691251 4.60368766 3.12326774 7.71199708 3.0625 13.125 C3.05798828 13.87910156 3.05347656 14.63320313 3.04882812 15.41015625 C3.03703499 17.27347127 3.01909942 19.13674555 3 21 C2.67 21 2.34 21 2 21 C0.79556805 13.94546999 -0.28100502 7.16562789 0 0 Z " fill="#72716F" transform="translate(273,259)"/>
<path d="M0 0 C0.350625 0.639375 0.70125 1.27875 1.0625 1.9375 C3.77184206 4.82163832 6.15858911 4.7100822 10 5 C10 5.33 10 5.66 10 6 C7.69 6 5.38 6 3 6 C3.33 6.99 3.66 7.98 4 9 C0.34683329 7.75023244 -0.78065836 7.32901247 -3 4 C-2.34 3.67 -1.68 3.34 -1 3 C-0.67 2.01 -0.34 1.02 0 0 Z " fill="#E6CC95" transform="translate(174,341)"/>
<path d="M0 0 C2.97 0 5.94 0 9 0 C9 1.32 9 2.64 9 4 C5.7 4 2.4 4 -1 4 C-0.67 2.68 -0.34 1.36 0 0 Z " fill="#D8BA7E" transform="translate(176,330)"/>
<path d="M0 0 C0 3 0 3 -1 5 C-1.78375 4.814375 -2.5675 4.62875 -3.375 4.4375 C-5.97089775 3.74037734 -5.97089775 3.74037734 -8 5 C-8.66 4.34 -9.32 3.68 -10 3 C-9 1 -9 1 -7.25 0.375 C-4.79549443 -0.03408426 -2.4840589 -0.06900164 0 0 Z " fill="#272527" transform="translate(310,265)"/>
<path d="M0 0 C6.44006568 1.45812808 6.44006568 1.45812808 8.9375 3.875 C10 6 10 6 10 10 C9.34 10 8.68 10 8 10 C8 8.35 8 6.7 8 5 C5.36 5 2.72 5 0 5 C0 3.35 0 1.7 0 0 Z " fill="#D5AE5D" transform="translate(143,337)"/>
<path d="M0 0 C5.75 -0.125 5.75 -0.125 8 1 C8.25 3.75 8.25 3.75 8 7 C6 9.375 6 9.375 4 11 C3.34 10.01 2.68 9.02 2 8 C2.99 8 3.98 8 5 8 C5.33 6.02 5.66 4.04 6 2 C3.03 1.505 3.03 1.505 0 1 C0 0.67 0 0.34 0 0 Z " fill="#DDB65C" transform="translate(358,235)"/>
<path d="M0 0 C1.98362069 2.91708924 1.9876191 4.12380904 1.625 7.75 C1.41875 8.8225 1.2125 9.895 1 11 C1.99 11.33 2.98 11.66 4 12 C3.01 12.33 2.02 12.66 1 13 C0.34 12.67 -0.32 12.34 -1 12 C-1.484375 10.0390625 -1.484375 10.0390625 -1.75 7.625 C-1.84796875 6.83351563 -1.9459375 6.04203125 -2.046875 5.2265625 C-2 3 -2 3 0 0 Z " fill="#5F5E5D" transform="translate(294,272)"/>
<path d="M0 0 C2.97 0.495 2.97 0.495 6 1 C6.33 1.99 6.66 2.98 7 4 C7 3.01 7 2.02 7 1 C7.99 1.33 8.98 1.66 10 2 C9.67 2.99 9.34 3.98 9 5 C7.02 5.33 5.04 5.66 3 6 C2.01 4.02 1.02 2.04 0 0 Z " fill="#E5C784" transform="translate(347,262)"/>
<path d="M0 0 C0.33 0 0.66 0 1 0 C1.49230769 6.4 1.49230769 6.4 -1 9.4375 C-1.99 10.2109375 -1.99 10.2109375 -3 11 C-3.33 7.7 -3.66 4.4 -4 1 C-3.01 2.485 -3.01 2.485 -2 4 C-1.34 2.68 -0.68 1.36 0 0 Z " fill="#E9D5AB" transform="translate(190,337)"/>
<path d="M0 0 C0.33 0 0.66 0 1 0 C1 3.3 1 6.6 1 10 C-0.98 10.99 -0.98 10.99 -3 12 C-3 12.66 -3 13.32 -3 14 C-4.98 14 -6.96 14 -9 14 C-8.401875 13.731875 -7.80375 13.46375 -7.1875 13.1875 C-4.11025167 11.51699376 -2.36589483 10.13290433 -1.26953125 6.73828125 C-1.11871094 5.93777344 -0.96789062 5.13726562 -0.8125 4.3125 C-0.65394531 3.50425781 -0.49539062 2.69601562 -0.33203125 1.86328125 C-0.22246094 1.24839844 -0.11289063 0.63351562 0 0 Z " fill="#727171" transform="translate(156,278)"/>
<path d="M0 0 C0.33 0 0.66 0 1 0 C2.34495828 7.09705662 3.24091535 13.7725395 3 21 C2.67 21 2.34 21 2 21 C2 18.69 2 16.38 2 14 C1.34 14 0.68 14 0 14 C0 9.38 0 4.76 0 0 Z " fill="#767574" transform="translate(283,236)"/>
<path d="M0 0 C0.33 1.32 0.66 2.64 1 4 C-1.97 4 -4.94 4 -8 4 C-8 3.01 -8 2.02 -8 1 C-5.36 0.67 -2.72 0.34 0 0 Z " fill="#D9BB75" transform="translate(333,346)"/>
<path d="M0 0 C0.66 0 1.32 0 2 0 C2 0.66 2 1.32 2 2 C5.465 1.505 5.465 1.505 9 1 C8.4225 1.2475 7.845 1.495 7.25 1.75 C4.6997003 3.16683317 2.98214299 4.87627537 1 7 C1 6.34 1 5.68 1 5 C0.01 4.67 -0.98 4.34 -2 4 C-2 3.34 -2 2.68 -2 2 C-1.34 2 -0.68 2 0 2 C0 1.34 0 0.68 0 0 Z " fill="#E6CD9B" transform="translate(173,332)"/>
<path d="M0 0 C1.32 0 2.64 0 4 0 C4.33 2.31 4.66 4.62 5 7 C4.01 7 3.02 7 2 7 C0 5 0 5 -0.125 2.375 C-0.08375 1.59125 -0.0425 0.8075 0 0 Z " fill="#E5BC6B" transform="translate(348,288)"/>
<path d="M0 0 C1.75 1.5625 1.75 1.5625 3 3 C-0.33333333 3 -3.66666667 3 -7 3 C-7 2.01 -7 1.02 -7 0 C-3.83170302 -1.05609899 -3.01480825 -1.13055309 0 0 Z " fill="#E1AF4F" transform="translate(353,274)"/>
<path d="M0 0 C0.99 0.495 0.99 0.495 2 1 C2 1.99 2 2.98 2 4 C2.66 4 3.32 4 4 4 C4.66 3.34 5.32 2.68 6 2 C6 4.97 6 7.94 6 11 C2.1334716 7.777893 1.11940982 4.85077588 0 0 Z " fill="#797878" transform="translate(216,254)"/>
<path d="M0 0 C0 3.63 0 7.26 0 11 C-0.33 11 -0.66 11 -1 11 C-1.33 9.35 -1.66 7.7 -2 6 C-2.66 6.66 -3.32 7.32 -4 8 C-4.6875 5.6875 -4.6875 5.6875 -5 3 C-3.40083326 0.79162689 -2.76966516 0 0 0 Z " fill="#595757" transform="translate(266,195)"/>
<path d="M0 0 C2.31 0.33 4.62 0.66 7 1 C7 2.32 7 3.64 7 5 C4.6568787 4.74438677 2.32156597 4.40729228 0 4 C-0.33 3.34 -0.66 2.68 -1 2 C-0.67 1.34 -0.34 0.68 0 0 Z " fill="#353335" transform="translate(257,171)"/>
<path d="M0 0 C2.35694954 0.09031574 4.71153582 0.24688128 7.0625 0.4375 C8.35285156 0.53933594 9.64320313 0.64117187 10.97265625 0.74609375 C12.47119141 0.87177734 12.47119141 0.87177734 14 1 C14 1.33 14 1.66 14 2 C9.71 2.66 5.42 3.32 1 4 C0.34 3.01 -0.32 2.02 -1 1 C-0.67 0.67 -0.34 0.34 0 0 Z " fill="#E9B85C" transform="translate(353,283)"/>
<path d="M0 0 C0.33 0 0.66 0 1 0 C1 1.65 1 3.3 1 5 C0.34 5 -0.32 5 -1 5 C-1 7.64 -1 10.28 -1 13 C-2.32 12.67 -3.64 12.34 -5 12 C-3.35 8.04 -1.7 4.08 0 0 Z " fill="#706F70" transform="translate(229,257)"/>
<path d="M0 0 C0.99 0 1.98 0 3 0 C3 1.65 3 3.3 3 5 C4.65 5 6.3 5 8 5 C4.93882432 7.62386487 4.26826873 8 0 8 C0.185625 7.05125 0.37125 6.1025 0.5625 5.125 C1.28686632 2.10131207 1.28686632 2.10131207 0 0 Z " fill="#E7D18F" transform="translate(353,241)"/>
<path d="M0 0 C0.99 0.33 1.98 0.66 3 1 C3 1.99 3 2.98 3 4 C-1.62 4 -6.24 4 -11 4 C-11 3.67 -11 3.34 -11 3 C-10.37351563 2.95101563 -9.74703125 2.90203125 -9.1015625 2.8515625 C-8.28429687 2.77679688 -7.46703125 2.70203125 -6.625 2.625 C-5.81289062 2.55539062 -5.00078125 2.48578125 -4.1640625 2.4140625 C-1.79665809 2.17107412 -1.79665809 2.17107412 0 0 Z " fill="#262429" transform="translate(207,291)"/>
<path d="M0 0 C2.67733998 2.67031284 3.00280229 4.03721441 3.29296875 7.890625 C3.27314945 9.34404009 3.23754845 10.79731167 3.1875 12.25 C3.16719727 13.36761719 3.16719727 13.36761719 3.14648438 14.5078125 C3.11127204 16.33885416 3.05746851 18.16952169 3 20 C2.67 20 2.34 20 2 20 C1.66131223 17.79248152 1.32928311 15.58394089 1 13.375 C0.814375 12.14523438 0.62875 10.91546875 0.4375 9.6484375 C0.04597484 6.3833973 -0.08080924 3.28287549 0 0 Z " fill="#7C7B7C" transform="translate(269,230)"/>
<path d="M0 0 C1.5 1.3125 1.5 1.3125 3 3 C3 3.99 3 4.98 3 6 C2.34 6 1.68 6 1 6 C1 6.66 1 7.32 1 8 C-0.32 7.34 -1.64 6.68 -3 6 C-3 5.34 -3 4.68 -3 4 C-2.01 3.34 -1.02 2.68 0 2 C0 1.34 0 0.68 0 0 Z " fill="#282627" transform="translate(257,202)"/>
<path d="M0 0 C0 0.33 0 0.66 0 1 C-2.97851562 1.34179688 -2.97851562 1.34179688 -5.95703125 1.68359375 C-8.19396393 1.97170735 -8.19396393 1.97170735 -11 3 C-13.04296875 2.87890625 -13.04296875 2.87890625 -15.1875 2.5625 C-16.445625 2.376875 -17.70375 2.19125 -19 2 C-19 1.67 -19 1.34 -19 1 C-12.62641289 0.03794912 -6.44070471 -0.10655578 0 0 Z " fill="#807E80" transform="translate(213,170)"/>
<path d="M0 0 C4.29 0 8.58 0 13 0 C13.33 0.66 13.66 1.32 14 2 C9.04653013 3.59789351 4.86717585 2.28306814 0 1 C0 0.67 0 0.34 0 0 Z " fill="#2B282A" transform="translate(129,153)"/>
<path d="M0 0 C2.96404505 2.80804268 5.44499019 5.18315774 7 9 C3.89504293 7.96501431 3.21350711 7.21350711 1 5 C-1.09989652 3.82425289 -1.09989652 3.82425289 -3 3 C-2.01 2.01 -1.02 1.02 0 0 Z " fill="#72716F" transform="translate(298,302)"/>
<path d="M0 0 C1.485 0.99 1.485 0.99 3 2 C3.22137393 4.62697064 3.28162025 7.00893964 3.1875 9.625 C3.16719727 10.68460937 3.16719727 10.68460937 3.14648438 11.765625 C3.1111104 13.51074128 3.05730221 15.25546608 3 17 C2.67 17 2.34 17 2 17 C1.93941406 16.19175781 1.87882812 15.38351562 1.81640625 14.55078125 C1.73261719 13.48214844 1.64882813 12.41351563 1.5625 11.3125 C1.48128906 10.25675781 1.40007812 9.20101563 1.31640625 8.11328125 C1.03548319 5.34913703 0.59843148 2.71054259 0 0 Z " fill="#F1E3C1" transform="translate(349,294)"/>
<path d="M0 0 C0.99 0.33 1.98 0.66 3 1 C4.1875 4.0625 4.1875 4.0625 5 7 C4.236875 6.690625 3.47375 6.38125 2.6875 6.0625 C0.81210323 5.32106407 -1.08684652 4.63771783 -3 4 C-2.01 2.68 -1.02 1.36 0 0 Z " fill="#817F81" transform="translate(209,285)"/>
<path d="M0 0 C0.99 0 1.98 0 3 0 C4.75 2.1875 4.75 2.1875 6 5 C5.6875 7.8125 5.6875 7.8125 5 10 C2.35534962 6.8745041 1.15585285 3.91211733 0 0 Z " fill="#6C6B6C" transform="translate(207,272)"/>
<path d="M0 0 C3.42931954 3.7559214 4.56429083 8.23466745 6 13 C3 12 3 12 2.05078125 10.29296875 C1.80714844 9.59816406 1.56351563 8.90335938 1.3125 8.1875 C1.06113281 7.50042969 0.80976563 6.81335938 0.55078125 6.10546875 C0 4 0 4 0 0 Z " fill="#6F6E6D" transform="translate(192,209)"/>
<path d="M0 0 C0.66 0 1.32 0 2 0 C1.01 2.97 0.02 5.94 -1 9 C-2.32 8.34 -3.64 7.68 -5 7 C-4.34 6.67 -3.68 6.34 -3 6 C-3 5.34 -3 4.68 -3 4 C-2.34 4 -1.68 4 -1 4 C-0.67 2.68 -0.34 1.36 0 0 Z " fill="#525150" transform="translate(258,208)"/>
<path d="M0 0 C2 3 2 3 1.625 5.6875 C1.41875 6.450625 1.2125 7.21375 1 8 C-0.98 6.35 -2.96 4.7 -5 3 C-4.360625 2.87625 -3.72125 2.7525 -3.0625 2.625 C-2.0415625 2.315625 -2.0415625 2.315625 -1 2 C-0.67 1.34 -0.34 0.68 0 0 Z " fill="#565455" transform="translate(293,185)"/>
<path d="M0 0 C1.98 0 3.96 0 6 0 C6 0.66 6 1.32 6 2 C5.01 2.33 4.02 2.66 3 3 C2.67 3.66 2.34 4.32 2 5 C1.01 5 0.02 5 -1 5 C-0.67 3.35 -0.34 1.7 0 0 Z " fill="#2A282A" transform="translate(184,175)"/>
<path d="M0 0 C0.66 0.66 1.32 1.32 2 2 C1.54545455 7.45454545 1.54545455 7.45454545 -1 10 C-1.99 9.67 -2.98 9.34 -4 9 C-3.67 8.34 -3.34 7.68 -3 7 C-2.01 7 -1.02 7 0 7 C-0.185625 6.401875 -0.37125 5.80375 -0.5625 5.1875 C-1 3 -1 3 0 0 Z " fill="#E7D3A6" transform="translate(153,340)"/>
<path d="M0 0 C3.63 0 7.26 0 11 0 C11 1.32 11 2.64 11 4 C9.35 4 7.7 4 6 4 C6.66 3.67 7.32 3.34 8 3 C8 2.34 8 1.68 8 1 C5.36 1 2.72 1 0 1 C0 0.67 0 0.34 0 0 Z " fill="#DDC89D" transform="translate(239,330)"/>
<path d="M0 0 C4.92857143 3.28571429 4.92857143 3.28571429 7 5 C7 5.66 7 6.32 7 7 C5.02 6.34 3.04 5.68 1 5 C1 4.34 1 3.68 1 3 C0.01 2.67 -0.98 2.34 -2 2 C-1.34 1.34 -0.68 0.68 0 0 Z " fill="#585758" transform="translate(296,314)"/>
<path d="M0 0 C0.33 0.99 0.66 1.98 1 3 C1.66 3 2.32 3 3 3 C3.33 5.31 3.66 7.62 4 10 C3.01 9.67 2.02 9.34 1 9 C0.67 6.03 0.34 3.06 0 0 Z " fill="#4E4C4A" transform="translate(288,278)"/>
<path d="M0 0 C0.99 0.495 0.99 0.495 2 1 C1.67 1.99 1.34 2.98 1 4 C0.67 2.68 0.34 1.36 0 0 Z M-1 3 C-0.06576355 6.01031744 0.04449911 6.86650268 -1 10 C-2.32 8.02 -3.64 6.04 -5 4 C-3.68 3.67 -2.36 3.34 -1 3 Z " fill="#595758" transform="translate(162,166)"/>
<path d="M0 0 C1.21236328 0.01353516 1.21236328 0.01353516 2.44921875 0.02734375 C3.37154297 0.04474609 3.37154297 0.04474609 4.3125 0.0625 C4.3125 0.3925 4.3125 0.7225 4.3125 1.0625 C2.6728125 1.495625 2.6728125 1.495625 1 1.9375 C-2.72763845 2.88143204 -2.72763845 2.88143204 -5.6875 5.0625 C-5.6875 4.0725 -5.6875 3.0825 -5.6875 2.0625 C-6.3475 1.7325 -7.0075 1.4025 -7.6875 1.0625 C-4.80538698 0.10179566 -2.98899956 -0.04331883 0 0 Z " fill="#D9B979" transform="translate(295.6875,331.9375)"/>
<path d="M0 0 C1.32 0 2.64 0 4 0 C4 0.66 4 1.32 4 2 C5.65 2 7.3 2 9 2 C9 2.66 9 3.32 9 4 C2.25 3.125 2.25 3.125 0 2 C0 1.34 0 0.68 0 0 Z " fill="#D6B36B" transform="translate(208,345)"/>
<path d="M0 0 C1.98 0.99 1.98 0.99 4 2 C4 3.98 4 5.96 4 8 C3.34 8 2.68 8 2 8 C1.34 5.36 0.68 2.72 0 0 Z " fill="#DABB76" transform="translate(302,335)"/>
<path d="M0 0 C0.66 0 1.32 0 2 0 C2 0.66 2 1.32 2 2 C2.66 2 3.32 2 4 2 C5 5 5 5 4.0625 7.1875 C3.5365625 8.0846875 3.5365625 8.0846875 3 9 C0 3.375 0 3.375 0 0 Z " fill="#51504F" transform="translate(200,255)"/>
<path d="M0 0 C2.92879371 0.62759865 5.36095629 1.58622659 8 3 C8 3.99 8 4.98 8 6 C7.1646875 5.566875 7.1646875 5.566875 6.3125 5.125 C3.91505355 3.9586747 1.48403061 2.9660119 -1 2 C-0.67 1.34 -0.34 0.68 0 0 Z " fill="#E5D5AA" transform="translate(370,278)"/>
<path d="M0 0 C4.75 0.75 4.75 0.75 7 3 C5.1875 3.625 5.1875 3.625 3 4 C2.01 3.34 1.02 2.68 0 2 C0 1.34 0 0.68 0 0 Z " fill="#2A2626" transform="translate(314,322)"/>
<path d="M0 0 C0.66 0 1.32 0 2 0 C3.4606285 2.64738916 4 3.89448334 4 7 C3.34 7 2.68 7 2 7 C2 6.34 2 5.68 2 5 C1.34 5 0.68 5 0 5 C0 3.35 0 1.7 0 0 Z " fill="#2A2927" transform="translate(243,228)"/>
<path d="M0 0 C2.97 1.98 2.97 1.98 6 4 C5.67 4.99 5.34 5.98 5 7 C4.01 6.67 3.02 6.34 2 6 C0.8125 2.9375 0.8125 2.9375 0 0 Z " fill="#686667" transform="translate(297,182)"/>
<path d="M0 0 C1.65 0 3.3 0 5 0 C5.33 0.99 5.66 1.98 6 3 C4.02 3 2.04 3 0 3 C0 2.01 0 1.02 0 0 Z " fill="#CBAC60" transform="translate(357,347)"/>
<path d="M0 0 C2.95183101 2.95183101 3.08663988 5.95511947 4 10 C2.68 9.34 1.36 8.68 0 8 C0 5.36 0 2.72 0 0 Z " fill="#71706F" transform="translate(292,288)"/>
<path d="M0 0 C1.875 0.3125 1.875 0.3125 4 1 C4.66 1.99 5.32 2.98 6 4 C3.36 4.33 0.72 4.66 -2 5 C-0.68 4.34 0.64 3.68 2 3 C2 2.34 2 1.68 2 1 C1.34 0.67 0.68 0.34 0 0 Z " fill="#DBB465" transform="translate(370,280)"/>
<path d="M0 0 C1.65 0 3.3 0 5 0 C4 3 4 3 1.9375 4.1875 C1.298125 4.455625 0.65875 4.72375 0 5 C-0.33 4.01 -0.66 3.02 -1 2 C-0.67 1.34 -0.34 0.68 0 0 Z " fill="#292727" transform="translate(150,156)"/>
</svg>
